<?xml version="1.0" encoding="utf-8"?>
<!-- Generator: Adobe Illustrator 25.0.1, SVG Export Plug-In . SVG Version: 6.00 Build 0)  -->
<svg version="1.1" id="Vrstva_1" xmlns="http://www.w3.org/2000/svg" xmlns:xlink="http://www.w3.org/1999/xlink" x="0px" y="0px"
	 viewBox="0 0 375 375" style="enable-background:new 0 0 375 375;" xml:space="preserve">
<style type="text/css">
	.st0{fill:#694A52;}
</style>
<g>
	<path class="st0" d="M189.19,333.6c-44.14,0-88.28,0.01-132.42,0c-20.51-0.01-37.07-13.85-40.69-34.03
		c-0.35-1.95-0.37-3.97-0.37-5.96c-0.02-57.22-0.03-114.44,0-171.66c0.01-17.19,12.47-33.14,29.09-37.51
		c4.66-1.22,9.39-1.83,14.21-1.83c22.77,0.02,45.54-0.05,68.31,0.07c3.06,0.02,4.61-1.03,5.94-3.74
		c9.71-19.68,25.79-30.33,47.42-32.97c11.2-1.37,22.12-0.39,32.63,3.85c13.78,5.56,23.31,15.51,29.19,28.96
		c1.31,2.99,2.9,3.92,6.03,3.9c23.97-0.11,47.93-0.12,71.9-0.04c10.05,0.03,19.37,2.58,27.28,9.13
		c9.26,7.66,14.73,17.51,14.86,29.53c0.3,28.36,0.11,56.72,0.12,85.08c0,28.96,0.03,57.92-0.02,86.88
		c-0.03,20.42-14.87,37.17-35.1,39.86c-2.49,0.33-4.96,0.48-7.46,0.48C276.47,333.6,232.83,333.6,189.19,333.6z M202.37,90.39
		c0.14-0.75,0.28-1.13,0.27-1.51c-0.22-6.32,0.1-5.69,6-5.73c0.1,0,0.2,0,0.3,0c3.73,0.04,3.89,0.17,3.89,3.9
		c0.02,11.38,0.01,22.77,0.04,34.15c0.01,3.41,0.37,6.8,1.81,9.94c2,4.35,6.44,6.25,10.99,4.77c4.36-1.41,7.04-4.56,8.34-8.76
		c4.87-15.74,3.71-31.18-3.08-46.1c-4.19-9.19-10.84-16.35-20.23-20.36c-8.74-3.74-17.9-5.08-27.51-4.03
		c-22.19,2.41-37.5,15.36-43.04,36.91c-3.32,12.91-3.04,25.92-0.59,38.89c1.73,9.15,5.36,17.57,11.54,24.68
		c10.06,11.56,23.29,16.11,38.13,16.45c14.4,0.33,28.15-2.75,41.04-9.29c2.09-1.06,3.06-1.04,2.98,1.69
		c-0.31,10.36,1.76,7.58-7.99,12.48c-0.8,0.4-1.67,0.67-2.52,0.96c-14.23,4.86-28.87,6.38-43.7,4.28
		c-21.61-3.05-37.81-13.96-46.63-34.4c-7.13-16.52-7.89-33.84-5.33-51.42c0.56-3.85,0.63-3.94-3.2-3.94
		c-22.77-0.01-45.53,0-68.3-0.01c-3.96,0-7.69,0.99-11.33,2.48c-2.22,0.91-3.05,1.82-1.02,4.01c8.22,8.84,16.3,17.8,24.43,26.72
		c11.95,13.12,23.9,26.26,35.85,39.38c6.65,7.3,13.33,14.57,19.98,21.87c11.61,12.76,23.21,25.53,34.81,38.3
		c5.16,5.69,10.29,11.4,15.45,17.08c4.56,5.02,9.16,10,13.7,15.05c1.21,1.35,2.23,1.44,3.41,0.01c1.34-1.61,2.74-3.17,4.15-4.72
		c9.09-9.94,18.2-19.85,27.28-29.8c11.76-12.9,23.48-25.83,35.23-38.74c6.65-7.3,13.34-14.56,19.98-21.87
		c10.92-12.04,21.79-24.13,32.72-36.17c8.38-9.23,16.78-18.44,25.22-27.62c1.33-1.44,1.21-2.31-0.54-3.13
		c-3.95-1.84-8.06-2.88-12.44-2.88c-23.77,0.01-47.53,0-71.3,0.01c-3.87,0-3.87,0.01-3.56,3.76c0.04,0.5,0.1,0.99,0.15,1.49
		c0.96,9.6,0.92,19.16-2.03,28.46c-2.05,6.47-5.14,12.31-10.93,16.37c-7.69,5.39-22.19,4.95-27.41-4.96
		c-1.53-2.9-1.66-2.89-3.48-0.21c-9.83,14.4-34.46,12.56-41.16-3.14c-5.66-13.26-6-27.06-0.7-40.26
		c6.58-16.38,27.67-19.08,39.26-5.71C201.5,89.94,201.8,90.04,202.37,90.39z M189.23,322.27c44.33,0,88.66-0.01,132.99,0.01
		c4.78,0,9.3-0.99,13.58-3.13c1.84-0.92,1.99-1.77,0.33-3.25c-4.62-4.11-9.11-8.36-13.61-12.6c-10.96-10.33-21.91-20.67-32.84-31.04
		c-12.96-12.29-25.88-24.61-38.82-36.92c-3.61-3.44-7.3-6.8-10.85-10.3c-1.32-1.3-2.26-1.26-3.44,0.09
		c-2.04,2.32-4.16,4.57-6.24,6.86c-4.95,5.47-9.87,10.97-14.84,16.42c-7.19,7.89-14.36,15.79-21.65,23.58
		c-3.06,3.27-6.13,3.14-9.35-0.02c-0.93-0.91-1.83-1.84-2.7-2.8c-11.61-12.76-23.18-25.56-34.82-38.28c-3.3-3.6-3.43-3.55-6.91-0.26
		c-8.55,8.1-17.08,16.2-25.57,24.36c-12.02,11.54-23.97,23.15-36.01,34.68c-5.4,5.17-10.95,10.19-16.38,15.33
		c-4.56,4.32-8.8,8.99-13.62,13.04c-0.72,0.6-1.9,1.25-1.57,2.34c0.37,1.23,1.78,1.05,2.81,1.27c2.55,0.53,5.13,0.64,7.74,0.64
		C101.37,322.27,145.3,322.27,189.23,322.27z M33.44,106.05c-1.04-0.1-1.34,0.1-2.2,1.48c-2.95,4.76-4.74,9.88-4.74,15.54
		c0,14.88,0,29.75,0,44.63c0,41.63,0.01,83.26-0.01,124.89c0,7.53,2.73,14,7.32,19.82c1.36,1.73,2.52,2.11,4.34,0.34
		c8.44-8.2,17.03-16.25,25.53-24.4c11.45-10.98,22.75-22.12,34.35-32.94c4.67-4.36,9.17-8.88,13.84-13.24
		c7.66-7.14,15.16-14.46,22.74-21.68c1.05-1,1.3-1.85,0.18-3.01c-1.87-1.93-3.61-3.99-5.43-5.98c-7.07-7.72-14.18-15.41-21.23-23.15
		c-11.89-13.04-23.77-26.09-35.64-39.16c-6.97-7.68-13.87-15.42-20.85-23.09c-5.84-6.42-11.76-12.76-17.63-19.15
		C33.7,106.59,33.48,106.12,33.44,106.05z M351.87,208.71c0-28.16,0.01-56.31-0.01-84.47c-0.01-5.91-1.56-11.43-4.6-16.53
		c-1.03-1.72-1.72-2.32-3.43-0.37c-6.58,7.49-13.35,14.82-20.08,22.17c-9.29,10.15-18.64,20.26-27.91,30.43
		c-16.06,17.61-32.06,35.28-48.17,52.84c-1.75,1.9-1.55,3.02,0.2,4.61c5.46,4.96,10.86,10,16.23,15.07
		c15.02,14.18,30.01,28.38,45,42.58c11.73,11.11,23.48,22.21,35.16,33.38c1.53,1.47,2.35,1.34,3.36-0.43
		c2.78-4.88,4.25-10.1,4.26-15.71C351.88,264.42,351.87,236.56,351.87,208.71z M170.93,114.52c-0.2,4.08-0.11,8.27,1.17,12.32
		c1.37,4.31,3.44,8.08,7.99,9.84c8.95,3.45,17.13-0.45,19.8-9.66c2-6.93,1.32-14.01,0.54-21.05c-0.29-2.62-1.29-5.02-2.62-7.27
		c-3.01-5.13-7.59-7-13.39-6.57c-5.15,0.39-8.79,2.9-11.17,7.37C170.76,104.18,170.76,109.28,170.93,114.52z"/>
</g>
</svg>
