<?xml version="1.0" encoding="utf-8"?>
<!-- Generator: Adobe Illustrator 25.0.1, SVG Export Plug-In . SVG Version: 6.00 Build 0)  -->
<svg version="1.1" id="Vrstva_1" xmlns="http://www.w3.org/2000/svg" xmlns:xlink="http://www.w3.org/1999/xlink" x="0px" y="0px"
	 viewBox="0 0 375 375" style="enable-background:new 0 0 375 375;" xml:space="preserve">
<style type="text/css">
	.st0{fill:#694A52;}
</style>
<g>
	<path class="st0" d="M211.01,267.85c0-17.59,0.07-35.17-0.06-52.76c-0.03-3.54,1.08-4.85,4.71-4.78c9.49,0.19,19-0.01,28.49,0.1
		c2.92,0.04,4.24-0.87,4.56-3.94c0.52-5.08,1.35-10.14,2.37-15.14c0.66-3.24-0.38-4.29-3.56-4.27c-10.62,0.09-21.25-0.09-31.87,0.09
		c-3.64,0.06-4.85-1.24-4.69-4.78c0.46-10.7-0.64-21.43,0.75-32.13c2.11-16.23,12.21-25.2,28.55-25.21c3.12,0,6.25-0.04,9.37-0.01
		c2.07,0.02,3.36-0.72,3.35-3c-0.02-4.49,0-8.98-0.01-13.47c0-1.51-0.45-2.78-2.2-2.93c-13.46-1.17-26.96-2.43-40.09,2.01
		c-13.94,4.71-20.92,15.4-24.36,29.01c-1.94,7.69-1.83,15.58-2.23,23.39c-0.36,7.22-0.07,14.46-0.08,21.7
		c-0.01,5.29-0.07,5.34-5.52,5.35c-8,0.01-16-0.01-23.99,0.01c-4.73,0.01-4.95,0.23-4.98,4.77c-0.03,4.86,0.09,9.73-0.03,14.59
		c-0.07,2.91,1.14,3.98,4.01,3.94c8.62-0.1,17.25,0.1,25.87-0.09c3.64-0.08,4.72,1.28,4.71,4.8c-0.1,35.05-0.05,70.09-0.07,105.14
		c0,4.44-0.67,4.84-5.13,4.27c-24.7-3.21-47.01-12.44-67.04-27.05c-17.29-12.61-31-28.45-41.37-47.18
		c-10.01-18.07-15.98-37.4-17.52-57.91c-2.85-38.01,7.06-72.44,30.86-102.45c23.14-29.17,53.31-47.05,90.02-53.44
		c28.92-5.04,56.94-1.45,83.9,10.34c16.11,7.04,30.46,16.72,42.89,28.99c23.37,23.09,37.72,50.91,42.4,83.54
		c3.84,26.79,0.96,52.76-9.88,77.63c-15.42,35.39-40.84,61.02-76.25,76.7c-13.35,5.92-27.33,9.43-41.8,11.31
		c-3.76,0.49-4.15-1-4.13-4.02C211.05,303.27,211.01,285.56,211.01,267.85z M223.79,266.52c0,12.47-0.01,24.95,0.01,37.42
		c0.01,5.59,0.46,5.98,5.77,4.66c8.5-2.11,16.74-4.92,24.73-8.59c27.67-12.73,48.6-32.61,62.58-59.48
		c11.22-21.55,16.12-44.53,14.28-69.01c-1.64-21.85-7.74-42.15-19.22-60.72c-14.29-23.1-33.87-40.34-58.72-51.63
		c-24.15-10.97-49.4-14.02-75.38-10.03c-32.8,5.04-60.04,20.57-81.3,46c-24.39,29.18-34.51,62.94-30,100.63
		c4.04,33.68,19.13,61.82,44.94,84.13c16.18,13.99,34.61,23.53,55.41,28.5c3.9,0.93,4.34,0.6,4.35-3.5
		c0.02-25.57-0.04-51.14,0.07-76.71c0.01-3.5-1.29-4.54-4.63-4.48c-8.37,0.16-16.75-0.07-25.12,0.11c-3.46,0.07-4.92-0.9-4.87-4.62
		c0.17-13.72,0.13-27.44,0.02-41.16c-0.03-3.2,1.02-4.46,4.32-4.4c8.37,0.15,16.75,0.06,25.12,0.04c4.92-0.01,5.07-0.18,5.11-5.02
		c0.08-10.46-0.26-20.91,1.5-31.33c4.13-24.45,19.19-40.26,43.62-44.67c15.28-2.76,30.6-1.17,45.88,0.75
		c3.19,0.4,4.27,1.61,4.24,4.72c-0.11,11.97-0.15,23.95,0.02,35.92c0.05,3.58-1.42,4.48-4.69,4.41c-7.75-0.16-15.5-0.05-23.25-0.05
		c-7.91,0.01-10.52,1.76-12.74,9.33c-2.06,7-1.82,14.28-2.09,21.5c-0.13,3.48,1.27,4.54,4.63,4.5c11.25-0.14,22.5-0.07,33.75-0.04
		c4.13,0.01,4.8,0.81,4.16,4.95c-2.11,13.67-4.37,27.33-6.31,41.02c-0.45,3.17-1.63,4.2-4.75,4.14c-8.87-0.16-17.75-0.07-26.62-0.05
		c-4.6,0.01-4.8,0.21-4.81,4.94C223.78,241.32,223.79,253.92,223.79,266.52z"/>
</g>
</svg>
