<svg width="62" height="63" viewBox="0 0 62 63" fill="none" xmlns="http://www.w3.org/2000/svg">
<path d="M47.192 0C51.2515 0 54.7344 1.4 57.6406 4.2C60.5469 7 62 10.3556 62 14.2667C62 16.2222 60.7775 19.2222 58.3326 23.2667C55.8876 27.3111 53.4888 31.4222 51.1362 35.6C48.7835 39.7778 47.7455 43.1111 48.0223 45.6C48.0223 46.0444 47.7686 46.2667 47.2612 46.2667C46.7537 46.2667 46.5 46.0444 46.5 45.6C46.6845 43.1111 45.6235 39.7778 43.317 35.6C41.0104 31.4222 38.6347 27.3111 36.1897 23.2667C33.7448 19.2222 32.5223 16.2222 32.5223 14.2667C32.5223 10.3556 33.9524 7 36.8125 4.2C39.6726 1.4 43.1324 0 47.192 0ZM47.2612 8.53333C45.6466 8.53333 44.2626 9.08889 43.1094 10.2C41.9561 11.3111 41.3795 12.6667 41.3795 14.2667C41.3795 15.8667 41.9561 17.2222 43.1094 18.3333C44.2626 19.4444 45.6466 20 47.2612 20C48.8757 20 50.2597 19.4444 51.4129 18.3333C52.5662 17.2222 53.1429 15.8667 53.1429 14.2667C53.1429 12.6667 52.5662 11.3111 51.4129 10.2C50.2597 9.08889 48.8757 8.53333 47.2612 8.53333ZM5.95089 5.73333H31.5536C29.7083 8.57778 28.7857 11.6444 28.7857 14.9333C28.7857 17.2444 30.2619 20.9333 33.2143 26L0.138393 57.8667L0 56.9333V11.4667C0 9.86667 0.576637 8.51111 1.72991 7.4C2.88318 6.28889 4.29018 5.73333 5.95089 5.73333ZM42.9018 42.4L35.8437 35.6L37.7812 33.6C39.9955 37.0667 41.7024 40 42.9018 42.4ZM51.3437 62.6667H7.75L29.4777 41.6L51.3437 62.6667ZM59.0937 29.6V56.9333L58.9554 57.8667L48.9911 48.2667C49.2679 47.4667 49.5908 46.6444 49.9598 45.8C50.3289 44.9556 50.744 44.0667 51.2054 43.1333C51.6667 42.2 52.1049 41.3556 52.5201 40.6C52.9353 39.8444 53.4888 38.8889 54.1808 37.7333C54.8728 36.5778 55.3802 35.7111 55.7031 35.1333C56.026 34.5556 56.6027 33.6 57.433 32.2667L59.0937 29.6ZM13.8393 32.8C12.2708 32.8 11.0253 32.4889 10.1027 31.8667C9.18006 31.2444 8.71875 30.4 8.71875 29.3333C8.71875 28.0889 9.54911 27.1556 11.2098 26.5333C12.1324 26.2667 13.1473 26.1333 14.2545 26.1333H14.9464C16.1458 27.0222 16.9762 27.6889 17.4375 28.1333C17.8988 28.5778 18.1295 29.1111 18.1295 29.7333C18.1295 30.5333 17.7143 31.2444 16.8839 31.8667C16.0536 32.4889 15.0387 32.8 13.8393 32.8ZM10.3795 16.5333C10.3795 15.6444 10.6332 14.9556 11.1406 14.4667C11.6481 13.9778 12.2247 13.7333 12.8705 13.7333C14.0699 13.7333 15.0156 14.2667 15.7076 15.3333C16.3996 16.4 16.7455 17.5111 16.7455 18.6667C16.7455 19.6444 16.4457 20.3333 15.846 20.7333C15.2463 21.1333 14.6235 21.3333 13.9777 21.3333C12.9628 21.3333 12.1094 20.8222 11.4174 19.8C10.7254 18.7778 10.3795 17.6889 10.3795 16.5333ZM17.5759 24.8L16.6071 24C16.0536 23.5556 15.7768 23.1556 15.7768 22.8C15.7768 22.1778 16.0997 21.6444 16.7455 21.2C18.314 20.0444 19.0982 18.7556 19.0982 17.3333C19.0982 16.0889 18.4524 14.9333 17.1607 13.8667H18.8214L20.067 12.6667H14.1161C12.1786 12.6667 10.6793 13.1778 9.6183 14.2C8.55729 15.2222 8.02679 16.4444 8.02679 17.8667C8.02679 19.0222 8.44196 20.0444 9.27232 20.9333C10.1027 21.8222 11.256 22.2667 12.7321 22.2667H13.4241L13.1473 23.3333C13.1473 23.9556 13.4241 24.5778 13.9777 25.2C11.7634 25.2889 9.91815 25.7778 8.44196 26.6667C6.96577 27.4667 6.22768 28.5778 6.22768 30C6.22768 31.1556 6.75818 32.1111 7.8192 32.8667C8.88021 33.6222 10.4256 34 12.4554 34C14.7619 34 16.5841 33.4667 17.9219 32.4C19.2597 31.3333 19.9286 30.1333 19.9286 28.8C19.9286 27.3778 19.1443 26.0444 17.5759 24.8Z" fill="white"/>
</svg>
