<svg width="73" height="56" viewBox="0 0 73 56" fill="none" xmlns="http://www.w3.org/2000/svg">
<path d="M36.3673 55.9749C26.7324 55.9749 17.0975 55.9734 7.46098 55.9779C6.53987 55.9779 5.62182 55.9478 4.73131 55.7028C2.28777 55.0307 0.138001 52.4898 0.0599672 49.9864C-0.0287777 47.1342 0.0201828 44.276 0.0385438 41.4223C0.0446641 40.4947 0.186964 40.3879 1.25037 40.3864C5.9156 40.3774 10.5793 40.3819 15.2445 40.3804C15.627 40.3804 16.0126 40.3969 16.389 40.3473C17.3499 40.221 18.0369 39.4753 18.0293 38.6092C18.0216 37.6545 17.3224 36.9388 16.2773 36.8862C15.4388 36.8441 14.5958 36.8697 13.7542 36.8697C9.77753 36.8682 5.80084 36.8697 1.82415 36.8682C1.47989 36.8682 1.13561 36.8606 0.792874 36.8501C0.339969 36.8366 0.0875091 36.6035 0.0507871 36.1585C0.0324261 35.9345 0.0263052 35.7089 0.0263052 35.4834C0.0247751 33.1545 0.0186516 30.8255 0.0278321 28.4951C0.0324223 27.2336 0.124229 27.1374 1.39267 27.1359C6.01964 27.1284 10.6451 27.1329 15.2721 27.1299C15.6928 27.1299 16.1167 27.1419 16.5313 27.0893C17.4463 26.972 18.0216 26.2759 17.9971 25.3722C17.9727 24.4957 17.4417 23.9093 16.5176 23.795C16.1029 23.7439 15.6775 23.7575 15.2583 23.7575C10.7461 23.7545 6.23539 23.759 1.72317 23.7545C0.0920983 23.7529 0.0293653 23.6913 0.0263052 22.1216C0.0217149 19.7175 0.104337 17.3104 0.00488174 14.9092C-0.123645 11.8195 2.2893 8.17647 6.82141 7.97951C7.16568 7.96447 7.50995 7.97049 7.85422 7.97049C26.9328 7.97049 46.013 7.97049 65.0916 7.97049C65.7801 7.97049 66.4626 7.99304 67.148 8.09528C70.4852 8.59294 72.8843 11.8255 72.8583 14.7393C72.7589 26.2713 72.8216 37.8064 72.8155 49.3399C72.8139 52.8867 70.352 55.5554 66.7594 55.9238C66.2285 55.9779 65.6899 55.9734 65.1559 55.9734C55.5622 55.9764 45.9655 55.9749 36.3673 55.9749ZM47.0917 47.6589C54.9334 47.9085 63.2264 41.6494 63.2693 31.7802C63.3106 22.1051 55.2363 15.7046 47.1529 15.6189C38.0795 15.5212 30.807 23.1515 30.7274 31.4826C30.6433 40.3398 38.1529 47.9626 47.0917 47.6589Z" fill="white"/>
<path d="M47.0825 4.81911C43.8708 4.81911 40.6592 4.82363 37.4475 4.81761C35.8501 4.8146 35.5686 4.41316 36.0368 2.90663C36.479 1.4828 37.9846 -0.0207216 39.9661 0.00483823C44.7445 0.0649791 49.5245 0.0709933 54.303 0.000327849C56.1284 -0.0267355 58.1006 1.62564 58.3225 3.50654C58.4434 4.53796 58.2429 4.80558 57.1765 4.8116C53.8118 4.82663 50.4471 4.81761 47.0825 4.81761V4.81911Z" fill="white"/>
<path d="M59.7394 31.7201C59.8205 38.2379 54.5326 44.2895 46.9801 44.2429C39.3205 44.1948 34.2498 38.3251 34.2207 31.6915C34.1931 25.0294 39.5683 19.0755 47.078 19.1071C54.4897 19.1386 59.8481 25.0384 59.7394 31.7201Z" fill="white"/>
</svg>
