<svg width="73" height="49" viewBox="0 0 73 49" fill="none" xmlns="http://www.w3.org/2000/svg">
<path d="M36.2719 39.0203C27.0028 39.0203 17.7323 39.0203 8.46321 39.0203C6.71901 39.0203 6.71593 39.0233 6.71439 40.6867C6.71131 42.9155 6.72055 45.1444 6.71131 47.3733C6.70516 48.6646 6.62356 48.7478 5.36121 48.7569C3.93876 48.7675 2.51477 48.775 1.09231 48.7508C0.162482 48.7357 0.0516381 48.6026 0.00699398 47.6818C-0.00532164 47.4186 0.00237581 47.1525 0.00237581 46.8879C0.00237581 31.8907 0.00237581 16.8934 0.00237581 1.89469C0.00237581 0.00756237 0.00391846 0.00605171 1.88667 0.00605171C3.11823 0.00453959 4.34825 -0.0105835 5.57827 0.0136105C6.56506 0.0332681 6.70207 0.164827 6.70823 1.15678C6.72363 4.10391 6.71593 7.04952 6.71593 9.99664C6.71593 15.776 6.71593 21.5568 6.71593 27.3361C6.71593 27.6764 6.70054 28.0181 6.72825 28.3553C6.78521 29.0585 6.91144 29.1719 7.65654 29.2263C7.9244 29.246 8.19535 29.2354 8.46321 29.2354C16.0789 29.2354 23.6946 29.2369 31.3102 29.2354C33.0175 29.2354 33.0221 29.2308 33.0221 27.5206C33.0236 21.0986 33.0221 14.6767 33.0236 8.25468C33.0236 6.5611 33.0283 6.55807 34.754 6.55807C42.947 6.55656 51.1399 6.60949 59.3313 6.54144C65.4353 6.49003 71.3129 10.7255 72.5706 17.0552C72.7046 17.7296 72.7492 18.4025 72.7492 19.0815C72.7523 28.4884 72.7523 37.8938 72.7538 47.3007C72.7538 47.4897 72.7615 47.6802 72.7431 47.8677C72.6753 48.5694 72.5506 48.7236 71.8179 48.7417C70.5109 48.775 69.2023 48.7569 67.8953 48.7584C67.5874 48.7584 67.278 48.7705 66.9732 48.7478C66.2496 48.6934 66.1065 48.5724 66.0634 47.8541C66.0249 47.2145 66.0464 46.5703 66.0464 45.9277C66.0449 44.1146 66.0511 42.3016 66.0434 40.4871C66.0372 39.0732 65.9864 39.0203 64.5439 39.0188C56.1585 39.0158 47.7747 39.0173 39.3893 39.0173C38.3486 39.0203 37.3095 39.0203 36.2719 39.0203Z" fill="white"/>
<path d="M29.8077 16.3914C29.8031 21.8456 25.3957 26.1068 19.7828 26.0856C14.3624 26.0645 9.9103 21.637 9.9257 16.2825C9.94109 10.9206 14.4609 6.56111 20.0045 6.56262C25.1786 6.56262 29.9986 10.9962 29.8077 16.3914Z" fill="white"/>
</svg>
