<svg width="56" height="67" viewBox="0 0 56 67" fill="none" xmlns="http://www.w3.org/2000/svg">
<path d="M35.5053 35.2861C35.2502 35.8245 35.3352 36.1927 35.3337 36.5477C35.3232 38.4532 35.3337 40.3587 35.3247 42.2642C35.3232 42.6661 35.286 43.068 35.2412 43.467C35.1144 44.62 34.5758 45.374 33.3763 45.7759C31.9352 46.26 30.5597 46.9347 29.1722 47.5611C28.6202 47.8105 28.1279 47.809 27.5684 47.5831C25.4663 46.7323 23.3568 45.9006 21.2368 45.0952C20.5849 44.8473 20.2015 44.4498 20.0135 43.7912C19.7897 43.0079 19.6509 42.226 19.6569 41.4104C19.6703 39.5093 19.6614 37.6097 19.6614 35.6998C19.2049 35.6514 19.1959 35.9829 19.1034 36.1766C18.453 37.5349 17.8219 38.9035 17.1863 40.2692C16.6299 41.4618 15.7407 41.8607 14.4607 41.4764C14.213 41.4016 13.9713 41.2989 13.7356 41.1904C9.92681 39.4272 6.11952 37.6596 2.31221 35.8934C2.00936 35.7526 1.71247 35.5971 1.40664 35.4636C0.512994 35.0705 -0.06437 34.4662 0.00574882 33.4379C0.0863109 32.2467 0.926248 31.1172 1.91089 30.8121C2.50616 30.6273 3.01041 30.8591 3.51616 31.0923C6.31495 32.3861 9.11075 33.6858 11.9066 34.9854C12.2094 35.1262 12.5093 35.2744 12.8121 35.4152C13.8251 35.8846 13.8177 35.8802 14.2802 34.8886C16.0824 31.0263 17.8935 27.1684 19.6912 23.3046C19.9225 22.8058 20.097 22.2821 20.3029 21.7717C21.4949 18.8203 23.588 16.9368 26.8538 16.4586C28.192 16.262 29.4527 16.5613 30.6372 17.151C32.4723 18.0648 33.8254 19.4731 34.546 21.3565C35.6783 24.3123 37.1687 27.1038 38.4532 29.9877C39.2007 31.6659 39.9929 33.3234 40.7791 34.984C41.1894 35.8524 41.2192 35.8553 42.1143 35.4431C45.2533 33.9997 48.3862 32.5445 51.5282 31.1084C52.6769 30.5833 53.3035 30.6537 54.0599 31.4121C54.8685 32.2233 55.2355 33.1856 54.8849 34.3239C54.7059 34.9077 54.2106 35.1688 53.6959 35.4094C51.373 36.4934 49.0561 37.5877 46.7317 38.6688C44.9474 39.4991 43.1572 40.319 41.3669 41.1376C41.064 41.2755 40.7552 41.4134 40.4345 41.5014C39.2947 41.8153 38.4547 41.4794 37.9281 40.4305C37.3015 39.1822 36.7376 37.9045 36.1453 36.6401C35.9603 36.2411 35.7708 35.8465 35.5053 35.2861Z" fill="white"/>
<path d="M46.4989 59.9799C46.4109 61.215 45.9469 62.5543 44.8564 63.6002C43.3466 65.0466 41.6145 65.381 39.6183 64.5933C32.3558 61.7299 25.0799 58.8988 17.8069 56.0604C15.7988 55.2756 13.8012 54.46 11.7707 53.7354C9.6448 52.977 8.62734 51.4602 8.51843 49.3259C8.41847 47.3735 9.86709 45.1643 11.6797 44.3825C12.8658 43.8705 14.0742 43.8867 15.2707 44.3487C17.6294 45.2582 19.9821 46.1853 22.3363 47.1035C29.3318 49.8334 36.3287 52.5618 43.3227 55.2961C45.4158 56.1147 46.5168 57.6681 46.4989 59.9799Z" fill="white"/>
<path d="M20.4716 6.87692C20.2717 3.66003 23.1928 0.0280051 27.5208 0.000134174C31.1819 -0.0233361 34.6997 3.03513 34.6505 6.97667C34.6043 10.6835 31.7816 13.8637 27.5968 13.9253C22.9809 13.9913 20.2687 10.1217 20.4716 6.87692Z" fill="white"/>
<path d="M26.5943 60.7251C25.6708 61.3133 24.6832 61.6404 23.7403 62.0468C20.843 63.2936 17.8682 64.3835 15.0396 65.7624C11.4993 67.4875 8.46631 64.6813 7.95757 62.1377C7.45928 59.6484 8.40514 57.7502 10.7698 56.6838C11.4456 56.3787 12.1393 56.1117 12.8167 55.8081C13.3523 55.5675 13.8535 55.544 14.4234 55.7685C18.2218 57.2662 22.0336 58.7345 25.8379 60.2161C26.0751 60.307 26.3332 60.376 26.5943 60.7251Z" fill="white"/>
<path d="M28.5814 48.6994C28.6859 48.387 28.9156 48.3327 29.114 48.2476C32.8378 46.6648 36.5526 45.0645 40.2883 43.5125C43.4376 42.2055 46.872 44.3178 47.1808 47.7093C47.4046 50.1707 46.5348 51.6435 44.2328 52.6967C41.5146 53.9406 41.5146 53.9392 38.7084 52.8361C35.6679 51.6391 32.6259 50.445 29.587 49.2466C29.2483 49.1131 28.8679 49.0471 28.5814 48.6994Z" fill="white"/>
</svg>
