<svg width="69" height="62" viewBox="0 0 69 62" fill="none" xmlns="http://www.w3.org/2000/svg">
<path d="M0.0015589 9.56572C-0.00886617 8.91144 0.0253874 8.04492 0.341118 7.19889C1.35235 4.48368 3.55949 3.25269 6.51425 3.18243C8.70947 3.12974 10.796 3.75035 12.7425 4.70909C18.7711 7.67899 23.1601 12.1799 25.6115 18.392C26.4872 20.6139 26.7791 22.928 26.0151 25.2685C25.8766 25.6945 25.9138 26.0194 26.2817 26.3414C28.252 28.0686 30.2 29.8207 32.1629 31.5552C32.8584 32.1685 32.8792 32.17 33.6224 31.5069C36.1021 29.2982 38.5817 27.0894 41.0406 24.8572C41.4725 24.465 42.1665 24.222 42.2767 23.6423C42.3914 23.0408 41.6988 22.6778 41.4397 22.1611C40.4717 20.226 40.491 18.3598 41.8195 16.5857C42.1263 16.1759 42.4763 15.7909 42.8426 15.4294C47.8094 10.5362 52.7837 5.64734 57.7564 0.759967C57.9664 0.553583 58.1779 0.347197 58.4028 0.155449C58.7364 -0.129977 59.0149 0.0163995 59.2725 0.282797C59.5317 0.550658 59.4825 0.796562 59.2427 1.04979C58.4072 1.93387 57.5852 2.82967 56.7437 3.70644C53.8083 6.76416 50.864 9.81309 47.9301 12.8723C47.4714 13.3509 47.026 13.8442 46.612 14.3609C46.198 14.8776 46.2099 15.3796 46.5793 15.7456C46.9888 16.151 47.5548 16.1671 48.079 15.7265C48.7849 15.1337 49.473 14.516 50.1476 13.8881C52.0941 12.0789 54.0213 10.2507 55.9722 8.4489C57.7877 6.77148 59.621 5.11308 61.4558 3.45615C61.9145 3.04191 62.1632 3.05948 62.4775 3.43565C62.6666 3.66253 62.7113 3.89087 62.5237 4.13092C62.4105 4.27583 62.2824 4.40903 62.1543 4.54076C59.3455 7.46382 56.5158 10.3693 53.7338 13.3172C52.5454 14.5775 51.3525 15.8334 50.1357 17.0673C49.9808 17.2239 49.8274 17.3893 49.7098 17.5723C49.394 18.0597 49.4149 18.5369 49.7708 18.8765C50.1744 19.2614 50.645 19.2439 51.1097 19.0097C51.3033 18.9116 51.4671 18.7506 51.6309 18.6027C52.5067 17.8109 53.3868 17.0234 54.2521 16.2198C57.5747 13.1284 60.8914 10.0312 64.211 6.93834C64.4002 6.7627 64.5908 6.58705 64.7978 6.43336C65.0852 6.21965 65.3548 6.29284 65.5946 6.52996C65.8478 6.7788 65.8627 7.03934 65.6288 7.30573C65.2163 7.77705 64.8172 8.26008 64.3853 8.71237C61.5035 11.7189 58.6113 14.7166 55.7265 17.7216C54.9104 18.572 54.1091 19.4371 53.3005 20.2963C53.0979 20.5114 52.8805 20.7193 52.8075 21.015C52.6958 21.4702 52.7345 21.8917 53.1605 22.1933C53.5432 22.4655 53.9304 22.4348 54.2983 22.1728C54.5693 21.9796 54.8374 21.7805 55.0787 21.5551C56.3163 20.3943 57.5569 19.2365 58.8138 18.0948C61.7626 15.4148 64.6623 12.682 67.5828 9.97117C67.7183 9.84529 67.8524 9.71795 67.9953 9.60231C68.2738 9.3769 68.5389 9.4091 68.7802 9.66525C69.0125 9.91262 69.0572 10.179 68.8353 10.4527C68.6968 10.624 68.5449 10.7865 68.387 10.9416C63.2058 16.0383 58.0319 21.1438 52.8373 26.2258C50.9086 28.1125 48.3813 28.3248 46.1101 26.864C45.924 26.744 45.7408 26.6181 45.5606 26.4878C45.2344 26.2507 44.9381 26.2961 44.6655 26.5712C44.1979 27.0411 43.7168 27.5022 43.2671 27.9896C41.191 30.2349 39.1224 32.4847 37.0552 34.7374C36.4982 35.3448 36.4759 35.3975 37.1088 35.9742C39.3696 38.0395 41.6467 40.0873 43.9253 42.135C45.0498 43.1464 46.1935 44.1374 47.3224 45.1444C50.5438 48.0192 53.7636 50.8954 56.9805 53.7731C57.3662 54.117 57.746 54.4698 58.1019 54.843C59.6865 56.5073 59.6478 58.88 58.02 60.4535C56.4592 61.9611 54.0228 61.9743 52.395 60.4096C51.412 59.4655 50.5229 58.4277 49.5996 57.4265C47.6516 55.3144 45.708 53.1978 43.763 51.0827C41.1701 48.2621 38.5788 45.4416 35.9859 42.6224C35.1876 41.7544 34.3924 40.885 33.5867 40.0243C32.9492 39.3452 32.7914 39.3378 32.1703 40.0068C30.69 41.5978 29.22 43.1991 27.7501 44.8004C25.957 46.7545 24.1728 48.7174 22.3782 50.6685C19.6111 53.6779 16.8276 56.6742 14.0694 59.6909C13.0612 60.7945 11.9442 61.6289 10.3373 61.5615C8.77797 61.4971 7.62377 60.7492 6.93125 59.4304C6.23873 58.1115 6.28043 56.7415 7.1338 55.4666C7.3557 55.1343 7.63271 54.824 7.93206 54.5562C10.0454 52.6563 12.1706 50.7724 14.2899 48.8798C16.0517 47.3078 17.8135 45.7343 19.5694 44.1564C22.478 41.5422 25.3896 38.9295 28.2848 36.3006C29.302 35.377 29.2677 35.3682 28.3175 34.3553C26.8059 32.7438 25.2943 31.1293 23.8213 29.4826C23.2867 28.8839 22.7684 28.7288 21.9746 28.9747C19.976 29.5938 17.9997 29.2308 16.0502 28.6541C13.4469 27.8827 11.1311 26.5742 9.02073 24.9202C5.86938 22.4509 3.29141 19.5029 1.51468 15.9212C0.496005 13.8617 0.00453749 11.8257 0.0015589 9.56572Z" fill="white"/>
</svg>
