<?xml version="1.0" encoding="utf-8"?>
<!-- Generator: Adobe Illustrator 25.0.1, SVG Export Plug-In . SVG Version: 6.00 Build 0)  -->
<svg version="1.1" id="Vrstva_1" xmlns="http://www.w3.org/2000/svg" xmlns:xlink="http://www.w3.org/1999/xlink" x="0px" y="0px"
	 viewBox="0 0 375 375" style="enable-background:new 0 0 375 375;" xml:space="preserve">
<style type="text/css">
	.st0{fill:#694A52;}
</style>
<g>
	<path class="st0" d="M188.44,364.41c-24.67,0-49.33-0.06-74,0.02c-17.08,0.05-32.92-4.36-47.79-12.62
		c-21.52-11.96-36.67-29.53-46.02-52.17c-4.89-11.85-7.22-24.23-7.21-37.08c0.04-49.13,0.02-98.27,0.02-147.4
		c0-18.7,5.49-35.82,15.23-51.59C42,42,60.97,27.41,84.93,19.37c9.31-3.12,18.98-4.85,28.82-4.86c49.73-0.07,99.47-0.23,149.2,0.06
		c22.71,0.13,43.09,7.87,60.88,21.9c21.66,17.07,34.47,39.45,38.62,66.74c0.52,3.45,0.92,6.91,0.92,10.42
		c-0.03,49.73-0.03,99.47,0,149.2c0.01,22.25-6.79,42.27-20.09,59.96c-18.08,24.06-42.31,37.74-72.15,41.47
		c-2.27,0.28-4.59,0.15-6.88,0.15C238.98,364.41,213.71,364.41,188.44,364.41z M188.29,348.86c23.77,0,47.54,0,71.3,0
		c3.99,0,7.96-0.06,11.94-0.6c23.83-3.26,43.2-14.45,57.94-33.28c12.48-15.93,18.37-34.29,18.35-54.59
		c-0.06-46.64-0.04-93.27,0-139.91c0-5.51-0.38-10.97-1.26-16.39c-4.07-24.86-16.72-44.34-37.25-58.75
		c-15.69-11.02-33.43-15.24-52.32-15.26c-45.74-0.05-91.48-0.03-137.21,0.01c-4.08,0-8.19,0.2-12.24,0.66
		c-24.52,2.81-44.56,13.91-59.88,33.21c-12.33,15.53-18.6,33.38-18.63,53.25c-0.06,47.83,0,95.67-0.05,143.5
		c0,3.91,0.28,7.8,0.8,11.63c3.06,22.38,13.03,41.04,30.26,55.78c16.07,13.75,34.68,20.6,55.75,20.69
		C139.96,348.94,164.13,348.86,188.29,348.86z"/>
	<path class="st0" d="M187.79,276.93c-46.06,0.84-88.75-38.94-86.84-90.59c1.7-45.93,39.42-85.16,89.45-84.33
		c47.03,0.77,86.51,40.59,85.58,89.47C275.1,237.99,235.8,277.98,187.79,276.93z M188.36,118.09
		c-38.84-0.52-71.59,31.27-71.72,70.84c-0.13,41.17,32.25,72.41,71.83,72.38c39.23-0.02,71.51-31.26,71.75-71.31
		C260.46,148.91,226.74,117.48,188.36,118.09z"/>
	<path class="st0" d="M299.83,94.03c-0.04,8.86-6.92,15.68-15.82,15.69c-8.87,0.01-16.01-7.21-15.88-16.05
		c0.12-8.37,7.8-15.69,16.26-15.51C292.96,78.35,299.87,85.45,299.83,94.03z"/>
</g>
</svg>
