<?xml version="1.0" encoding="utf-8"?>
<!-- Generator: Adobe Illustrator 25.0.0, SVG Export Plug-In . SVG Version: 6.00 Build 0)  -->
<svg version="1.1" id="Vrstva_1" xmlns="http://www.w3.org/2000/svg" xmlns:xlink="http://www.w3.org/1999/xlink" x="0px" y="0px"
	 viewBox="0 0 827.91 437.11" style="enable-background:new 0 0 827.91 437.11;" xml:space="preserve">
<style type="text/css">
	.st0{fill:#FFCCCC;}
</style>
<g>
	<path d="M176.87,236.33c-6.94,12.62-13.42,24.44-19.93,36.23c-8.53,15.45-17.69,30.55-30.33,43.02
		c-16.86,16.64-37.17,23.54-60.39,17.18c-19.47-5.33-30.76-23.58-28.61-43.76c0.17-1.63,0.24-3.43,2.71-3.06
		c2.15,0.32,4.29,0.53,4.37,3.52c0.11,3.98-0.28,7.99,0.7,11.94c4.4,17.76,20.37,28.2,39.09,26.39
		c20.34-1.96,34.92-12.74,46.86-28.37c11.51-15.06,20.33-31.73,29.4-48.26c7.02-12.81,14.05-25.61,21.03-38.44
		c1.79-3.29,1.42-4.07-2.43-4.23c-12.25-0.5-23.9-3.74-35.49-7.31c-7.35-2.27-14.89-3.28-22.53-3.32
		c-18.11-0.12-30.36,11.49-31.47,29.61c-0.12,2.01,0.15,4.08-2.9,4.2c-2.73,0.11-4.07-0.6-4.19-3.69
		c-0.61-16.79,12.31-32.83,29.2-36.53c11.97-2.62,23.49-0.05,34.69,3.2c14.02,4.07,28.18,6.61,42.7,7.22
		c2.88,0.12,4.28,1.2,5.2,3.73c6.07,16.65,12.2,33.28,18.3,49.93c2.45,6.68,4.85,13.37,7.33,20.05c0.32,0.87,0.42,2.24,1.65,2.22
		c1.08-0.02,1.42-1.27,1.94-2.09c10.59-16.65,19.9-34.05,30.05-50.96c5.92-9.86,11.84-19.78,21.68-26.41
		c4.62-3.12,9.77-4.97,15.42-5.22c2.11-0.09,3.7,0.35,3.73,2.98c0.02,2.35-0.19,4-3.27,4.23c-8.93,0.65-15.14,5.99-20.39,12.64
		c-8.38,10.62-15.01,22.38-21.81,34.02c-7.31,12.5-14.37,25.16-22.37,37.24c-1.46,2.21-1.8,4.13-0.73,6.58
		c3.78,8.7,7.2,17.59,12.97,25.25c7.4,9.84,19.82,8.89,25.66-1.93c1.35-2.5,2.16-5.42,6.08-4.79c2.2,0.35,3.13,1.07,2.5,3.42
		c-2.08,7.76-6.72,13.35-14.18,16.31c-15.88,6.32-39.35,3.71-51.81-16.68c-5.81-9.5-9.14-19.94-13.08-30.17
		C188.46,267.22,182.85,252.16,176.87,236.33z"/>
	<path class="st0" d="M403.69,90.36c-0.3-3.86-2.1-7.18-4.11-10.33c-9.01-14.1-17.41-28.59-27.36-42.08
		c-1.44-1.96-3.94-4.28-2.09-6.98c1.75-2.55,4.6-1.11,6.95-0.52c31.16,7.9,62.88,12.77,94.58,17.89
		c26.89,4.34,53.48,10.35,80.09,16.1c29.57,6.39,59.29,11.71,89.34,15.17c6.32,0.73,12.65,1.41,18.96,2.21
		c1.39,0.18,3.35,0.05,3.52,2.06c0.14,1.67-1.56,2.09-2.74,2.71c-18.9,9.95-37.84,19.82-56.72,29.82
		c-18.66,9.89-37.16,20.1-54.43,32.3c-26.38,18.63-55.02,33.5-82.69,49.97c-3.84,2.29-8.12,3.85-12.26,5.6
		c-3.91,1.66-4.94,1.2-6.46-2.79c-3.74-9.8-7.38-19.64-11.13-29.43c-1.56-4.08-3.29-8.1-4.96-12.14c-0.65-1.57-1.54-2.79-3.48-2.95
		c-12.34-1.02-24.71-1.36-37.03-0.14c-10.13,1-11.74-0.62-8.13-10.11c6.58-17.27,13.13-34.55,19.17-52.02
		C403.2,93.3,403.82,91.92,403.69,90.36z M631.92,94.1c-2.66,0.44-4.3,0.67-5.93,0.99c-28.28,5.71-56.62,11.11-84.75,17.56
		c-34.09,7.81-68.37,14.77-102.56,22.14c-8.81,1.9-9.22,2.69-6.5,11.28c3.51,11.09,8.43,21.63,12.73,32.42
		c2.17,5.45,4.59,10.8,6.93,16.18c0.68,1.56,1.53,3.1,3.63,1.99c7.96-4.19,16.79-6.46,24.51-11.21
		c14.04-8.64,28.1-17.25,42.27-25.67c34.13-20.29,67.23-42.34,102.77-60.22C627.25,98.43,629.47,97.06,631.92,94.1z M619.64,89.9
		c-0.95-0.19-1.41-0.33-1.88-0.36c-18.06-1.47-36.16-1.59-54.27-1.56c-23.35,0.05-46.64,1.94-69.97,2.2
		c-24.74,0.28-49.48,0.11-74.22,0.15c-1.75,0-3.49,0.17-5.24,0.22c-3.44,0.08-5.43,1.82-6.53,5.06
		c-5.66,16.67-11.43,33.3-17.14,49.96c-0.27,0.8-0.83,1.73-0.14,2.47c0.86,0.92,1.9,0.16,2.79-0.12c5.24-1.67,10.29-3.85,15.37-5.95
		c8.76-3.62,16.13-9.58,26.14-11.39c29.24-5.29,58.21-12.06,87.28-18.26c30.54-6.51,61.08-13.03,91.61-19.56
		C615.5,92.32,617.66,92.05,619.64,89.9z M620.77,84.2c-2.24-1.76-3.94-1.96-5.62-2.15c-5.45-0.64-10.91-1.27-16.36-1.87
		c-10.88-1.19-21.08-5.2-31.69-7.51c-41.37-9.01-82.89-17.24-124.75-23.71c-18.62-2.88-37.17-6.29-55.75-9.45
		c-1.53-0.26-3.31-1.34-4.52,0.34c-1.3,1.83,0.32,3.32,1.2,4.72c8.03,12.8,16.17,25.53,24.16,38.35c1.29,2.07,2.83,2.9,5.18,2.9
		c30.84-0.06,61.68,0.38,92.51-0.3c14.06-0.31,28.17-1.45,42.24-1.74c20.59-0.43,41.21-0.94,61.81,0.38
		C612.7,84.4,616.27,84.2,620.77,84.2z M415.91,151.74c2.75,0.1,5.45-0.17,8.16-0.63c2.44-0.41,3.48-1.36,2.98-3.99
		c-0.77-4.05-2.71-6.81-5.08-6.23c-5.64,1.37-10.64,4.15-15.21,7.67c-1.41,1.08-1.23,2.03,0.62,2.49
		C410.2,151.76,413.05,151.81,415.91,151.74z"/>
	<path d="M301.1,307.25c-4.5,0.24-9.77-0.3-14.82-2.57c-9.21-4.14-14.32-11.41-14.94-21.22c-0.8-12.77,1.19-25.07,8.27-36.24
		c4.71-7.44,11.48-11.75,19.65-13.99c8.14-2.23,16.49-2.81,24.88-1.4c12.12,2.04,20.33,9.69,21.87,21.89
		c1.74,13.78-0.73,26.91-9.44,38.27C327.86,303.35,315.96,307.64,301.1,307.25z M321.96,254.41c0-2.99,0.04-5.98-0.03-8.97
		c-0.02-0.73-0.3-1.46-0.55-2.16c-1.92-5.46-6.24-6.81-10.88-3.33c-3.9,2.92-6.43,6.91-8.44,11.26c-5.8,12.54-7.14,25.84-6.63,39.44
		c0.06,1.65,0.53,3.19,1.18,4.69c1.76,4.04,4.67,5.21,8.81,3.55c3.32-1.33,5.36-3.97,7.12-6.9
		C319.49,280.41,322,267.71,321.96,254.41z"/>
	<path d="M504.77,239.69c-2.25,0-4.51,0.16-6.74-0.04c-3.17-0.28-4.65,0.84-5.29,4.13c-3.14,16.29-6.05,32.61-8.13,49.08
		c-0.56,4.42,1.96,6.65,6.32,5.61c4.88-1.17,7.19-5.16,9.52-8.98c2.47-4.06,4.25-8.47,5.48-13.08c0.49-1.84,1.42-2.77,3.54-2.03
		c1.83,0.64,3.89,1.02,3.23,3.62c-2.84,11.13-6.94,21.55-18.11,27.01c-9.31,4.55-25.14,3.19-31.12-7.35
		c-2.2-3.88-2.8-8.02-2.47-12.27c1.05-13.57,3.59-26.93,6.09-40.29c0.91-4.86,0.76-5.15-4.02-5.42c-1.79-0.1-3.77-0.02-3.6-2.62
		c0.15-2.3,0.49-4.63,3.77-4.35c0.99,0.09,2-0.07,3,0c2.26,0.16,3.38-0.76,3.77-3.09c1.11-6.64,2.49-13.24,3.59-19.88
		c0.49-2.97,1.75-4.26,4.94-4.1c5.99,0.31,11.96-0.24,17.87-1.35c3.45-0.65,4.08-0.14,3.42,3.39c-1.27,6.87-2.73,13.7-4.05,20.55
		c-0.86,4.42-0.81,4.44,3.55,4.46c4.75,0.02,9.49-0.03,14.24,0.03c1.55,0.02,3.55-0.33,3.32,2.29c-0.18,2.08,0,4.52-3.12,4.57
		c-3,0.05-5.99,0.01-8.99,0.01C504.77,239.64,504.77,239.67,504.77,239.69z"/>
	<path d="M673.67,297.63c10.62,4.1,19.57-0.72,21.93-11.32c2.45-11.04,0.82-21.79-1.79-32.53c-0.62-2.55-1.54-1.82-2.95-0.64
		c-5.54,4.64-11.8,7.92-18.91,9.44c-1.41,0.3-3.59,1.77-3.95-0.8c-0.32-2.29-1.66-5.48,2.04-6.67c4.41-1.43,8.72-3.04,12.52-5.78
		c2.12-1.53,4.22-3.1,6.26-4.74c2.43-1.94,3.88-4.25,3.89-7.64c0.01-4.46,1.99-8.45,4.2-12.26c1.46-2.52,3.93-2.4,6.31-2.01
		c2.4,0.39,2.1,2.48,2.19,4.16c0.44,8.35,3.45,15.77,8.15,22.58c6.35,9.18,9.31,19.28,7.87,30.42
		c-1.88,14.6-15.69,26.89-30.72,27.37c-5.72,0.18-11.5,0.52-17.07-1.46c-9.07-3.22-15.49-9.12-16.45-18.94
		c-1.06-10.89,4.18-18.38,15.27-18.66c7.44-0.19,13.42,5.27,14.27,12.64c0.9,7.76-3.77,14.7-11.03,16.42
		C675.13,297.34,674.54,297.45,673.67,297.63z"/>
	<path d="M403.58,297.66c9.42,3.98,18.45-0.03,21.11-9.4c3.35-11.81,1.29-23.51-1.35-35.14c-0.54-2.4-1.62-0.98-2.56-0.21
		c-5.68,4.65-11.93,8.18-19.2,9.63c-1.55,0.31-3.45,1.75-4.36-0.91c-1.05-3.02,0.06-5.83,2.72-6.6c6.73-1.94,12.55-5.46,17.94-9.82
		c2.53-2.05,4.17-4.24,4.28-7.81c0.14-4.4,2.11-8.42,4.16-12.31c1.45-2.76,3.86-2.95,6.44-2.4c2.51,0.54,2.09,2.74,2.24,4.55
		c0.65,7.9,3.34,15.06,7.83,21.55c6.66,9.62,9.39,20.08,8.14,31.85c-1.4,13.2-15.5,25.52-29.97,26.51
		c-5.09,0.35-10.23,0.38-15.3-0.7c-12.92-2.76-20.82-14.04-18.42-26.43c1.47-7.56,7.46-12.21,15.36-11.92
		c7.36,0.28,13.03,5.64,13.94,13.21c0.84,6.95-4.03,14-10.96,15.87C405.04,297.35,404.46,297.46,403.58,297.66z"/>
	<path d="M741.73,297.86c11.77,3.97,19.95-1.88,22.12-14.9c1.37-8.22,0.32-16.18-1.6-24.1c-0.56-2.31,0.46-5.84-1.96-6.61
		c-1.36-0.43-3.73,2.41-5.67,3.74c-4.58,3.15-9.58,5.37-15,6.59c-1.63,0.37-3.81,1.32-4.15-1.38c-0.28-2.26-1.31-5.09,2.34-6.13
		c6.47-1.83,12.09-5.26,17.32-9.42c2.85-2.27,4.64-4.91,5.08-8.74c0.48-4.19,1.74-8.25,4.1-11.94c1.7-2.66,4.03-2.72,6.54-2.29
		c2.64,0.44,2.13,2.72,2.18,4.51c0.22,8.44,3.6,15.69,8.22,22.52c4.26,6.3,6.88,13.18,7.81,20.8c1.7,13.93-3.53,24.52-15.32,31.64
		c-11.61,7.01-24.07,7.18-36.31,1.9c-10.63-4.59-15.07-15.48-11.69-26.52c1.78-5.81,7.99-9.7,15.05-9.42
		c6.13,0.25,11.73,4.8,12.99,10.57C755.81,288,751.87,294.45,741.73,297.86z"/>
	<path d="M619.7,307.21c-4.41,0.18-8.53,0-12.5-1.3c-10.78-3.51-17.37-10.67-18.32-22.16c-1.33-16.16,1.46-31.29,13.98-42.8
		c11.67-10.73,25.86-12.15,40.34-7.74c12.29,3.74,15.89,21.89,7.03,31.53c-4.57,4.98-10.29,7.87-16.72,9.35
		c-5.83,1.34-11.68,2.72-17.75,2.47c-1.66-0.07-3.05,0.29-3.04,2.36c0.02,3.61-0.37,7.3,0.2,10.83c1.33,8.3,8.03,11.75,17.12,9.25
		c9.31-2.56,14.35-9.47,18.01-17.72c0.77-1.74,0.81-3.79,3.66-2.57c2.42,1.03,4.21,2.07,3.05,5.23
		c-3.97,10.89-11.16,18.42-22.38,21.88C628.16,307.12,623.83,307.5,619.7,307.21z M618.58,268.81c8.83-0.25,17.82-2.78,22.73-6.38
		c5.87-4.31,7.48-13.24,3.34-18.6c-4.44-5.76-11.96-6.31-18.22-1.3c-6.93,5.54-9.84,13.25-11.58,21.59
		C613.93,268.54,614.21,268.93,618.58,268.81z"/>
	<path d="M534.09,231.2c7.49,0.11,13.78,2.41,17.14,9.71c1.22,2.66,2.07,1.57,3.23,0.04c4.62-6.08,10.41-9.83,18.4-9.76
		c11.78,0.1,16.55,8.06,15.33,18.67c-0.99,8.63-6.61,15.23-10.88,22.36c-2.12,3.54-4.36,6.93-5.14,11.12
		c-0.67,3.6-3.72,2.16-5.82,2.1c-2.35-0.08-2.16-2.12-1.83-3.7c1.26-6.1,4.21-11.43,7.7-16.5c2.55-3.7,4.89-7.53,6.59-11.72
		c2.35-5.79,1.68-11.15-1.75-13.4c-3.77-2.48-9.75-1.38-13.93,2.99c-7.07,7.41-11.25,16.5-13.47,26.32
		c-2.39,10.57-4.09,21.31-5.91,32c-0.57,3.35-2.07,4.6-5.49,4.44c-5.36-0.25-10.74-0.04-16.11-0.08c-4.27-0.03-4.64-0.51-3.93-4.55
		c3.44-19.4,6.88-38.79,10.31-58.19c0.19-1.07,1.04-2.46,0.04-3.17c-1.27-0.9-2.2,0.63-3.15,1.3c-1.44,1.02-2.41,2.93-4.75,1.28
		c-3.17-2.24-3.4-3.41-0.6-6.11C523.9,232.66,527.86,231.21,534.09,231.2z"/>
	<path d="M585.91,349.27c0.3-3.42,0.15-6.79,4.78-6.1c1.73,0.26,2.94,0.82,2.89,2.7c-0.41,15.7,1.5,31.47-1.12,47.08
		c-1.1,6.58-5.32,10.95-11.69,12.91c-10.32,3.18-20.21,1.98-29.57-3.44c-2.09-1.21-3.18-2.51-1.52-5.08
		c1.6-2.49,2.94-2.68,5.38-1.05c5.62,3.75,11.89,4.51,18.6,4.04c8-0.57,13.8-6.81,12.04-18.12c-6.49,5.26-13.64,7.94-21.91,5.93
		c-5.32-1.3-10.1-3.57-13.52-8.13c-6.62-8.83-6.25-21.8,0.97-29.79C557.32,343.49,572.32,338.65,585.91,349.27z M569.72,349.85
		c-9.65-0.02-16.36,6.35-16.45,15.59c-0.09,9.62,6.83,16.42,16.61,16.34c9.6-0.08,16.37-6.82,16.33-16.26
		C586.17,356.55,579.14,349.86,569.72,349.85z"/>
	<path d="M726.32,349.95c0-7.55,0.08-14.4-0.04-21.24c-0.05-2.85,0.63-4.44,3.93-4.4c3.32,0.04,3.88,1.79,3.87,4.55
		c-0.05,18.84-0.01,37.67-0.04,56.51c0,2.25,0.66,4.89-3.15,5.11c-3.64,0.21-4.64-1.55-4.47-4.71c0.02-0.34-0.2-0.69-0.49-1.58
		c-6.49,5.93-13.92,7.64-22.24,5.75c-5.65-1.28-10.01-4.33-13.27-9.03c-6.48-9.34-4.95-24.37,3.29-32.05
		C700.3,342.72,714.85,339.35,726.32,349.95z M710.13,383.6c9.7,0.03,16.19-6.63,16.19-16.6c0-10.05-6.47-17.07-15.81-17.14
		c-9.86-0.08-16.28,6.61-16.26,16.94C694.26,377.09,700.38,383.57,710.13,383.6z"/>
	<path d="M473.74,369.48c-5,0-10,0.12-15-0.04c-3.45-0.11-3.74,1.29-2.68,4.08c3.95,10.39,17.67,13.66,27.46,6.42
		c1.49-1.1,2.58-2.2,4.41-0.38c2.52,2.51,2.55,3.7-0.27,6.01c-9.13,7.49-30.46,8.47-38.12-8.42c-4.27-9.42-2.42-23.4,7.25-30
		c9.7-6.61,23.05-5.21,30.7,3.43c3.88,4.38,5.4,9.76,5.73,15.52c0.13,2.36-0.98,3.4-3.36,3.37c-5.37-0.06-10.75-0.02-16.12-0.02
		C473.74,369.47,473.74,369.47,473.74,369.48z M470.03,363.29c3.98,0,7.96-0.12,11.94,0.04c3.43,0.14,3.72-1.34,2.68-4.1
		c-2.15-5.74-8.21-9.57-15.09-9.38c-6.24,0.17-11.95,4.51-13.75,10.2c-0.74,2.34-0.12,3.26,2.28,3.24
		C462.07,363.25,466.05,363.28,470.03,363.29z"/>
	<path d="M771.62,369.49c-5.24,0-10.49,0.04-15.73-0.02c-2.37-0.03-3.19,0.85-2.43,3.2c1.7,5.29,5.28,8.86,10.53,10.21
		c6.11,1.57,12.26,1.42,17.34-3.06c2.34-2.06,3.69-1.04,5.2,0.77c1.63,1.95,0.78,3.29-0.89,4.7c-10.12,8.57-27.84,6.72-36-3.81
		c-8.24-10.64-5.48-27.68,6.06-34.98c7.52-4.76,15.77-4.9,23.53-0.64c7.7,4.23,11.46,11.15,11.33,20.09
		c-0.04,2.6-1.06,3.57-3.57,3.53c-5.12-0.08-10.24-0.02-15.36-0.02C771.62,369.47,771.62,369.48,771.62,369.49z M768.11,363.28
		c4.12,0,8.24-0.04,12.36,0.01c2.31,0.03,2.72-0.95,2.12-3.05c-1.7-5.97-7.41-10.29-14-10.4c-7.19-0.12-13.09,3.94-15.01,10.08
		c-0.82,2.6,0.03,3.42,2.55,3.37C760.12,363.23,764.11,363.28,768.11,363.28z"/>
	<path d="M384.06,385.77c-6.93,5.12-14.34,6.02-22.2,3.68c-5.73-1.7-9.35-6.34-9.58-12.05c-0.24-6.13,2.87-10.72,8.79-12.94
		c5.46-2.05,11.15-0.76,16.72-1.23c2.16-0.18,5.29,1.45,6.24-1.6c0.97-3.12-0.35-6.23-2.63-8.58c-1.76-1.8-4.04-2.82-6.66-3.1
		c-5.71-0.61-10.93,0.72-15.69,3.82c-1.59,1.04-2.73,1.12-3.65-0.64c-0.82-1.56-2.54-2.95-0.42-4.89c6.29-5.75,23.2-6.87,30.2-1.97
		c3.73,2.61,5.75,6.19,6.23,10.63c1.09,10.09,0.34,20.21,0.47,30.31c0.03,2.11-0.95,3.24-3.19,3.2c-1.95-0.03-3.87,0.05-4.1-2.63
		C384.53,387.22,384.3,386.66,384.06,385.77z M374.51,369.33c0,0.08,0,0.16,0,0.23c-2.74,0-5.51-0.24-8.22,0.07
		c-2.86,0.33-5.19,1.78-6.07,4.81c-0.79,2.73-0.34,5.27,1.71,7.26c5.86,5.69,19.73,2.01,22.08-5.8c1.42-4.72,0.13-6.54-4.63-6.57
		C377.76,369.33,376.14,369.33,374.51,369.33z"/>
	<path d="M643.82,385.02c-2.89,2.31-5.93,4.32-9.67,5.12c-9.16,1.96-18.51-1.28-22.44-8.03c-1.74-3-2.42-6.29-2.44-9.7
		c-0.06-8.49,0.05-16.97-0.07-25.46c-0.04-2.73,0.94-3.82,3.67-3.82c2.75,0,3.69,1.13,3.65,3.84c-0.12,7.74-0.1,15.48-0.01,23.21
		c0.08,6.46,3.19,11.33,7.93,12.75c7.12,2.14,13.61,0.17,17.39-5.28c1.71-2.47,2.16-5.27,2.16-8.19c0.01-7.36,0.06-14.73-0.01-22.09
		c-0.02-2.65,0.65-4.25,3.75-4.26c3.12-0.01,4.08,1.32,4.05,4.32c-0.11,12.73-0.03,25.46-0.05,38.19c0,2.19,0.49,4.57-3.04,4.83
		c-3.54,0.26-4.34-1.54-4.23-4.48C644.45,385.8,644.2,385.6,643.82,385.02z"/>
	<path d="M421.73,380.45c3.11-4.79,4.63-9.54,6.71-14c3.12-6.66,6.04-13.42,8.97-20.16c0.75-1.73,1.7-2.91,3.77-3.11
		c4.19-0.4,5,0.55,3.32,4.35c-5.84,13.23-11.74,26.43-17.55,39.67c-0.97,2.22-2.38,3.22-4.85,3.28c-2.59,0.06-4.25-0.81-5.29-3.19
		c-5.77-13.12-11.63-26.21-17.34-39.36c-0.58-1.32-2.48-3.47,0.08-4.37c2.33-0.82,5.32-1.37,6.79,1.88
		c2.52,5.56,4.99,11.15,7.45,16.74C416.38,368.07,418.92,373.98,421.73,380.45z"/>
	<path d="M302.23,390.61c-9.68-0.05-14.27-4.99-14.52-15.51c-0.16-6.98-0.14-13.98,0-20.96c0.06-3.03-0.91-4.44-4.06-4.12
		c-2.37,0.24-3.71-0.6-3.74-3.33c-0.03-2.67,1.19-3.72,3.6-3.48c3.81,0.37,4.29-1.8,4.21-4.85c-0.06-2.08-0.8-4.72,2.76-5.05
		c3.89-0.36,4.89,0.41,4.91,4.43c0.04,6.36-0.34,5.38,5.38,5.43c1.62,0.01,3.25,0.05,4.87,0.01c2.36-0.06,3.82,0.69,3.77,3.39
		c-0.04,2.53-1.14,3.61-3.67,3.49c-2.24-0.11-4.5,0.11-6.74-0.04c-2.84-0.2-3.68,1.08-3.64,3.76c0.12,7.11,0.12,14.23,0.02,21.34
		c-0.11,7.96,4.28,9.8,11.39,7.88c2.35-0.63,3.64-0.9,4.66,1.59c1.05,2.58-0.36,3.66-2.33,4.63
		C306.79,390.33,304.35,390.69,302.23,390.61z"/>
	<path d="M504.26,357.33c0-9.48,0.04-18.95-0.03-28.43c-0.02-2.68,0.28-4.6,3.72-4.6c3.2,0,4.06,1.48,4.05,4.37
		c-0.06,19.2-0.06,38.41,0,57.61c0.01,3-1.1,4.24-4.2,4.21c-3.23-0.03-3.59-1.8-3.57-4.35
		C504.29,376.54,504.26,366.93,504.26,357.33z"/>
	<path d="M330.62,348.34c3.24-2.77,7.01-4.92,11.53-5c1.73-0.03,4.21-1.08,4.29,2.38c0.07,2.84-0.27,4.64-3.85,4.92
		c-7.61,0.59-12.05,4.98-12.57,12.78c-0.5,7.58-0.34,15.21-0.34,22.82c0,2.93-0.95,4.43-4.15,4.21c-2.14-0.15-3.28-0.97-3.28-3.15
		c-0.01-13.72,0-27.45,0-41.17c0-2.32,1.42-2.95,3.43-2.96c1.99,0,3.85,0.09,3.95,2.78C329.67,346.67,329.55,347.48,330.62,348.34z"
		/>
	<path d="M675.02,366.71c0,6.61-0.07,13.22,0.03,19.83c0.04,2.59-0.7,3.94-3.57,3.93c-2.71-0.01-3.77-1.01-3.75-3.76
		c0.08-13.34,0.08-26.69,0-40.03c-0.02-2.63,1.11-3.51,3.57-3.53c2.65-0.03,3.82,0.93,3.75,3.74
		C674.92,353.49,675.02,360.1,675.02,366.71z"/>
	<path class="st0" d="M245.47,304.63c-0.74,4.6-1.48,9.41-2.31,14.19c-0.26,1.47-0.64,3.26-2.64,2.98
		c-2.02-0.28-1.89-2.12-1.68-3.59c0.7-4.93,0.73-9.98,2.65-14.69c0.47-1.15,0.82-2.7,2.36-2.47
		C245.71,301.33,245.17,303.13,245.47,304.63z"/>
	<path class="st0" d="M264.09,262.53c-2.24,4.97-4.14,10.23-7.1,14.99c-0.57,0.91-1.57,1.24-2.63,0.8c-0.98-0.41-1.19-1.3-0.87-2.18
		c1.94-5.36,3.67-10.83,7.7-15.12c0.56-0.6,1.18-1.5,2.18-1C264.33,260.5,263.95,261.53,264.09,262.53z"/>
	<path d="M676.74,329.56c0.1,2.77-2.34,5.2-5.22,5.21c-2.57,0.01-5.05-2.38-5.14-4.95c-0.09-2.58,2.22-5.06,4.87-5.21
		C674.1,324.45,676.64,326.74,676.74,329.56z"/>
	<path class="st0" d="M322.28,190.94c-0.25,1.18-1.08,1.96-1.97,2.62c-3.37,2.53-6.77,5.03-10.19,7.48
		c-1.1,0.79-2.54,1.81-3.64,0.48c-1.2-1.45,0.36-2.47,1.35-3.32c3.28-2.83,6.59-5.64,9.95-8.37c0.97-0.79,2.19-1.23,3.48-0.68
		C322.01,189.48,322.37,190.1,322.28,190.94z"/>
	<path class="st0" d="M236.72,369.92c-2.1-2.07-1.68-3.76-1.81-5.32c-0.37-4.73,0.77-9.38,0.83-14.09c0.02-1.38,0.37-2.96,2.12-2.99
		c1.77-0.03,2.19,1.54,2.15,2.93C239.84,356.88,238.1,363.03,236.72,369.92z"/>
	<path class="st0" d="M287.51,225.47c-0.08,0.25-0.13,0.64-0.33,0.94c-3.36,4.94-6.97,9.68-10.97,14.12
		c-0.55,0.61-1.45,1.19-2.31,0.42c-0.68-0.62-0.26-1.41,0.05-2.07c2.55-5.33,6.09-9.96,10.23-14.14c0.62-0.62,1.4-1.11,2.35-0.82
		C287.19,224.12,287.49,224.67,287.51,225.47z"/>
	<path class="st0" d="M356.86,161.23c-0.07,1.16-0.67,1.79-1.38,2.31c-3.52,2.53-7.03,5.09-10.6,7.55c-1.11,0.77-2.5,1.62-3.6,0.08
		c-0.94-1.32,0.12-2.35,1.03-3.19c3.39-3.13,7.17-5.72,11.37-7.64C354.96,159.75,356.35,159.45,356.86,161.23z"/>
</g>
</svg>
