<svg width="244" height="47" viewBox="0 0 244 47" fill="none" xmlns="http://www.w3.org/2000/svg">
<path d="M63.1891 0.0414703L2.54923 5.5477C0.183213 5.75837 -0.780995 8.47086 0.716238 10.1145L9.57169 19.7922L51.33 7.34674C52.1319 7.10303 52.5801 8.24977 51.8227 8.61427L12.9363 27.4357L9.09705 35.7501C7.97152 38.1876 10.4725 40.5078 12.7345 39.4095L22.9816 34.455L33.3653 45.7907C34.5462 47.0878 36.6444 46.9415 37.6427 45.4852L65.6844 4.30128C66.999 2.37714 65.4534 -0.166049 63.1891 0.0414703Z" fill="#FFCCCC"/>
<path d="M69.3827 9.75219C67.411 12.1554 65.5699 14.4063 63.7203 16.6515C61.2968 19.5936 58.6943 22.4691 55.1031 24.8438C50.3129 28.0126 44.5425 29.3266 37.9453 28.1154C32.4136 27.1004 29.2059 23.6251 29.8167 19.7822C29.865 19.4718 29.8849 19.129 30.5867 19.1995C31.1975 19.2604 31.8056 19.3004 31.8283 19.8698C31.8595 20.6277 31.7487 21.3913 32.0272 22.1435C33.2773 25.5256 37.8146 27.5137 43.1333 27.169C48.9122 26.7957 53.0546 24.7429 56.4469 21.7665C59.7171 18.8986 62.223 15.7241 64.7999 12.5763C66.7944 10.1369 68.7918 7.69935 70.7749 5.25612C71.2835 4.62961 71.1783 4.48107 70.0845 4.4506C66.6041 4.35539 63.2941 3.73839 60.0012 3.05855C57.913 2.62627 55.7707 2.43394 53.6001 2.42632C48.4547 2.40347 44.9743 4.61437 44.659 8.06497C44.6249 8.44774 44.7016 8.84193 43.835 8.86478C43.0594 8.88573 42.6787 8.75052 42.6446 8.16209C42.4713 4.96476 46.142 1.91025 50.9408 1.20566C54.3416 0.706733 57.6146 1.19614 60.7967 1.81504C64.78 2.59009 68.8031 3.07379 72.9285 3.18995C73.7467 3.2128 74.1445 3.41847 74.4059 3.90026C76.1305 7.07093 77.8721 10.2378 79.6052 13.4085C80.3013 14.6805 80.9832 15.9545 81.6878 17.2266C81.7787 17.3923 81.8071 17.6532 82.1566 17.6493C82.4634 17.6455 82.56 17.4075 82.7078 17.2513C85.7165 14.0807 88.3617 10.7672 91.2454 7.547C92.9274 5.66936 94.6094 3.78028 97.4051 2.51773C98.7177 1.92358 100.181 1.57129 101.786 1.52368C102.386 1.50654 102.837 1.59033 102.846 2.09117C102.852 2.53868 102.792 2.85289 101.917 2.89669C99.3797 3.02047 97.6153 4.03737 96.1237 5.30373C93.7428 7.3261 91.8591 9.56557 89.9271 11.7822C87.8502 14.1626 85.8444 16.5734 83.5715 18.8738C83.1567 19.2947 83.0601 19.6603 83.3641 20.1268C84.438 21.7836 85.4097 23.4765 87.049 24.9352C89.1515 26.8091 92.6802 26.6282 94.3394 24.5677C94.723 24.0916 94.9531 23.5356 96.0669 23.6555C96.6919 23.7222 96.9562 23.8593 96.7772 24.3068C96.1862 25.7845 94.8679 26.8491 92.7484 27.4127C88.2366 28.6163 81.5684 28.1192 78.0284 24.2363C76.3776 22.4273 75.4315 20.4392 74.3121 18.4911C72.6756 15.6346 71.0817 12.7667 69.3827 9.75219Z" fill="black"/>
<path d="M104.678 23.2575C103.4 23.3032 101.903 23.2004 100.468 22.7681C97.8511 21.9797 96.3993 20.5953 96.2231 18.7271C95.9958 16.2953 96.5612 13.9531 98.5728 11.8259C99.911 10.4091 101.834 9.58838 104.156 9.16182C106.468 8.73716 108.841 8.62671 111.224 8.89522C114.668 9.2837 117.001 10.7405 117.438 13.0637C117.932 15.6879 117.231 18.1882 114.756 20.3515C112.281 22.5148 108.9 23.3318 104.678 23.2575ZM110.605 13.1951C110.605 12.6258 110.616 12.0564 110.597 11.487C110.591 11.348 110.511 11.2089 110.44 11.0756C109.895 10.0359 108.667 9.77881 107.349 10.4415C106.241 10.9976 105.522 11.7574 104.951 12.5858C103.303 14.9738 102.923 17.5065 103.067 20.0963C103.085 20.4106 103.218 20.7038 103.403 20.9895C103.903 21.7588 104.73 21.9816 105.906 21.6655C106.849 21.4122 107.429 20.9095 107.929 20.3515C109.903 18.1463 110.616 15.7279 110.605 13.1951Z" fill="black"/>
<path d="M162.544 10.3921C161.905 10.3921 161.263 10.4225 160.629 10.3844C159.729 10.3311 159.308 10.5444 159.126 11.1709C158.234 14.273 157.407 17.3809 156.816 20.5172C156.657 21.359 157.373 21.7836 158.612 21.5856C159.999 21.3628 160.655 20.6029 161.317 19.8755C162.019 19.1023 162.524 18.2626 162.874 17.3847C163.013 17.0343 163.277 16.8572 163.88 16.9981C164.4 17.12 164.985 17.1923 164.797 17.6875C163.99 19.8069 162.826 21.7912 159.652 22.831C157.007 23.6974 152.509 23.4385 150.81 21.4313C150.185 20.6924 150.015 19.9041 150.109 19.0947C150.407 16.5106 151.128 13.9664 151.839 11.4223C152.097 10.4968 152.055 10.4416 150.697 10.3901C150.188 10.3711 149.626 10.3863 149.674 9.89122C149.716 9.45323 149.813 9.00953 150.745 9.06285C151.026 9.07999 151.313 9.04952 151.597 9.06285C152.239 9.09332 152.558 8.91812 152.668 8.47442C152.984 7.20996 153.376 5.95312 153.688 4.68866C153.828 4.12308 154.186 3.87742 155.092 3.90789C156.794 3.96692 158.49 3.86219 160.169 3.65081C161.149 3.52703 161.328 3.62415 161.141 4.29637C160.78 5.60463 160.365 6.90527 159.99 8.20972C159.746 9.05142 159.76 9.05523 160.999 9.05904C162.348 9.06285 163.695 9.05333 165.044 9.06475C165.485 9.06856 166.053 9.00191 165.988 9.50084C165.937 9.89693 165.988 10.3616 165.101 10.3711C164.249 10.3806 163.399 10.373 162.547 10.373C162.544 10.3825 162.544 10.3882 162.544 10.3921Z" fill="black"/>
<path d="M210.531 21.4254C213.549 22.2062 216.091 21.2883 216.762 19.2697C217.458 17.1674 216.995 15.1202 216.253 13.075C216.077 12.5894 215.816 12.7284 215.415 12.9531C213.841 13.8367 212.063 14.4613 210.043 14.7508C209.642 14.8079 209.023 15.0879 208.92 14.5985C208.829 14.1624 208.449 13.5549 209.5 13.3283C210.753 13.056 211.977 12.7494 213.057 12.2276C213.659 11.9362 214.256 11.6373 214.836 11.325C215.526 10.9555 215.938 10.5156 215.941 9.87007C215.944 9.02075 216.506 8.26093 217.134 7.53539C217.549 7.0555 218.251 7.07835 218.927 7.15262C219.609 7.22689 219.524 7.62489 219.549 7.94481C219.674 9.53491 220.529 10.9479 221.865 12.2447C223.669 13.9929 224.51 15.9162 224.101 18.0376C223.567 20.8179 219.643 23.1583 215.373 23.2497C213.748 23.284 212.105 23.3487 210.523 22.9717C207.946 22.3585 206.122 21.235 205.849 19.3649C205.548 17.2911 207.037 15.8648 210.188 15.8115C212.301 15.7753 214 16.8151 214.242 18.2185C214.498 19.6963 213.171 21.0179 211.108 21.3454C210.946 21.3702 210.779 21.3911 210.531 21.4254Z" fill="black"/>
<path d="M133.794 21.4314C136.471 22.1894 139.036 21.4257 139.792 19.6414C140.744 17.3924 140.159 15.1644 139.409 12.9497C139.255 12.4926 138.948 12.763 138.681 12.9097C137.067 13.7952 135.292 14.4674 133.226 14.7435C132.786 14.8026 132.246 15.0768 131.988 14.5702C131.689 13.9951 132.005 13.46 132.76 13.3134C134.672 12.9439 136.326 12.2736 137.857 11.4434C138.576 11.053 139.042 10.6359 139.073 9.95609C139.113 9.1182 139.673 8.35267 140.255 7.61189C140.667 7.0863 141.352 7.05012 142.085 7.15486C142.798 7.25769 142.679 7.67664 142.721 8.02132C142.906 9.52572 143.67 10.8892 144.946 12.1251C146.838 13.957 147.614 15.9489 147.259 18.1903C146.861 20.704 142.855 23.0501 138.744 23.2386C137.298 23.3053 135.837 23.311 134.397 23.1053C130.726 22.5797 128.482 20.4317 129.163 18.0722C129.581 16.6326 131.283 15.7471 133.527 15.8023C135.619 15.8556 137.229 16.8763 137.488 18.3179C137.727 19.6414 136.343 20.9839 134.374 21.34C134.209 21.3724 134.045 21.3934 133.794 21.4314Z" fill="black"/>
<path d="M229.868 21.4693C233.212 22.2254 235.537 21.1113 236.153 18.6319C236.542 17.0666 236.244 15.5508 235.698 14.0426C235.539 13.6027 235.829 12.9304 235.142 12.7838C234.755 12.7019 234.082 13.2427 233.531 13.496C232.229 14.0959 230.809 14.5186 229.269 14.751C228.806 14.8214 228.186 15.0023 228.09 14.4882C228.01 14.0578 227.718 13.5189 228.755 13.3208C230.593 12.9723 232.19 12.3192 233.676 11.527C234.485 11.0947 234.994 10.592 235.119 9.8626C235.255 9.0647 235.613 8.29155 236.284 7.58886C236.767 7.08232 237.429 7.07089 238.142 7.15277C238.892 7.23656 238.747 7.67075 238.761 8.01162C238.824 9.61885 239.784 10.9995 241.097 12.3001C242.307 13.4998 243.051 14.81 243.316 16.2611C243.799 18.9138 242.313 20.9304 238.963 22.2863C235.664 23.6212 232.124 23.6536 228.647 22.6481C225.627 21.774 224.365 19.7003 225.325 17.5979C225.831 16.4915 227.596 15.7507 229.601 15.804C231.343 15.8516 232.934 16.7181 233.292 17.8169C233.869 19.5917 232.749 20.82 229.868 21.4693Z" fill="black"/>
<path d="M195.198 23.2498C193.945 23.2841 192.774 23.2498 191.646 23.0023C188.583 22.3339 186.711 20.9704 186.441 18.7823C186.063 15.705 186.856 12.8238 190.413 10.6319C193.729 8.58858 197.76 8.31817 201.874 9.15797C205.366 9.87018 206.389 13.3265 203.872 15.1622C202.573 16.1106 200.948 16.6609 199.121 16.9428C197.465 17.1979 195.803 17.4607 194.078 17.4131C193.607 17.3998 193.212 17.4684 193.214 17.8626C193.22 18.55 193.109 19.2527 193.271 19.9249C193.649 21.5055 195.553 22.1625 198.135 21.6864C200.78 21.1989 202.212 19.883 203.252 18.312C203.471 17.9806 203.482 17.5902 204.292 17.8226C204.98 18.0187 205.488 18.2168 205.159 18.8185C204.031 20.8923 201.988 22.3262 198.8 22.9851C197.601 23.2327 196.371 23.3051 195.198 23.2498ZM194.879 15.9373C197.388 15.8897 199.942 15.4079 201.337 14.7223C203.005 13.9016 203.463 12.201 202.286 11.1803C201.025 10.0835 198.888 9.97872 197.11 10.9328C195.141 11.9878 194.314 13.456 193.82 15.0442C193.558 15.8859 193.638 15.9601 194.879 15.9373Z" fill="black"/>
<path d="M170.875 8.77528C173.003 8.79623 174.79 9.23422 175.744 10.6244C176.091 11.1309 176.332 10.9233 176.662 10.632C177.975 9.47416 179.62 8.76005 181.89 8.77338C185.237 8.79242 186.592 10.3082 186.245 12.3287C185.964 13.9721 184.367 15.229 183.154 16.5867C182.552 17.2609 181.915 17.9064 181.694 18.7043C181.503 19.3899 180.637 19.1157 180.04 19.1042C179.372 19.089 179.426 18.7005 179.52 18.3996C179.878 17.238 180.716 16.223 181.708 15.2575C182.432 14.5529 183.097 13.8236 183.58 13.0257C184.248 11.9231 184.058 10.9024 183.083 10.4739C182.012 10.0017 180.313 10.2111 179.125 11.0433C177.117 12.4544 175.929 14.1854 175.298 16.0554C174.619 18.0683 174.136 20.1135 173.619 22.1492C173.457 22.7872 173.031 23.0252 172.059 22.9947C170.536 22.9471 169.008 22.9871 167.482 22.9795C166.269 22.9738 166.164 22.8824 166.366 22.113C167.343 18.4187 168.32 14.7262 169.295 11.0319C169.349 10.8281 169.59 10.5634 169.306 10.4282C168.945 10.2568 168.681 10.5482 168.411 10.6758C168.002 10.87 167.727 11.2337 167.062 10.9195C166.161 10.493 166.096 10.2702 166.891 9.756C167.979 9.05331 169.105 8.77718 170.875 8.77528Z" fill="black"/>
<path d="M185.597 31.2593C185.683 30.608 185.64 29.9663 186.956 30.0977C187.447 30.1472 187.791 30.2538 187.777 30.6118C187.66 33.6016 188.203 36.6047 187.458 39.5773C187.146 40.8303 185.947 41.6625 184.137 42.0358C181.205 42.6413 178.395 42.4128 175.736 41.3807C175.142 41.1503 174.832 40.9027 175.304 40.4133C175.759 39.9391 176.139 39.9029 176.832 40.2133C178.429 40.9275 180.211 41.0722 182.117 40.9827C184.39 40.8741 186.038 39.6859 185.538 37.5321C183.694 38.5337 181.662 39.0441 179.313 38.6613C177.801 38.4138 176.443 37.9815 175.472 37.1131C173.591 35.4316 173.696 32.9617 175.747 31.4402C177.475 30.1586 181.736 29.2369 185.597 31.2593ZM180.998 31.3697C178.256 31.3659 176.349 32.579 176.324 34.3386C176.298 36.1705 178.264 37.4654 181.043 37.4502C183.771 37.435 185.694 36.1515 185.683 34.3538C185.671 32.6456 183.674 31.3717 180.998 31.3697Z" fill="black"/>
<path d="M225.49 31.3891C225.49 29.9514 225.513 28.6469 225.479 27.3444C225.465 26.8017 225.658 26.4989 226.595 26.5065C227.539 26.5141 227.698 26.8474 227.695 27.3729C227.681 30.9607 227.692 34.5465 227.684 38.1342C227.684 38.5627 227.871 39.0654 226.789 39.1073C225.754 39.1473 225.47 38.8121 225.519 38.2104C225.524 38.1456 225.462 38.079 225.379 37.9095C223.536 39.0387 221.425 39.3644 219.061 39.0045C217.455 38.7607 216.217 38.1799 215.29 37.2849C213.449 35.5062 213.884 32.6441 216.225 31.1816C218.098 30.0123 222.231 29.3706 225.49 31.3891ZM220.89 37.7971C223.646 37.8028 225.49 36.5346 225.49 34.636C225.49 32.7221 223.652 31.3853 220.998 31.372C218.197 31.3568 216.373 32.6307 216.379 34.5979C216.381 36.5574 218.12 37.7914 220.89 37.7971Z" fill="black"/>
<path d="M153.728 35.1079C152.308 35.1079 150.887 35.1308 149.466 35.1003C148.486 35.0793 148.404 35.3459 148.705 35.8772C149.827 37.8558 153.725 38.4785 156.507 37.0998C156.93 36.8903 157.24 36.6809 157.76 37.0275C158.476 37.5054 158.484 37.732 157.683 38.1719C155.089 39.5983 149.029 39.7849 146.853 36.5685C145.639 34.7747 146.165 32.1124 148.912 30.8556C151.668 29.5968 155.461 29.8634 157.635 31.5088C158.737 32.3429 159.169 33.3674 159.263 34.4643C159.3 34.9137 158.984 35.1117 158.308 35.106C156.782 35.0946 155.254 35.1022 153.728 35.1022C153.728 35.106 153.728 35.106 153.728 35.1079ZM152.674 33.9291C153.805 33.9291 154.936 33.9063 156.066 33.9368C157.041 33.9634 157.123 33.6816 156.828 33.156C156.217 32.0629 154.495 31.3336 152.541 31.3698C150.768 31.4021 149.145 32.2286 148.634 33.3121C148.424 33.7578 148.6 33.933 149.282 33.9291C150.412 33.9215 151.543 33.9272 152.674 33.9291Z" fill="black"/>
<path d="M238.36 35.1099C236.872 35.1099 235.38 35.1175 233.891 35.1061C233.218 35.1004 232.985 35.268 233.201 35.7155C233.684 36.7229 234.701 37.4027 236.193 37.6598C237.929 37.9588 239.676 37.9302 241.119 37.0771C241.784 36.6848 242.168 36.879 242.597 37.2237C243.06 37.595 242.818 37.8502 242.344 38.1187C239.469 39.7507 234.434 39.3984 232.116 37.3932C229.774 35.367 230.559 32.1221 233.837 30.7319C235.974 29.8255 238.318 29.7988 240.523 30.61C242.71 31.4156 243.779 32.7333 243.742 34.4358C243.73 34.9309 243.44 35.1156 242.727 35.108C241.273 35.0928 239.818 35.1042 238.363 35.1042C238.36 35.1061 238.36 35.108 238.36 35.1099ZM237.363 33.9273C238.534 33.9273 239.704 33.9197 240.875 33.9292C241.531 33.935 241.648 33.7483 241.477 33.3484C240.994 32.2116 239.372 31.3889 237.5 31.3679C235.457 31.3451 233.781 32.1182 233.235 33.2875C233.002 33.7826 233.244 33.9388 233.96 33.9292C235.093 33.9178 236.227 33.9273 237.363 33.9273Z" fill="black"/>
<path d="M128.249 38.21C126.28 39.185 124.174 39.3564 121.941 38.9108C120.313 38.5871 119.285 37.7035 119.219 36.6161C119.151 35.4488 120.035 34.5747 121.717 34.1519C123.268 33.7615 124.885 34.0072 126.467 33.9177C127.081 33.8834 127.97 34.1938 128.24 33.613C128.516 33.0189 128.141 32.4266 127.493 31.9791C126.993 31.6363 126.345 31.4421 125.601 31.3888C123.978 31.2726 122.495 31.5259 121.143 32.1162C120.691 32.3143 120.367 32.3295 120.106 31.9943C119.873 31.6973 119.384 31.4326 119.987 31.0631C121.774 29.9682 126.578 29.7549 128.567 30.688C129.627 31.185 130.201 31.8668 130.337 32.7123C130.647 34.6337 130.434 36.5609 130.47 38.4842C130.479 38.886 130.201 39.1012 129.564 39.0936C129.01 39.0879 128.465 39.1031 128.399 38.5928C128.382 38.4861 128.317 38.3795 128.249 38.21ZM125.535 35.0793C125.535 35.0946 125.535 35.1098 125.535 35.1231C124.757 35.1231 123.97 35.0774 123.2 35.1364C122.387 35.1993 121.725 35.4754 121.475 36.0524C121.251 36.5723 121.379 37.056 121.961 37.4349C123.626 38.5185 127.567 37.8177 128.234 36.3304C128.638 35.4316 128.271 35.085 126.919 35.0793C126.459 35.0793 125.998 35.0793 125.535 35.0793Z" fill="black"/>
<path d="M202.051 38.0674C201.229 38.5073 200.366 38.8901 199.303 39.0424C196.701 39.4156 194.044 38.7986 192.928 37.5132C192.433 36.9419 192.24 36.3154 192.234 35.6661C192.217 34.0493 192.249 32.4345 192.214 30.8177C192.203 30.2978 192.482 30.0902 193.257 30.0902C194.038 30.0902 194.306 30.3054 194.294 30.8215C194.26 32.2954 194.266 33.7694 194.291 35.2414C194.314 36.4716 195.198 37.399 196.544 37.6694C198.567 38.0769 200.411 37.7018 201.485 36.6639C201.971 36.1935 202.099 35.6603 202.099 35.1043C202.102 33.7027 202.116 32.2992 202.096 30.8977C202.09 30.393 202.281 30.0883 203.161 30.0864C204.048 30.0845 204.321 30.3378 204.312 30.9091C204.281 33.3333 204.304 35.7575 204.298 38.1816C204.298 38.5987 204.437 39.0519 203.434 39.1014C202.428 39.1509 202.201 38.8082 202.232 38.2483C202.23 38.2159 202.158 38.1778 202.051 38.0674Z" fill="black"/>
<path d="M138.951 37.197C139.835 36.2849 140.267 35.3803 140.858 34.531C141.744 33.2627 142.574 31.9754 143.406 30.6919C143.619 30.3625 143.889 30.1378 144.477 30.0997C145.668 30.0235 145.898 30.2044 145.421 30.9281C143.761 33.4475 142.085 35.9612 140.434 38.4825C140.159 38.9052 139.758 39.0956 139.056 39.1071C138.321 39.1185 137.849 38.9528 137.553 38.4996C135.914 36.0011 134.249 33.5084 132.627 31.0042C132.462 30.7529 131.922 30.3434 132.65 30.1721C133.312 30.0159 134.161 29.9112 134.579 30.5301C135.295 31.5889 135.997 32.6534 136.695 33.7179C137.431 34.8395 138.153 35.965 138.951 37.197Z" fill="black"/>
<path d="M105 39.132C102.249 39.1225 100.945 38.1818 100.874 36.1785C100.829 34.8492 100.834 33.5162 100.874 32.187C100.891 31.61 100.616 31.3415 99.7207 31.4024C99.0473 31.4482 98.6666 31.2882 98.6581 30.7683C98.6496 30.2599 98.9962 30.0599 99.6809 30.1056C100.763 30.1761 100.9 29.7628 100.877 29.182C100.86 28.7859 100.65 28.2832 101.661 28.2204C102.766 28.1518 103.051 28.2984 103.056 29.064C103.068 30.2751 102.96 30.0885 104.585 30.098C105.045 30.0999 105.508 30.1075 105.968 30.0999C106.639 30.0885 107.054 30.2313 107.04 30.7455C107.028 31.2273 106.716 31.4329 105.997 31.4101C105.36 31.3891 104.718 31.431 104.082 31.4024C103.275 31.3644 103.036 31.6081 103.048 32.1185C103.082 33.4724 103.082 34.8283 103.053 36.1823C103.022 37.6981 104.269 38.0485 106.289 37.6829C106.957 37.5629 107.324 37.5115 107.613 37.9856C107.912 38.4769 107.511 38.6826 106.951 38.8673C106.295 39.0787 105.602 39.1473 105 39.132Z" fill="black"/>
<path d="M162.399 32.7943C162.399 30.989 162.411 29.1857 162.391 27.3804C162.385 26.87 162.47 26.5044 163.448 26.5044C164.357 26.5044 164.601 26.7862 164.598 27.3366C164.581 30.9928 164.581 34.651 164.598 38.3073C164.601 38.8786 164.286 39.1147 163.405 39.109C162.487 39.1033 162.385 38.7662 162.391 38.2806C162.408 36.4525 162.399 34.6225 162.399 32.7943Z" fill="black"/>
<path d="M113.066 31.0824C113.986 30.555 115.057 30.1455 116.341 30.1303C116.833 30.1246 117.538 29.9246 117.56 30.5835C117.58 31.1243 117.484 31.4671 116.466 31.5204C114.304 31.6328 113.043 32.4688 112.895 33.9541C112.753 35.3976 112.799 36.8506 112.799 38.2998C112.799 38.8577 112.529 39.1434 111.619 39.1015C111.011 39.0729 110.688 38.9168 110.688 38.5016C110.685 35.8889 110.688 33.2743 110.688 30.6616C110.688 30.2198 111.091 30.0998 111.662 30.0979C112.227 30.0979 112.756 30.1151 112.784 30.6273C112.796 30.7644 112.762 30.9187 113.066 31.0824Z" fill="black"/>
<path d="M210.915 34.5804C210.915 35.8392 210.895 37.0979 210.924 38.3567C210.935 38.8499 210.725 39.107 209.909 39.1051C209.139 39.1032 208.838 38.9127 208.844 38.389C208.867 35.8487 208.867 33.3064 208.844 30.7661C208.838 30.2653 209.159 30.0977 209.858 30.0939C210.611 30.0882 210.943 30.271 210.924 30.8061C210.887 32.0629 210.915 33.3217 210.915 34.5804Z" fill="black"/>
<path d="M211.404 27.5062C211.432 28.0336 210.739 28.4964 209.921 28.4983C209.19 28.5002 208.486 28.0451 208.46 27.5557C208.435 27.0644 209.091 26.5921 209.844 26.5635C210.654 26.533 211.375 26.9691 211.404 27.5062Z" fill="black"/>
</svg>
