<svg width="125" height="94" viewBox="0 0 125 94" fill="none" xmlns="http://www.w3.org/2000/svg">
<path d="M112.31 0L81.1208 12.1417L52.2146 2.74167L12.6896 4.7L0 88.125L40.8646 85.5134L86.2208 94L125 83.425L112.31 0ZM108.858 4.87077L120.487 81.3225L87.0208 90.4484L86.8354 87.5124L116.358 79.1308L106.271 9.2684L82.4271 17.7723L82.2646 15.2249L83.0375 14.9256L108.858 4.87077ZM84.6146 52.4034C85.0771 51.664 85.5312 50.6253 85.7479 49.1683C85.7479 49.1683 88.0437 49.2529 90.8688 53.8824C90.8688 53.8824 92.1021 53.7899 91.4875 50.7678C91.4875 50.7678 95.8979 49.4315 93.5187 43.5549C93.5187 43.5549 97.2188 47.387 95.9896 42.405C95.9896 42.405 100.048 38.6638 95.2 36.1759C95.2 36.1759 95.3667 33.417 98.2812 33.7711C98.2812 33.7711 101.194 28.0747 99.7896 34.838C99.7896 34.838 99.8729 36.1759 101.725 37.6846C101.725 37.6846 102.523 35.4615 101.108 33.0645C101.108 33.0645 104.023 28.963 103.756 25.4082C103.756 25.4082 94.3146 28.0418 83.8083 27.2553C83.8083 27.2553 84.3208 25.7858 82.8854 24.9601L82.5917 20.315L82.8417 20.2257L103.642 12.8091L112.992 77.5766L86.6812 85.0481L84.6146 52.4034ZM80.7854 24.8395C79.7 26.0035 76.6875 29.5834 78.5187 31.7266C78.5187 31.7266 77.6312 36.3686 76.3937 29.5975C76.3937 29.5975 74.3708 33.594 71.6333 32.7026C71.6333 32.7026 70.8812 36.7477 69.1583 34.0374C69.1583 34.0374 70.5687 34.4839 70.8792 33.2384C70.8792 33.2384 66.9021 30.0346 64.525 34.8787C64.525 34.8787 62.5833 35.4599 63.3354 37.7316C63.3354 37.7316 64.6979 35.8579 65.4062 38.7108C65.4062 38.7108 66.1583 38.2658 66.4729 34.6139C66.4729 34.6139 68.3604 33.9058 66.9021 36.7916C66.9021 36.7916 71.2271 36.8433 64.525 39.7275C64.525 39.7275 64.1542 39.6805 63.8625 38.5745C63.8625 38.5745 62.8479 41.2378 60.7687 42.1825C60.7687 42.1825 61.2562 43.2463 59.7146 43.7351C59.7146 43.7351 58.8792 45.3832 60.8667 45.3832C60.8667 45.3832 62.5854 41.4227 65.8521 44.5388C65.8521 44.5388 66.475 44.3617 65.5021 42.8029C65.5021 42.8029 67.2188 43.298 67.8833 45.3393C67.8833 45.3393 68.9437 45.2015 69.1125 43.4264C69.1125 43.4264 70.4437 41.1579 72.6083 43.8291C72.6083 43.8291 69.7354 43.204 68.9896 45.3832C68.9896 45.3832 70.3479 44.9367 71.1937 45.5618C71.1937 45.5618 71.2792 46.5786 70.4125 46.9718C70.7875 47.5013 71.1937 48.0089 71.7604 48.4382C71.9183 48.5488 72.0205 48.697 72.0498 48.8577C72.079 49.0184 72.0335 49.1819 71.9208 49.3202C73.45 51.288 76.275 53.9074 78.2521 49.726C78.2521 49.726 75.6062 50.8556 74.7208 47.7395C74.7208 47.7395 80.0604 48.2502 82.5229 52.2781L84.5958 85.0966L43.0708 76.339L43.6937 71.7063C44.5562 73.3686 45.5667 74.0438 45.5667 74.0438C44.3937 66.8136 51.3312 62.181 51.3312 62.181C52.6792 57.2178 49.2521 54.99 46.075 53.9873L47.7062 41.8488C48.3604 41.2362 48.7458 40.8273 48.7458 40.8273C48.5104 40.2179 48.2812 39.6837 48.0625 39.1949L49.6437 27.4167C50.9729 28.634 51.125 29.74 50.7521 30.7458C49.0417 35.3722 51.2417 36.79 51.2417 36.79C52.5771 32.8828 57.1604 32.2592 57.1604 32.2592C56.8979 28.6058 59.7188 24.4525 59.7188 24.4525C56.65 20.4873 52.2604 23.1616 49.9604 25.0541L50.1396 23.724C50.6104 23.2681 51.1021 22.7715 51.6333 22.2044C51.6333 22.2044 51.1937 21.9772 50.3958 21.8111L51.7958 11.385L80.3042 20.2711L80.5042 20.3338L80.7854 24.8395ZM48.3229 21.6513C46.9021 21.7015 45.0833 22.0696 42.9437 23.182C42.9437 23.182 41.9271 30.2038 47.7646 25.803L47.1125 30.6612C46.35 28.7436 44.5417 28.0762 44.5417 28.0762C42.7708 28.8815 42.9479 29.9468 42.9479 29.9468C44.5542 30.1286 45.5354 31.5824 46.1125 32.9454C45.7875 33.3199 45.2312 33.7476 44.2708 33.8181C44.2708 33.8181 45.3896 35.0824 46.4729 35.4364L46.3542 36.3075C43.8333 33.4671 42.7417 39.1745 42.7417 39.1745C36.5104 33.9528 44.3958 31.3396 44.3958 31.3396C39.5687 29.8058 37.3333 25.4098 37.3333 25.4098C37.0979 28.1405 35.6833 28.0198 35.6833 28.0198C24.6208 23.1569 22.6292 30.9887 22.6292 30.9887C24.3854 35.1372 20.6208 35.6119 20.6208 35.6119C24.2667 36.085 26.1479 32.289 26.1479 32.289C33.6854 35.1372 29.6833 45.3409 29.6833 45.3409C32.6229 46.6412 33.4479 50.9167 33.4479 50.9167C35.4958 51.3835 37.5937 52.3267 39.0646 53.074C39.35 52.8813 39.6437 52.698 39.9521 52.5272C36.5146 50.7005 36.5083 47.7426 36.5083 47.7426C39.6271 47.7426 42.9437 45.7216 45.3375 43.8635L44.0458 53.4876C43.4645 53.3777 42.8753 53.2924 42.2812 53.2322C41.7259 53.4325 41.2041 53.6818 40.7271 53.9748L40.9812 54.1236C37.5146 59.1323 42.2021 61.1407 42.9792 61.4306L40.9896 76.2356L13.4146 77.8571L22.6125 12.3485L49.7333 11.1484L48.3229 21.6513ZM42.7521 78.714L84.75 87.572L84.9375 90.5314L42.2375 82.5414L42.7521 78.714ZM80.1792 15.2499L80.3375 17.7409L52.125 8.94723L52.4875 6.24317L79.4667 15.0181L80.1792 15.2499ZM16.4354 7.65473L50.4292 5.97057L50.0521 8.78117L19.7833 10.1191L9.91458 80.4217L40.675 78.6091L40.1625 82.4129L4.71875 84.6799L16.4354 7.65473Z" fill="white"/>
</svg>
