<svg width="49" height="36" viewBox="0 0 49 36" fill="none" xmlns="http://www.w3.org/2000/svg">
<path d="M12.6668 4.5C12.6668 5.69347 12.0435 6.83807 10.9339 7.68198C9.82429 8.52589 8.31936 9 6.75016 9C5.18097 9 3.67604 8.52589 2.56645 7.68198C1.45686 6.83807 0.833496 5.69347 0.833496 4.5C0.833496 3.30653 1.45686 2.16193 2.56645 1.31802C3.67604 0.474106 5.18097 0 6.75016 0C8.31936 0 9.82429 0.474106 10.9339 1.31802C12.0435 2.16193 12.6668 3.30653 12.6668 4.5V4.5Z" fill="black"/>
<path d="M12.6668 18C12.6668 19.1935 12.0435 20.3381 10.9339 21.182C9.82429 22.0259 8.31936 22.5 6.75016 22.5C5.18097 22.5 3.67604 22.0259 2.56645 21.182C1.45686 20.3381 0.833496 19.1935 0.833496 18C0.833496 16.8065 1.45686 15.6619 2.56645 14.818C3.67604 13.9741 5.18097 13.5 6.75016 13.5C8.31936 13.5 9.82429 13.9741 10.9339 14.818C12.0435 15.6619 12.6668 16.8065 12.6668 18Z" fill="black"/>
<path d="M6.75016 36C8.31936 36 9.82429 35.5259 10.9339 34.682C12.0435 33.8381 12.6668 32.6935 12.6668 31.5C12.6668 30.3065 12.0435 29.1619 10.9339 28.318C9.82429 27.4741 8.31936 27 6.75016 27C5.18097 27 3.67604 27.4741 2.56645 28.318C1.45686 29.1619 0.833496 30.3065 0.833496 31.5C0.833496 32.6935 1.45686 33.8381 2.56645 34.682C3.67604 35.5259 5.18097 36 6.75016 36V36Z" fill="black"/>
<path d="M30.4168 4.5C30.4168 5.69347 29.7935 6.83807 28.6839 7.68198C27.5743 8.52589 26.0694 9 24.5002 9C22.931 9 21.426 8.52589 20.3164 7.68198C19.2069 6.83807 18.5835 5.69347 18.5835 4.5C18.5835 3.30653 19.2069 2.16193 20.3164 1.31802C21.426 0.474106 22.931 0 24.5002 0C26.0694 0 27.5743 0.474106 28.6839 1.31802C29.7935 2.16193 30.4168 3.30653 30.4168 4.5V4.5Z" fill="black"/>
<path d="M24.5002 22.5C26.0694 22.5 27.5743 22.0259 28.6839 21.182C29.7935 20.3381 30.4168 19.1935 30.4168 18C30.4168 16.8065 29.7935 15.6619 28.6839 14.818C27.5743 13.9741 26.0694 13.5 24.5002 13.5C22.931 13.5 21.426 13.9741 20.3164 14.818C19.2069 15.6619 18.5835 16.8065 18.5835 18C18.5835 19.1935 19.2069 20.3381 20.3164 21.182C21.426 22.0259 22.931 22.5 24.5002 22.5Z" fill="black"/>
<path d="M30.4168 31.5C30.4168 32.6935 29.7935 33.8381 28.6839 34.682C27.5743 35.5259 26.0694 36 24.5002 36C22.931 36 21.426 35.5259 20.3164 34.682C19.2069 33.8381 18.5835 32.6935 18.5835 31.5C18.5835 30.3065 19.2069 29.1619 20.3164 28.318C21.426 27.4741 22.931 27 24.5002 27C26.0694 27 27.5743 27.4741 28.6839 28.318C29.7935 29.1619 30.4168 30.3065 30.4168 31.5V31.5Z" fill="black"/>
<path d="M42.2502 9C43.8194 9 45.3243 8.52589 46.4339 7.68198C47.5435 6.83807 48.1668 5.69347 48.1668 4.5C48.1668 3.30653 47.5435 2.16193 46.4339 1.31802C45.3243 0.474106 43.8194 0 42.2502 0C40.681 0 39.176 0.474106 38.0664 1.31802C36.9569 2.16193 36.3335 3.30653 36.3335 4.5C36.3335 5.69347 36.9569 6.83807 38.0664 7.68198C39.176 8.52589 40.681 9 42.2502 9V9Z" fill="black"/>
<path d="M48.1668 18C48.1668 19.1935 47.5435 20.3381 46.4339 21.182C45.3243 22.0259 43.8194 22.5 42.2502 22.5C40.681 22.5 39.176 22.0259 38.0664 21.182C36.9569 20.3381 36.3335 19.1935 36.3335 18C36.3335 16.8065 36.9569 15.6619 38.0664 14.818C39.176 13.9741 40.681 13.5 42.2502 13.5C43.8194 13.5 45.3243 13.9741 46.4339 14.818C47.5435 15.6619 48.1668 16.8065 48.1668 18Z" fill="black"/>
<path d="M42.2502 36C43.8194 36 45.3243 35.5259 46.4339 34.682C47.5435 33.8381 48.1668 32.6935 48.1668 31.5C48.1668 30.3065 47.5435 29.1619 46.4339 28.318C45.3243 27.4741 43.8194 27 42.2502 27C40.681 27 39.176 27.4741 38.0664 28.318C36.9569 29.1619 36.3335 30.3065 36.3335 31.5C36.3335 32.6935 36.9569 33.8381 38.0664 34.682C39.176 35.5259 40.681 36 42.2502 36V36Z" fill="black"/>
</svg>
