<?xml version="1.0" encoding="utf-8"?>
<!-- Generator: Adobe Illustrator 25.0.0, SVG Export Plug-In . SVG Version: 6.00 Build 0)  -->
<svg version="1.1" id="Vrstva_1" xmlns="http://www.w3.org/2000/svg" xmlns:xlink="http://www.w3.org/1999/xlink" x="0px" y="0px"
	 viewBox="0 0 1019.23 1480.85" style="enable-background:new 0 0 1019.23 1480.85;" xml:space="preserve">
<style type="text/css">
	.st0{fill:#FFFFFF;}
	.st1{fill:#98BFAD;}
</style>
<g>
	<path class="st0" d="M745.64,486.95c-0.02-2.09-0.23-3.93-0.41-5.55c-0.13-1.12-0.24-2.17-0.24-2.88
		c0.03-7.48-0.93-14.6-1.99-21.84c-4.46-30.44-14.21-59.31-28.98-85.82c-14.81-26.58-34.12-49.99-57.4-69.59
		c-26.16-22.02-55.74-38.08-87.91-47.74c-25.46-7.64-49.64-10.98-76.1-10.49l-0.88,0.04c-1.5,0.13-3.81,0.15-6.26,0.17
		c-3.91,0.04-8.34,0.08-13.02,0.51c-13.78,1.26-27.23,3.59-39.96,6.92c-20.4,5.34-39.98,13.15-58.2,23.22
		c-19.13,10.57-36.79,23.7-53.98,40.13c-7.36,7.03-13.86,14.75-19.24,21.38c-22.55,27.73-38.58,59.53-47.63,94.51
		c-3.63,14.03-6.02,28.68-7.11,43.55c-1.05,14.32-0.89,26.25,0.5,37.55c2.56,20.82,7.47,42.2,15.46,67.28
		c8.78,27.55,20.97,54.88,36.24,81.23c6.41,11.06,12.79,22.43,18.96,33.42c2.92,5.2,5.84,10.39,8.77,15.58
		c2.92,5.16,5.83,10.33,8.75,15.49c7.27,12.87,14.78,26.17,22.22,39.24c12.06,21.19,24.7,43.3,37.56,65.71
		c10.79,18.8,23.34,40.64,35.77,62c14.96,25.72,26.74,45.45,38.2,63.97l0.16,0.26c4.46,7.2,9.06,14.65,14.43,21.78
		c1.3,1.72,5.24,6.97,12.56,6.99c0.02,0,0.03,0,0.05,0c7.28,0,11.23-5.18,12.53-6.88c4-5.24,7.52-10.85,10.36-15.37
		c11.38-18.11,22.13-36.52,31.13-52.14l3.99-6.91c11.58-20.08,23.56-40.84,35.25-61.32c8.57-15.02,17.21-30.32,25.56-45.11
		c3.72-6.6,7.45-13.19,11.17-19.78c3.21-5.68,6.42-11.35,9.63-17.03c7.16-12.67,14.56-25.77,21.87-38.63
		c10.34-18.21,21.43-37.69,32.42-56.82c1.11-1.94,2.23-3.87,3.35-5.81c5.5-9.5,11.18-19.33,16.18-29.59
		c13.99-28.74,24.24-58.88,30.46-89.59C744.02,518.47,745.8,502.41,745.64,486.95z"/>
	<g>
		<path class="st1" d="M492.85,256.56c26.27-0.48,49.34,3.13,71.97,9.92c30.85,9.26,58.52,24.45,83.09,45.14
			c22.09,18.59,40.22,40.55,54.3,65.82c14.15,25.39,23.2,52.48,27.41,81.2c0.96,6.56,1.87,13.16,1.84,19.83
			c-0.01,2.88,0.63,5.72,0.66,8.62c0.18,16.65-2.22,33-5.52,49.25c-6.09,30.04-15.96,58.81-29.37,86.35
			c-5.77,11.85-12.54,23.16-19.1,34.58c-10.87,18.93-21.67,37.9-32.45,56.88c-10.53,18.54-21.01,37.12-31.51,55.68
			c-12.23,21.62-24.4,43.27-36.71,64.84c-13,22.77-26.11,45.47-39.21,68.18c-10.03,17.39-20.19,34.7-30.87,51.7
			c-3.07,4.89-6.16,9.77-9.66,14.36c-1.6,2.09-1.99,2.09-3.59-0.04c-5.06-6.73-9.48-13.88-13.9-21.03
			c-13-21.02-25.59-42.29-38.01-63.66c-11.98-20.6-23.86-41.27-35.73-61.94c-12.55-21.87-25.07-43.76-37.54-65.67
			c-10.36-18.21-20.64-36.46-30.95-54.7c-9.26-16.38-18.37-32.85-27.8-49.13c-14.46-24.96-26.3-51.07-35.05-78.55
			c-6.75-21.19-12.21-42.71-14.92-64.82c-1.43-11.6-1.29-23.24-0.44-34.91c1.02-13.94,3.22-27.66,6.71-41.15
			c8.55-33.03,23.48-62.87,45.03-89.37c5.7-7.01,11.56-13.89,18.1-20.13c15.48-14.8,32.37-27.68,51.18-38.07
			c17.47-9.65,35.83-16.93,55.09-21.97c12.39-3.24,24.98-5.37,37.77-6.54C480.95,256.57,488.22,256.94,492.85,256.56z
			 M495.75,680.62c98.85,0.94,182.88-80.09,183.65-182.07c0.77-102.59-82.22-185.11-183.11-185.49
			c-102.95-0.39-184.28,84.19-184.63,183.26C311.32,597.33,394.5,681.79,495.75,680.62z"/>
		<path class="st1" d="M495.02,536.1c-30.24,0-60.47,0-90.71,0c-5.69,0-5.7,0.01-5.7,5.53c-0.01,7.4,0.02,14.8-0.01,22.2
			c-0.02,4.29-0.29,4.56-4.4,4.6c-4.64,0.04-9.28,0.06-13.93-0.02c-3.04-0.05-3.39-0.49-3.54-3.55c-0.04-0.88-0.02-1.76-0.02-2.63
			c0-49.8,0-99.61,0-149.41c0-6.27,0.01-6.27,6.14-6.27c4.01,0,8.03-0.05,12.04,0.03c3.22,0.06,3.67,0.5,3.68,3.8
			c0.05,9.78,0.02,19.57,0.02,29.36c0,19.19,0,38.39,0,57.58c0,1.13-0.05,2.26,0.04,3.39c0.19,2.33,0.6,2.71,3.03,2.89
			c0.87,0.07,1.76,0.03,2.63,0.03c24.84,0,49.68,0,74.52,0c5.57,0,5.58-0.02,5.58-5.69c0.01-21.33,0-42.65,0-63.98
			c0-5.62,0.02-5.64,5.65-5.64c26.72,0,53.45,0.17,80.17-0.06c19.91-0.17,39.08,13.89,43.18,34.92c0.44,2.24,0.58,4.47,0.58,6.73
			c0.01,31.24,0.01,62.47,0.01,93.71c0,0.63,0.02,1.26-0.04,1.88c-0.22,2.33-0.63,2.84-3.02,2.9c-4.26,0.11-8.53,0.05-12.8,0.05
			c-1,0-2.01,0.04-3.01-0.04c-2.36-0.18-2.83-0.58-2.97-2.97c-0.13-2.13-0.05-4.26-0.05-6.4c0-6.02,0.01-12.04-0.01-18.06
			c-0.02-4.69-0.18-4.87-4.89-4.87c-27.35-0.01-54.7-0.01-82.05-0.01C501.8,536.1,498.41,536.1,495.02,536.1z"/>
		<path class="st1" d="M473.94,460.96c-0.02,18.11-14.39,32.26-32.7,32.19c-17.68-0.07-32.2-14.77-32.15-32.55
			c0.05-17.81,14.79-32.28,32.87-32.28C458.84,428.32,474.56,443.04,473.94,460.96z"/>
	</g>
</g>
</svg>
