<?xml version="1.0" encoding="utf-8"?>
<!-- Generator: Adobe Illustrator 25.0.0, SVG Export Plug-In . SVG Version: 6.00 Build 0)  -->
<svg version="1.1" id="Vrstva_1" xmlns="http://www.w3.org/2000/svg" xmlns:xlink="http://www.w3.org/1999/xlink" x="0px" y="0px"
	 viewBox="0 0 1047.62 1549.99" style="enable-background:new 0 0 1047.62 1549.99;" xml:space="preserve">
<style type="text/css">
	.st0{fill:#FFFFFF;}
	.st1{fill:#FF907C;stroke:#AFAFAF;stroke-miterlimit:10;}
</style>
<g>
	<g>
		<path class="st0" d="M746.8,611.78c-4.8-29.5-14.79-57.66-29.69-83.71c-14.62-25.55-33.75-48.33-56.88-67.69
			c-20.16-16.89-42.78-30.35-67.23-40.03c-30.73-12.16-61.83-17.87-95.06-17.45c-9.6-0.28-21.38,0.51-34.08,2.31
			c-25.02,3.54-49.35,10.89-72.31,21.87c-18.41,8.8-35.98,20.18-52.22,33.83c-17.22,14.47-32.43,31.16-45.19,49.62
			c-14.69,21.25-25.95,44.6-33.47,69.41c-6.2,20.48-9.67,41.88-10.59,65.41c-0.61,15.5,1.78,30.78,4.19,43.68
			c4.07,21.77,10.18,43.57,18.66,66.66c6.65,18.1,14.64,35.63,23.74,52.12c5.58,10.12,11.37,20.31,16.97,30.16
			c2.47,4.35,4.94,8.71,7.41,13.07c4.66,8.25,9.32,16.51,13.98,24.77c10.66,18.9,21.69,38.45,32.59,57.65
			c12.28,21.61,25.5,44.72,40.43,70.64l0.71,1.24c22,38.19,44.74,77.69,68.29,115.92l0.18,0.29c3.81,6.18,7.75,12.58,12.33,18.67
			c2.07,2.76,5.2,6.92,10.92,6.92c0.05,0,0.11,0,0.16,0c5.82-0.08,8.9-4.42,10.74-7.01c2.94-4.14,5.53-8,7.92-11.81
			c9.73-15.45,19.76-32.15,30.66-51.03l6.59-11.41c8.21-14.21,16.7-28.91,24.99-43.4c9.65-16.88,19.4-34.07,28.82-50.69l6.27-11.05
			c5.9-10.4,11.79-20.81,17.68-31.21c5.28-9.33,10.56-18.65,15.85-27.97l3.28-5.78c9.68-17.07,19.69-34.73,29.57-52.06
			c2.76-4.85,5.63-9.77,8.41-14.54c5.18-8.9,10.54-18.1,15.56-27.38c18.08-33.46,30.91-69.42,38.14-106.88
			c1.98-10.27,4.09-22.47,4.67-35.08C750.49,644.48,749.48,628.31,746.8,611.78z"/>
	</g>
	<g>
		<path class="st1" d="M737.01,613.37c-4.64-28.53-14.17-55.32-28.51-80.4c-14.28-24.97-32.64-46.6-54.65-65.03
			c-19.41-16.25-40.93-29.08-64.52-38.42c-28.77-11.39-58.54-17.2-91.52-16.75c-9.6-0.3-21.11,0.58-32.61,2.21
			c-24.24,3.43-47.38,10.46-69.43,21c-18.1,8.65-34.75,19.56-50.13,32.48c-16.62,13.96-31.09,29.85-43.42,47.68
			c-14.2,20.53-24.9,42.75-32.14,66.66c-6.22,20.54-9.34,41.55-10.17,62.93c-0.55,13.99,1.47,27.78,4.03,41.48
			c4.16,22.22,10.43,43.87,18.23,65.08c6.43,17.5,14.11,34.44,23.12,50.76c7.98,14.46,16.21,28.77,24.33,43.15
			c15.51,27.47,30.97,54.97,46.56,82.39c13.39,23.57,26.87,47.09,40.4,70.59c22.57,39.19,45.13,78.39,68.85,116.91
			c3.81,6.19,7.62,12.39,11.99,18.21c2.94,3.92,3.14,3.99,5.88,0.13c2.64-3.72,5.19-7.5,7.62-11.35
			c10.51-16.69,20.6-33.62,30.46-50.7c10.53-18.25,21.1-36.49,31.55-54.78c11.74-20.54,23.4-41.13,35.07-61.71
			c11.19-19.72,22.34-39.46,33.53-59.18c10.94-19.29,21.88-38.59,32.86-57.86c7.93-13.92,16.24-27.63,23.86-41.72
			c17.7-32.76,30.07-67.47,37.13-104.06c2.15-11.14,3.98-22.34,4.5-33.67C740.58,643.97,739.49,628.62,737.01,613.37z
			 M500.51,843.34c-103.09,0.3-187.42-82.64-187.11-187.08c0.31-102.56,82.09-185.9,186.28-186.09
			c104.98-0.19,187.45,84.76,186.9,187.69C686.05,759.91,603.4,843.2,500.51,843.34z"/>
		<path class="st1" d="M613.66,573.65c-0.48,0.39-0.92,0.82-1.37,1.24c-9.67,9.14-19.28,18.35-29.05,27.38
			c-4.16,3.85-8.27,7.75-12.37,11.66c-0.8,0.76-1.69,1.43-2.59,2.08c-1.22,0.88-2.5,0.99-3.77,0.07c-1.41-1.02-1.54-2.44-1.17-3.97
			c0.24-1,0.96-1.7,1.63-2.42c2.68-2.89,5.33-5.81,8.03-8.68c9.55-10.13,19.13-20.23,28.68-30.36c1.43-1.52,2.76-3.15,4.12-4.74
			c0.77-0.9,0.72-1.78-0.11-2.61c-0.79-0.8-1.69-1.04-2.64-0.32c-0.69,0.52-1.32,1.11-1.95,1.7c-11,10.43-21.98,20.86-32.99,31.28
			c-2.86,2.71-5.78,5.36-8.68,8.03c-0.54,0.5-1.09,1.04-1.73,1.37c-1.54,0.79-3.1,0.85-4.44-0.45c-1.18-1.15-1.25-2.75-0.2-4.4
			c0.39-0.62,0.9-1.17,1.41-1.7c4.03-4.16,7.98-8.39,11.92-12.64c9.21-9.94,18.59-19.73,27.89-29.58c0.42-0.45,0.85-0.9,1.22-1.38
			c0.62-0.81,0.47-1.58-0.15-2.34c-1.04-1.27-1.87-1.33-3.39,0.07c-6.08,5.58-12.15,11.17-18.16,16.82
			c-6.46,6.08-12.85,12.24-19.29,18.33c-2.24,2.12-4.51,4.19-6.85,6.19c-1.73,1.48-3.61,1.43-4.97,0.06
			c-1.22-1.23-1.26-2.92,0.11-4.66c1.37-1.74,2.84-3.41,4.36-5.02c9.72-10.31,19.47-20.59,29.19-30.89
			c2.79-2.96,5.51-5.98,8.28-8.95c0.79-0.85,0.96-1.69,0.1-2.59c-0.85-0.9-1.78-1.39-2.88-0.43c-0.74,0.65-1.44,1.34-2.14,2.04
			c-16.47,16.47-32.94,32.95-49.4,49.44c-1.21,1.22-2.37,2.51-3.39,3.9c-4.4,5.98-4.47,12.27-1.26,18.79
			c0.86,1.74,3.15,2.96,2.77,4.99c-0.36,1.96-2.66,2.78-4.09,4.1c-8.14,7.52-16.36,14.96-24.57,22.41
			c-2.46,2.23-2.53,2.23-4.83,0.16c-6.5-5.85-12.95-11.75-19.48-17.57c-1.22-1.09-1.35-2.18-0.89-3.62
			c2.53-7.89,1.57-15.69-1.34-23.18c-8.12-20.94-22.66-36.11-42.63-46.11c-6.44-3.23-13.36-5.32-20.63-5.14
			c-9.78,0.24-17.1,4.38-20.45,13.53c-1.04,2.85-1.16,5.78-1.12,7.98c0.01,7.62,1.63,14.48,5.02,21.42
			c5.88,12.07,14.42,22,24.86,30.33c6.99,5.58,14.66,9.98,23.28,12.58c6.46,1.95,13,3.17,19.62,1.08c2.63-0.83,4.34-0.31,6.12,1.71
			c4.88,5.55,9.88,10.99,14.89,16.42c3.15,3.41,3.26,3.44-0.11,6.56c-9.59,8.86-19.23,17.66-28.87,26.47
			c-5.82,5.32-11.65,10.62-17.49,15.92c-7.02,6.38-14.06,12.73-21.06,19.13c-0.99,0.91-1.91,1.95-2.64,3.07
			c-2.83,4.3-2.96,8.91-0.67,13.36c2.29,4.45,6.12,6.97,11.28,7.18c5.32,0.22,9.02-2.59,12.36-6.31
			c9.14-10.17,18.35-20.27,27.52-30.41c5.95-6.58,11.85-13.19,17.79-19.78c4.87-5.4,9.74-10.79,14.64-16.15
			c2.06-2.25,2.58-2.23,4.69,0.06c2.67,2.9,5.31,5.83,7.95,8.75c8.59,9.5,17.17,19.01,25.76,28.51
			c6.44,7.13,12.88,14.26,19.33,21.38c3.06,3.38,6.01,6.87,9.26,10.05c5.39,5.27,13.46,5.23,18.63,0.15
			c5.39-5.3,5.52-13.3,0.27-18.91c-1.18-1.26-2.44-2.44-3.71-3.6c-10.66-9.7-21.32-19.4-31.99-29.08
			c-3.74-3.39-7.52-6.74-11.25-10.14c-7.54-6.9-15.09-13.8-22.58-20.76c-2.09-1.95-2.02-2.12-0.18-4.17
			c6.85-7.59,13.7-15.18,20.58-22.74c1.49-1.64,3.08-3.19,4.63-4.78c0.9-0.92,1.89-1.08,2.96-0.28c0.59,0.44,1.2,0.86,1.82,1.27
			c7.52,4.92,15.89,4.21,22.28-2.15c17.21-17.13,34.35-34.33,51.51-51.51c0.52-0.52,1.02-1.07,1.48-1.65
			c0.74-0.92,0.59-1.82-0.18-2.65C615.46,573,614.58,572.9,613.66,573.65z"/>
	</g>
</g>
</svg>
