<?xml version="1.0" encoding="utf-8"?>
<!-- Generator: Adobe Illustrator 25.0.0, SVG Export Plug-In . SVG Version: 6.00 Build 0)  -->
<svg version="1.1" id="Vrstva_1" xmlns="http://www.w3.org/2000/svg" xmlns:xlink="http://www.w3.org/1999/xlink" x="0px" y="0px"
	 viewBox="0 0 738 1066" style="enable-background:new 0 0 738 1066;" xml:space="preserve">
<style type="text/css">
	.st0{fill:#FFFFFF;}
	.st1{fill:#D83957;}
</style>
<g>
	<g>
		<path class="st0" d="M697.91,311.85c-6.15-42.59-19.83-83.14-40.65-120.52c-20.68-37.14-47.86-69.97-80.77-97.58
			c-28.92-24.26-61.41-43.58-96.55-57.42c-41.88-16.49-84.56-24.34-130.42-24c-11.61-0.42-25.86,0.44-42.33,2.55
			c-31.78,4.07-61.9,11.98-89.54,23.5c-53.95,22.5-99.92,56.46-136.63,100.93c-32.75,39.68-55.94,85.28-68.92,135.54
			c-4.87,18.85-8.1,38.85-9.88,61.13c-0.64,8.01-1.25,17.47-0.92,26.94c0.59,17.06,2.8,34.77,6.73,54.15
			c6.33,31.16,15.34,62.34,26.78,92.67c9.41,24.94,18.32,44.74,28.05,62.3c20.01,36.12,40.62,72.49,60.55,107.66
			c20.88,36.85,43.3,76.24,70.56,123.93c29.02,50.77,61.9,108.32,94.78,163.48l3.1,5.2c11.4,19.13,23.18,38.92,35.53,58.05
			c2.76,4.27,5.88,8.8,9.83,14.26c2.31,3.2,6.62,9.15,14.7,9.17c0.02,0,0.03,0,0.04,0c8.06,0,12.32-5.82,14.86-9.29
			c1.55-2.11,2.94-4.18,4.46-6.47c16.41-24.59,31.21-50.03,45.53-74.63c19.11-32.83,38.13-65.79,56.54-97.97
			c15.05-26.3,30.24-53.1,44.93-79.01c4.84-8.54,9.68-17.07,14.52-25.6c6.33-11.16,12.65-22.33,18.97-33.49
			c7.21-12.74,14.42-25.49,21.66-38.22l5.64-9.93c14.67-25.84,29.85-52.56,44.86-78.78c1.39-2.42,2.78-4.84,4.17-7.25
			c8.33-14.48,16.95-29.45,24.38-45.07c18.34-38.53,31.99-78.98,40.58-120.23c3.53-16.95,6.92-35.29,7.8-54.45
			C701.81,352.69,700.82,331.98,697.91,311.85z"/>
	</g>
	<g>
		<path class="st1" d="M349.16,26.16c45.05-0.37,86.05,7.48,125.56,23.04c33.87,13.34,64.8,31.72,92.73,55.14
			c31.6,26.5,57.52,57.7,77.58,93.71c20.14,36.16,33.12,74.77,39.04,115.77c2.83,19.57,3.73,39.23,2.82,58.93
			c-0.81,17.63-3.93,35-7.52,52.27c-8.46,40.63-21.69,79.62-39.53,117.1c-8.41,17.67-18.36,34.45-28.06,51.39
			c-16.92,29.54-33.71,59.15-50.53,88.75c-13.57,23.89-27.07,47.82-40.63,71.72c-19.79,34.87-39.51,69.77-59.43,104.57
			c-18.71,32.7-37.55,65.32-56.49,97.88c-14.51,24.94-29.04,49.88-45.08,73.9c-1.34,2.01-2.69,4.02-4.12,5.98
			c-3.5,4.78-3.87,4.83-7.23,0.18c-3.24-4.48-6.42-9.01-9.42-13.66c-13.31-20.62-25.81-41.75-38.37-62.83
			c-32.21-54.04-63.44-108.64-94.65-163.26c-23.58-41.26-47.11-82.54-70.54-123.89c-20.28-35.78-40.55-71.57-60.48-107.54
			c-10.73-19.37-19.39-39.76-27.2-60.48c-11.12-29.48-19.89-59.65-26.17-90.54c-3.48-17.13-5.86-34.42-6.46-51.88
			c-0.29-8.44,0.21-16.93,0.88-25.36c1.58-19.83,4.5-39.47,9.48-58.77c12.47-48.27,34.46-91.74,66.19-130.19
			c35.67-43.22,79.57-75.41,131.28-96.97c27.61-11.51,56.36-18.76,85.97-22.55C323.01,26.77,337.32,25.7,349.16,26.16z
			 M351.16,107.29C210.93,105.69,92.12,220.87,90.4,364.38c-1.72,143.05,112.49,263.44,259.24,264.09
			c148.08,0.66,260.93-117.97,262.38-257.89C613.56,222.54,492.48,105.9,351.16,107.29z"/>
		<path class="st1" d="M392.21,363.52c-1.18,2.54-0.79,4.27-0.8,5.95c-0.05,8.98,0,17.97-0.04,26.96c-0.01,1.89-0.18,3.79-0.39,5.67
			c-0.58,5.44-3.09,8.99-8.65,10.89c-6.68,2.28-13.06,5.47-19.5,8.42c-2.56,1.17-4.84,1.17-7.44,0.1
			c-9.74-4.01-19.53-7.93-29.36-11.73c-3.02-1.17-4.8-3.04-5.68-6.15c-1.04-3.69-1.68-7.38-1.65-11.23
			c0.06-8.96,0.02-17.93,0.02-26.93c-2.12-0.23-2.16,1.33-2.59,2.25c-3.02,6.41-5.94,12.86-8.89,19.3
			c-2.58,5.63-6.71,7.51-12.63,5.69c-1.15-0.35-2.27-0.84-3.36-1.35c-17.66-8.32-35.32-16.65-52.97-24.98
			c-1.41-0.66-2.78-1.4-4.2-2.03c-4.14-1.85-6.82-4.71-6.5-9.56c0.37-5.62,4.27-10.95,8.83-12.38c2.76-0.87,5.1,0.22,7.44,1.32
			c12.98,6.1,25.94,12.23,38.9,18.36c1.41,0.66,2.79,1.37,4.2,2.03c4.7,2.21,4.67,2.19,6.81-2.48
			c8.36-18.21,16.75-36.41,25.09-54.63c1.08-2.35,1.88-4.82,2.84-7.23c5.53-13.92,15.24-22.8,30.37-25.06
			c6.2-0.93,12.05,0.48,17.54,3.27c8.51,4.31,14.78,10.95,18.13,19.83c5.25,13.94,12.16,27.1,18.12,40.7
			c3.47,7.91,7.14,15.73,10.79,23.56c1.91,4.09,2.04,4.11,6.19,2.17c14.55-6.81,29.08-13.67,43.65-20.44
			c5.33-2.48,8.24-2.14,11.74,1.43c3.75,3.82,5.45,8.36,3.83,13.73c-0.83,2.75-3.12,3.98-5.51,5.12
			c-10.77,5.11-21.52,10.27-32.29,15.37c-8.28,3.92-16.58,7.78-24.88,11.64c-1.4,0.65-2.84,1.3-4.32,1.71
			c-5.29,1.48-9.18-0.11-11.62-5.05c-2.9-5.88-5.52-11.91-8.27-17.87C394.32,368.03,393.44,366.17,392.21,363.52z"/>
		<path class="st1" d="M443.19,479.97c-0.41,5.82-2.56,12.14-7.62,17.07c-7,6.82-15.03,8.4-24.29,4.69
			c-33.67-13.51-67.41-26.85-101.13-40.24c-9.31-3.7-18.57-7.54-27.99-10.96c-9.86-3.58-14.57-10.73-15.08-20.79
			c-0.47-9.21,6.25-19.62,14.66-23.31c5.5-2.41,11.1-2.34,16.65-0.16c10.94,4.29,21.84,8.66,32.76,12.99
			c32.44,12.88,64.88,25.74,97.31,38.63C438.17,461.74,443.27,469.07,443.19,479.97z"/>
		<path class="st1" d="M322.5,229.55c-0.93-15.17,12.62-32.3,32.68-32.43c16.97-0.11,33.29,14.31,33.06,32.9
			c-0.21,17.48-13.3,32.48-32.7,32.77C334.14,263.1,321.56,244.85,322.5,229.55z"/>
		<path class="st1" d="M350.89,483.48c-4.28,2.77-8.86,4.32-13.23,6.23c-13.43,5.88-27.22,11.02-40.34,17.52
			c-16.41,8.14-30.48-5.1-32.84-17.1c-2.31-11.74,2.08-20.69,13.04-25.72c3.13-1.44,6.35-2.7,9.49-4.13
			c2.49-1.13,4.81-1.25,7.45-0.19c17.61,7.06,35.28,13.99,52.93,20.97C348.48,481.51,349.68,481.84,350.89,483.48z"/>
		<path class="st1" d="M360.11,426.77c0.48-1.47,1.55-1.73,2.47-2.13c17.26-7.46,34.49-15.01,51.82-22.33
			c14.6-6.17,30.53,3.8,31.96,19.79c1.04,11.61-3,18.56-13.67,23.52c-12.61,5.86-12.6,5.86-25.62,0.65
			c-14.1-5.64-28.2-11.27-42.29-16.93C363.2,428.72,361.44,428.41,360.11,426.77z"/>
	</g>
</g>
</svg>
