<?xml version="1.0" encoding="utf-8"?>
<!-- Generator: Adobe Illustrator 25.0.0, SVG Export Plug-In . SVG Version: 6.00 Build 0)  -->
<svg version="1.1" id="Vrstva_1" xmlns="http://www.w3.org/2000/svg" xmlns:xlink="http://www.w3.org/1999/xlink" x="0px" y="0px"
	 viewBox="0 0 738.24 1066.78" style="enable-background:new 0 0 738.24 1066.78;" xml:space="preserve">
<style type="text/css">
	.st0{fill:#FFFFFF;}
	.st1{fill:#FF907C;stroke:#AFAFAF;stroke-miterlimit:10;}
</style>
<g>
	<g>
		<path class="st0" d="M711.41,317.28c-6.72-41.3-20.7-80.73-41.56-117.2c-20.46-35.77-47.25-67.66-79.63-94.77
			c-28.23-23.64-59.89-42.5-94.12-56.04c-43.02-17.03-86.56-25.02-133.09-24.42c-13.44-0.4-29.93,0.71-47.71,3.23
			c-35.03,4.95-69.09,15.25-101.23,30.62c-25.78,12.32-50.37,28.26-73.11,47.36c-24.11,20.26-45.4,43.63-63.26,69.47
			c-20.57,29.75-36.33,62.44-46.85,97.18c-8.69,28.68-13.54,58.63-14.83,91.57c-0.85,21.7,2.49,43.09,5.87,61.15
			c5.7,30.47,14.25,61,26.13,93.33c9.31,25.33,20.49,49.89,33.23,72.97c7.82,14.16,15.92,28.43,23.75,42.23
			c3.46,6.1,6.92,12.19,10.37,18.3c6.53,11.56,13.05,23.12,19.57,34.67c14.93,26.46,30.36,53.83,45.63,80.71
			c17.19,30.26,35.7,62.6,56.6,98.89l1,1.73c30.79,53.47,62.64,108.76,95.6,162.29l0.25,0.41c5.33,8.66,10.85,17.61,17.26,26.14
			c2.9,3.87,7.28,9.69,15.28,9.69c0.08,0,0.15,0,0.23,0c8.14-0.11,12.45-6.19,15.03-9.82c4.11-5.79,7.74-11.2,11.09-16.53
			c13.62-21.64,27.66-45,42.92-71.44l9.22-15.97c11.49-19.9,23.37-40.47,34.98-60.77c13.51-23.63,27.16-47.69,40.35-70.96
			l8.77-15.47c8.26-14.56,16.51-29.13,24.76-43.7c7.39-13.06,14.78-26.11,22.18-39.16l4.59-8.09c13.55-23.9,27.57-48.62,41.4-72.89
			c3.87-6.79,7.89-13.68,11.77-20.35c7.26-12.46,14.76-25.34,21.78-38.33c25.31-46.84,43.27-97.19,53.4-149.63
			c2.77-14.38,5.72-31.45,6.53-49.11C716.58,363.05,715.18,340.42,711.41,317.28z"/>
	</g>
	<g>
		<path class="st1" d="M697.71,319.5c-6.5-39.94-19.83-77.45-39.92-112.56c-20-34.96-45.69-65.24-76.5-91.04
			c-27.17-22.75-57.3-40.71-90.33-53.79C450.68,46.16,409,38.03,362.83,38.66c-13.43-0.42-29.56,0.81-45.65,3.09
			c-33.94,4.8-66.33,14.64-97.21,29.41c-25.34,12.11-48.65,27.38-70.18,45.47c-23.27,19.55-43.53,41.79-60.79,66.75
			c-19.88,28.74-34.85,59.85-44.99,93.33c-8.71,28.75-13.07,58.18-14.24,88.11c-0.77,19.59,2.06,38.89,5.64,58.07
			c5.82,31.11,14.61,61.42,25.52,91.11c9,24.49,19.75,48.22,32.36,71.06c11.17,20.24,22.69,40.28,34.06,60.41
			c21.72,38.46,43.36,76.95,65.18,115.35c18.75,33,37.62,65.93,56.56,98.82c31.6,54.87,63.18,109.75,96.39,163.67
			c5.33,8.66,10.67,17.35,16.79,25.5c4.12,5.49,4.4,5.58,8.23,0.18c3.69-5.2,7.27-10.5,10.67-15.9
			c14.71-23.36,28.84-47.07,42.64-70.98c14.75-25.55,29.53-51.08,44.18-76.69c16.44-28.75,32.76-57.58,49.1-86.39
			c15.66-27.61,31.28-55.25,46.94-82.86c15.32-27.01,30.63-54.03,46.01-81.01c11.11-19.48,22.74-38.68,33.4-58.41
			c24.78-45.86,42.1-94.46,51.99-145.68c3.01-15.6,5.57-31.27,6.3-47.13C702.72,362.34,701.18,340.85,697.71,319.5z M366.62,641.46
			c-144.33,0.42-262.39-115.7-261.95-261.92c0.43-143.58,114.92-260.26,260.79-260.53c146.97-0.27,262.43,118.67,261.66,262.77
			C626.37,524.65,510.67,641.27,366.62,641.46z"/>
		<path class="st1" d="M525.02,263.9c-0.67,0.55-1.29,1.15-1.91,1.74c-13.54,12.79-26.99,25.68-40.66,38.33
			c-5.83,5.39-11.58,10.85-17.32,16.32c-1.12,1.07-2.37,2.01-3.62,2.92c-1.71,1.24-3.5,1.38-5.28,0.1
			c-1.97-1.43-2.15-3.41-1.63-5.56c0.34-1.4,1.35-2.38,2.29-3.39c3.75-4.05,7.46-8.13,11.25-12.15
			c13.37-14.18,26.78-28.32,40.15-42.5c2.01-2.13,3.86-4.42,5.77-6.64c1.08-1.26,1.01-2.49-0.16-3.66
			c-1.11-1.11-2.36-1.46-3.69-0.45c-0.96,0.72-1.85,1.55-2.72,2.38c-15.4,14.6-30.78,29.21-46.18,43.79
			c-4.01,3.79-8.09,7.51-12.15,11.24c-0.76,0.7-1.52,1.46-2.42,1.92c-2.16,1.1-4.34,1.19-6.21-0.63c-1.65-1.61-1.75-3.85-0.29-6.15
			c0.55-0.86,1.26-1.64,1.98-2.38c5.64-5.82,11.17-11.75,16.68-17.69c12.9-13.91,26.02-27.62,39.05-41.41
			c0.59-0.63,1.19-1.25,1.71-1.94c0.87-1.13,0.66-2.21-0.22-3.28c-1.46-1.78-2.61-1.86-4.74,0.09
			c-8.51,7.82-17.01,15.64-25.43,23.55c-9.05,8.51-17.99,17.13-27.01,25.66c-3.13,2.96-6.32,5.87-9.59,8.67
			c-2.43,2.07-5.05,2-6.95,0.09c-1.71-1.72-1.77-4.09,0.15-6.53c1.92-2.44,3.98-4.77,6.11-7.02c13.61-14.43,27.26-28.82,40.87-43.25
			c3.91-4.14,7.72-8.37,11.59-12.54c1.11-1.19,1.34-2.36,0.14-3.62c-1.2-1.25-2.49-1.94-4.04-0.6c-1.04,0.91-2.02,1.88-3,2.86
			c-23.06,23.06-46.12,46.12-69.15,69.21c-1.7,1.7-3.32,3.52-4.75,5.46c-6.16,8.37-6.25,17.18-1.76,26.31
			c1.2,2.44,4.41,4.15,3.88,6.99c-0.51,2.74-3.73,3.89-5.73,5.74c-11.4,10.53-22.9,20.95-34.4,31.37c-3.45,3.13-3.55,3.12-6.77,0.23
			c-9.1-8.18-18.14-16.45-27.27-24.6c-1.71-1.52-1.88-3.06-1.24-5.06c3.54-11.05,2.19-21.97-1.87-32.45
			c-11.37-29.31-31.72-50.55-59.68-64.56c-9.02-4.52-18.7-7.45-28.88-7.2c-13.7,0.33-23.94,6.14-28.62,18.95
			c-1.46,3.99-1.62,8.09-1.57,11.17c0.01,10.66,2.29,20.27,7.02,29.98c8.24,16.9,20.19,30.8,34.8,42.46
			c9.79,7.81,20.52,13.98,32.59,17.62c9.04,2.73,18.2,4.44,27.47,1.51c3.68-1.16,6.08-0.43,8.56,2.39
			c6.83,7.77,13.83,15.39,20.85,22.99c4.41,4.78,4.56,4.82-0.15,9.18c-13.43,12.4-26.93,24.73-40.42,37.06
			c-8.14,7.45-16.31,14.87-24.48,22.29c-9.83,8.93-19.69,17.82-29.48,26.78c-1.39,1.27-2.67,2.73-3.7,4.3
			c-3.96,6.02-4.15,12.48-0.94,18.7c3.21,6.22,8.57,9.76,15.79,10.06c7.45,0.31,12.63-3.62,17.31-8.83
			c12.79-14.24,25.7-28.37,38.53-42.57c8.32-9.21,16.6-18.47,24.91-27.69c6.81-7.56,13.63-15.11,20.5-22.62
			c2.89-3.15,3.61-3.12,6.57,0.08c3.74,4.06,7.43,8.16,11.13,12.26c12.02,13.3,24.04,26.61,36.07,39.92
			c9.02,9.98,18.03,19.96,27.06,29.93c4.28,4.73,8.41,9.62,12.96,14.08c7.55,7.38,18.84,7.32,26.09,0.2
			c7.55-7.42,7.73-18.62,0.38-26.47c-1.65-1.76-3.41-3.42-5.2-5.05c-14.92-13.58-29.85-27.15-44.79-40.71
			c-5.23-4.75-10.53-9.43-15.75-14.2c-10.56-9.66-21.12-19.32-31.61-29.07c-2.93-2.73-2.83-2.97-0.25-5.84
			c9.59-10.62,19.18-21.25,28.81-31.84c2.09-2.3,4.31-4.47,6.49-6.69c1.27-1.29,2.64-1.51,4.15-0.39c0.83,0.62,1.68,1.21,2.55,1.78
			c10.53,6.89,22.25,5.89,31.2-3.01c24.09-23.98,48.08-48.06,72.11-72.11c0.73-0.73,1.43-1.5,2.08-2.3
			c1.03-1.29,0.83-2.55-0.25-3.72C527.54,262.98,526.32,262.84,525.02,263.9z"/>
	</g>
</g>
</svg>
