<?xml version="1.0" encoding="utf-8"?>
<!-- Generator: Adobe Illustrator 25.0.0, SVG Export Plug-In . SVG Version: 6.00 Build 0)  -->
<svg version="1.1" id="Vrstva_1" xmlns="http://www.w3.org/2000/svg" xmlns:xlink="http://www.w3.org/1999/xlink" x="0px" y="0px"
	 viewBox="0 0 1035.57 1533.92" style="enable-background:new 0 0 1035.57 1533.92;" xml:space="preserve">
<style type="text/css">
	.st0{fill:#FFFFFF;}
	.st1{fill:#D83957;}
</style>
<g>
	<g>
		<path class="st0" d="M777.1,500.93c-4.4-30.42-14.16-59.39-29.03-86.09c-14.77-26.53-34.18-49.98-57.7-69.7
			c-20.66-17.33-43.86-31.13-68.96-41.01c-29.91-11.78-60.4-17.39-93.16-17.14c-8.3-0.3-18.47,0.31-30.24,1.82
			c-22.7,2.91-44.22,8.56-63.96,16.79c-38.54,16.07-71.37,40.33-97.59,72.09c-23.39,28.34-39.95,60.91-49.23,96.81
			c-3.48,13.46-5.79,27.75-7.06,43.66c-0.46,5.72-0.89,12.48-0.66,19.24c0.42,12.19,2,24.84,4.81,38.68
			c4.52,22.26,10.96,44.53,19.13,66.19c6.72,17.82,13.08,31.96,20.03,44.5c14.3,25.8,29.01,51.78,43.25,76.9
			c14.92,26.32,30.93,54.45,50.4,88.52c20.73,36.27,44.22,77.37,67.7,116.77l2.21,3.71c8.14,13.67,16.56,27.8,25.38,41.46
			c1.97,3.05,4.2,6.29,7.02,10.19c1.65,2.28,4.73,6.53,10.5,6.55c0.01,0,0.02,0,0.03,0c5.76,0,8.8-4.15,10.61-6.64
			c1.1-1.51,2.1-2.99,3.19-4.62c11.72-17.56,22.3-35.73,32.52-53.3c13.65-23.45,27.23-47,40.39-69.98
			c10.75-18.79,21.6-37.93,32.09-56.43c3.46-6.1,6.91-12.19,10.37-18.29c4.52-7.97,9.04-15.95,13.55-23.92
			c5.15-9.1,10.3-18.21,15.47-27.3l4.03-7.09c10.48-18.46,21.32-37.54,32.04-56.27c0.99-1.73,1.98-3.45,2.98-5.18
			c5.95-10.34,12.1-21.03,17.42-32.19c13.1-27.52,22.85-56.42,28.99-85.88c2.52-12.11,4.94-25.2,5.57-38.9
			C779.89,530.1,779.18,515.31,777.1,500.93z"/>
	</g>
	<g>
		<path class="st1" d="M527.99,296.86c32.18-0.27,61.47,5.34,89.68,16.45c24.2,9.53,46.29,22.66,66.23,39.39
			c22.57,18.93,41.09,41.22,55.41,66.94c14.38,25.83,23.65,53.41,27.89,82.69c2.02,13.98,2.66,28.02,2.02,42.09
			c-0.58,12.59-2.81,25-5.37,37.33c-6.04,29.02-15.49,56.87-28.24,83.64c-6.01,12.62-13.12,24.61-20.05,36.71
			c-12.08,21.1-24.08,42.25-36.09,63.39c-9.69,17.07-19.34,34.16-29.02,51.23c-14.13,24.91-28.22,49.84-42.45,74.69
			c-13.37,23.35-26.82,46.66-40.35,69.92c-10.37,17.82-20.75,35.63-32.2,52.79c-0.96,1.44-1.92,2.87-2.94,4.27
			c-2.5,3.42-2.76,3.45-5.17,0.13c-2.32-3.2-4.59-6.44-6.73-9.75c-9.51-14.73-18.43-29.82-27.41-44.88
			c-23.01-38.6-45.31-77.6-67.61-116.61c-16.84-29.47-33.65-58.96-50.38-88.49c-14.48-25.56-28.97-51.12-43.2-76.81
			c-7.67-13.84-13.85-28.4-19.43-43.2c-7.94-21.06-14.21-42.61-18.69-64.67c-2.49-12.24-4.18-24.58-4.62-37.05
			c-0.21-6.03,0.15-12.1,0.63-18.12c1.13-14.17,3.21-28.2,6.77-41.98c8.91-34.48,24.61-65.53,47.28-93
			c25.48-30.87,56.84-53.86,93.77-69.26c19.72-8.22,40.26-13.4,61.41-16.11C509.31,297.3,519.54,296.54,527.99,296.86z
			 M529.42,354.81c-100.16-1.14-185.02,81.13-186.25,183.63c-1.23,102.18,80.35,188.17,185.17,188.64
			c105.77,0.47,186.38-84.27,187.41-184.2C716.85,437.13,630.36,353.82,529.42,354.81z"/>
		<path class="st1" d="M558.74,537.84c-0.84,1.81-0.56,3.05-0.57,4.25c-0.03,6.42,0,12.84-0.03,19.25
			c-0.01,1.35-0.13,2.71-0.28,4.05c-0.42,3.88-2.2,6.42-6.18,7.78c-4.77,1.63-9.33,3.9-13.93,6.01c-1.83,0.84-3.46,0.84-5.31,0.07
			c-6.96-2.87-13.95-5.67-20.97-8.38c-2.16-0.83-3.43-2.17-4.05-4.39c-0.74-2.64-1.2-5.27-1.18-8.02c0.04-6.4,0.01-12.8,0.01-19.24
			c-1.51-0.16-1.54,0.95-1.85,1.6c-2.15,4.58-4.24,9.19-6.35,13.78c-1.84,4.02-4.79,5.36-9.02,4.07c-0.82-0.25-1.62-0.6-2.4-0.97
			c-12.61-5.94-25.23-11.89-37.84-17.84c-1-0.47-1.99-1-3-1.45c-2.96-1.32-4.87-3.36-4.64-6.83c0.26-4.01,3.05-7.82,6.31-8.84
			c1.97-0.62,3.64,0.16,5.32,0.94c9.27,4.36,18.53,8.74,27.79,13.11c1,0.47,2,0.98,3,1.45c3.36,1.58,3.33,1.56,4.86-1.77
			c5.97-13.01,11.97-26.01,17.92-39.02c0.77-1.68,1.34-3.44,2.03-5.16c3.95-9.94,10.88-16.29,21.69-17.9
			c4.43-0.66,8.61,0.35,12.53,2.33c6.08,3.08,10.56,7.82,12.95,14.17c3.75,9.95,8.69,19.36,12.94,29.07
			c2.48,5.65,5.1,11.24,7.7,16.83c1.36,2.92,1.46,2.93,4.42,1.55c10.39-4.86,20.77-9.76,31.18-14.6c3.81-1.77,5.88-1.53,8.38,1.02
			c2.68,2.73,3.89,5.97,2.73,9.81c-0.59,1.96-2.23,2.85-3.94,3.66c-7.69,3.65-15.37,7.34-23.06,10.98
			c-5.91,2.8-11.84,5.56-17.77,8.31c-1,0.47-2.03,0.93-3.09,1.22c-3.78,1.05-6.56-0.08-8.3-3.61c-2.07-4.2-3.94-8.51-5.9-12.77
			C560.25,541.05,559.62,539.73,558.74,537.84z"/>
		<path class="st1" d="M595.15,621.01c-0.29,4.16-1.83,8.67-5.44,12.19c-5,4.87-10.74,6-17.35,3.35
			c-24.05-9.65-48.15-19.18-72.24-28.74c-6.65-2.64-13.27-5.39-19.99-7.83c-7.04-2.56-10.41-7.66-10.77-14.85
			c-0.33-6.58,4.47-14.02,10.47-16.65c3.93-1.72,7.93-1.67,11.89-0.11c7.81,3.07,15.6,6.18,23.4,9.28
			c23.17,9.2,46.34,18.38,69.51,27.6C591.57,607.99,595.21,613.23,595.15,621.01z"/>
		<path class="st1" d="M508.95,442.14c-0.66-10.84,9.01-23.07,23.34-23.16c12.12-0.08,23.78,10.22,23.61,23.5
			c-0.15,12.48-9.5,23.2-23.36,23.4C517.26,466.11,508.28,453.07,508.95,442.14z"/>
		<path class="st1" d="M529.23,623.52c-3.06,1.98-6.33,3.09-9.45,4.45c-9.6,4.2-19.45,7.87-28.82,12.52
			c-11.72,5.81-21.77-3.64-23.46-12.21c-1.65-8.39,1.48-14.78,9.31-18.37c2.24-1.03,4.54-1.93,6.78-2.95
			c1.77-0.81,3.43-0.89,5.32-0.13c12.58,5.05,25.2,9.99,37.81,14.98C527.51,622.12,528.37,622.35,529.23,623.52z"/>
		<path class="st1" d="M535.81,583.02c0.35-1.05,1.11-1.23,1.77-1.52c12.33-5.33,24.64-10.72,37.01-15.95
			c10.43-4.4,21.81,2.71,22.83,14.14c0.74,8.29-2.14,13.25-9.76,16.8c-9,4.19-9,4.19-18.3,0.47c-10.07-4.03-20.14-8.05-30.21-12.09
			C538.02,584.41,536.76,584.19,535.81,583.02z"/>
	</g>
</g>
</svg>
