<?xml version="1.0" encoding="utf-8"?>
<!-- Generator: Adobe Illustrator 25.0.0, SVG Export Plug-In . SVG Version: 6.00 Build 0)  -->
<svg version="1.1" id="Vrstva_1" xmlns="http://www.w3.org/2000/svg" xmlns:xlink="http://www.w3.org/1999/xlink" x="0px" y="0px"
	 viewBox="0 0 738 1066" style="enable-background:new 0 0 738 1066;" xml:space="preserve">
<style type="text/css">
	.st0{fill:#FFFFFF;}
	.st1{fill:#98BFAD;}
</style>
<g>
	<path class="st0" d="M709.37,355.83c-0.03-2.93-0.32-5.5-0.58-7.78c-0.18-1.56-0.34-3.04-0.34-4.03
		c0.04-10.47-1.3-20.44-2.78-30.58c-6.25-42.61-19.9-83.03-40.57-120.14c-20.73-37.21-47.77-69.98-80.36-97.42
		c-36.63-30.83-78.03-53.32-123.07-66.84c-35.64-10.7-69.5-15.37-106.55-14.69l-1.23,0.06c-2.1,0.18-5.34,0.21-8.76,0.24
		c-5.47,0.05-11.67,0.11-18.23,0.71c-19.3,1.77-38.12,5.03-55.94,9.69c-28.55,7.48-55.97,18.41-81.48,32.51
		c-26.79,14.8-51.5,33.18-75.57,56.18c-10.3,9.85-19.4,20.65-26.94,29.93C55.4,182.51,32.96,227.03,20.29,276
		c-5.08,19.64-8.43,40.16-9.95,60.98c-1.47,20.05-1.24,36.75,0.7,52.57c3.58,29.15,10.46,59.08,21.64,94.19
		c12.29,38.57,29.35,76.83,50.73,113.72c8.97,15.48,17.91,31.4,26.55,46.79c4.08,7.28,8.17,14.55,12.28,21.81
		c4.09,7.23,8.17,14.46,12.25,21.69c10.17,18.01,20.69,36.64,31.1,54.94c16.88,29.66,34.57,60.62,52.59,92
		c15.11,26.32,32.68,56.89,50.07,86.8c20.94,36,37.44,63.63,53.48,89.56l0.23,0.37c6.24,10.08,12.69,20.51,20.2,30.5
		c1.82,2.41,7.34,9.76,17.58,9.79c0.02,0,0.05,0,0.07,0c10.19,0,15.72-7.25,17.54-9.64c5.59-7.33,10.53-15.2,14.5-21.51
		c15.94-25.36,30.98-51.13,43.59-72.99l5.58-9.68c16.22-28.11,32.98-57.17,49.35-85.85c12-21.03,24.09-42.44,35.78-63.15
		c5.21-9.23,10.42-18.47,15.64-27.69c4.49-7.95,8.99-15.89,13.48-23.84c10.02-17.74,20.39-36.08,30.62-54.08
		c14.48-25.49,30-52.77,45.38-79.55c1.56-2.71,3.13-5.42,4.69-8.13c7.7-13.3,15.65-27.06,22.65-41.43
		c19.59-40.23,33.94-82.43,42.65-125.42C707.1,399.96,709.6,377.47,709.37,355.83z"/>
	<g>
		<path class="st1" d="M355.46,33.28c36.78-0.67,69.08,4.38,100.76,13.89c43.19,12.97,81.92,34.23,116.33,63.19
			c30.92,26.03,56.3,56.77,76.02,92.15c19.81,35.55,32.48,73.48,38.38,113.68c1.35,9.19,2.61,18.43,2.58,27.77
			c-0.01,4.04,0.88,8.01,0.92,12.07c0.25,23.31-3.11,46.19-7.72,68.95c-8.52,42.06-22.34,82.33-41.12,120.89
			c-8.08,16.59-17.55,32.43-26.74,48.42c-15.22,26.5-30.33,53.06-45.43,79.63c-14.75,25.96-29.41,51.96-44.11,77.95
			c-17.12,30.27-34.15,60.58-51.39,90.78c-18.19,31.88-36.55,63.66-54.89,95.46c-14.04,24.34-28.26,48.58-43.22,72.38
			c-4.3,6.84-8.62,13.67-13.53,20.1c-2.23,2.93-2.78,2.93-5.03-0.05c-7.08-9.42-13.27-19.44-19.46-29.44
			c-18.21-29.43-35.82-59.21-53.22-89.12c-16.78-28.84-33.41-57.77-50.02-86.71c-17.57-30.61-35.1-61.26-52.55-91.94
			c-14.51-25.49-28.89-51.05-43.33-76.58c-12.96-22.93-25.72-45.98-38.93-68.78c-20.25-34.94-36.82-71.5-49.07-109.97
			c-9.45-29.67-17.09-59.79-20.89-90.75c-2-16.24-1.8-32.53-0.61-48.88c1.43-19.52,4.51-38.72,9.4-57.62
			c11.97-46.24,32.87-88.02,63.04-125.12c7.98-9.82,16.19-19.45,25.34-28.19c21.67-20.72,45.32-38.75,71.65-53.3
			c24.45-13.51,50.16-23.71,77.12-30.76c17.34-4.54,34.97-7.52,52.87-9.15C338.8,33.29,348.98,33.82,355.46,33.28z M359.53,626.97
			c138.39,1.32,256.03-112.13,257.11-254.89c1.08-143.63-115.11-259.15-256.35-259.69c-144.13-0.55-257.99,117.87-258.48,256.56
			C101.32,510.36,217.77,628.6,359.53,626.97z"/>
		<path class="st1" d="M358.5,424.64c-42.33,0-84.66,0-126.99,0c-7.97,0-7.98,0.02-7.99,7.75c-0.01,10.36,0.03,20.72-0.02,31.09
			c-0.02,6-0.4,6.39-6.17,6.43c-6.5,0.05-13,0.08-19.5-0.03c-4.25-0.07-4.75-0.69-4.96-4.97c-0.06-1.23-0.02-2.46-0.02-3.69
			c0-69.73,0-139.45,0-209.18c0-8.77,0.01-8.78,8.6-8.78c5.62,0,11.24-0.07,16.86,0.04c4.51,0.09,5.13,0.71,5.16,5.32
			c0.07,13.7,0.03,27.4,0.03,41.1c0,26.87,0,53.74,0,80.62c0,1.58-0.07,3.17,0.06,4.74c0.26,3.27,0.84,3.79,4.24,4.05
			c1.22,0.09,2.46,0.04,3.69,0.04c34.78,0,69.55,0.01,104.33,0c7.8,0,7.82-0.02,7.82-7.97c0.01-29.86,0-59.71,0.01-89.57
			c0-7.87,0.02-7.89,7.91-7.89c37.41-0.01,74.83,0.24,112.24-0.08c27.87-0.24,54.72,19.45,60.46,48.88
			c0.61,3.13,0.82,6.26,0.82,9.42c0.02,43.73,0.02,87.46,0.02,131.2c0,0.88,0.03,1.76-0.05,2.63c-0.31,3.26-0.88,3.98-4.23,4.07
			c-5.97,0.15-11.94,0.07-17.91,0.08c-1.41,0-2.82,0.06-4.21-0.05c-3.3-0.25-3.95-0.82-4.15-4.15c-0.18-2.98-0.07-5.97-0.08-8.95
			c-0.01-8.43,0.02-16.86-0.01-25.29c-0.02-6.57-0.26-6.82-6.85-6.82c-38.29-0.02-76.58-0.01-114.87-0.01
			C367.99,424.64,363.25,424.64,358.5,424.64z"/>
		<path class="st1" d="M328.99,319.44c-0.02,25.36-20.15,45.17-45.78,45.07c-24.75-0.1-45.08-20.68-45.02-45.58
			c0.07-24.93,20.71-45.19,46.02-45.19C307.85,273.74,329.86,294.35,328.99,319.44z"/>
	</g>
</g>
</svg>
