<?xml version="1.0" encoding="utf-8"?>
<!-- Generator: Adobe Illustrator 25.0.0, SVG Export Plug-In . SVG Version: 6.00 Build 0)  -->
<svg version="1.1" id="Vrstva_1" xmlns="http://www.w3.org/2000/svg" xmlns:xlink="http://www.w3.org/1999/xlink" x="0px" y="0px"
	 viewBox="0 0 738 1066" style="enable-background:new 0 0 738 1066;" xml:space="preserve">
<style type="text/css">
	.st0{fill:#FFFFFF;}
	.st1{fill:#694A52;}
</style>
<g>
	<g>
		<g>
			<path class="st0" d="M718.95,355.06c-0.37-16.08-1.74-31.82-4.07-46.78c-5.77-37.01-17.03-72.16-33.48-104.5
				c-17.81-35.01-41.46-66.83-70.31-94.57c-22.75-21.88-48.43-40.59-76.32-55.58c-50.24-27.01-105.81-40.99-165.16-41.53l-0.17,0
				l-0.17,0c-7.81,0.12-15.69,0.4-23.41,0.84c-16.15,0.92-32.3,3.1-49.4,6.68c-34.99,7.32-68.66,20.05-100.09,37.85
				c-40.01,22.66-74.76,52.63-103.3,89.08c-21.78,27.83-39.22,58.9-51.82,92.35C28.1,273.82,20.66,311.8,19.13,351.8
				c-0.55,14.46,0.6,29.67,3.74,49.3c4.95,30.97,13.33,63,25.62,97.92c10.01,28.44,20.8,52.99,32.99,75.04
				c18.14,32.8,36.91,65.93,55.07,97.96l6.74,11.89c23.62,41.69,47.94,84.43,72.28,127.02c36.06,63.11,73.35,128.36,112.37,192.58
				l1.1,1.81c7.93,13.06,16.14,26.57,25.53,39.37c2.35,3.2,6.71,9.15,14.93,9.23c0.06,0,0.12,0,0.18,0c8.08,0,12.63-5.93,14.82-8.79
				c1.03-1.35,1.94-2.67,2.74-3.84l0.45-0.65c8.95-12.99,16.89-26.08,23.49-37.17c25.24-42.45,50.43-85.81,74.86-128.87l26.56-46.8
				c19.11-33.68,38.22-67.37,57.33-101.05l7.5-13.22c17.77-31.32,35.55-62.64,53.35-93.94c3.37-5.93,6.88-11.97,10.28-17.8
				c6.82-11.72,13.87-23.83,20.39-36.13c22.76-42.93,39.44-89.86,49.58-139.49C715.28,405.41,719.53,380.73,718.95,355.06z"/>
		</g>
		<path class="st1" d="M704.77,355.38c-0.34-15.03-1.58-30.02-3.9-44.93c-5.47-35.11-16-68.59-32.11-100.25
			c-17.34-34.07-39.93-64.26-67.5-90.78c-21.98-21.15-46.41-38.91-73.21-53.31c-49.47-26.6-102.52-39.33-158.58-39.85
			c-7.63,0.12-15.22,0.39-22.82,0.82c-15.96,0.9-31.7,3.13-47.3,6.4c-33.89,7.09-65.88,19.25-96,36.31
			c-38.71,21.92-71.72,50.48-99.12,85.48c-21.11,26.97-37.63,56.54-49.71,88.61c-13.17,34.97-19.8,71.2-21.22,108.45
			c-0.6,15.64,1.11,31.12,3.57,46.52c5.22,32.63,14.04,64.33,24.99,95.46c8.83,25.1,19.15,49.6,32.02,72.88
			c20.31,36.72,41.05,73.21,61.74,109.72c24.01,42.37,48.09,84.69,72.25,126.97c36.81,64.42,73.64,128.84,112.18,192.25
			c8.28,13.62,16.5,27.28,25.94,40.15c3.36,4.58,3.93,4.54,7.26,0.2c0.97-1.26,1.86-2.59,2.76-3.9
			c8.14-11.82,15.65-24.05,22.98-36.38c25.34-42.62,50.25-85.49,74.72-128.62c27.96-49.28,55.92-98.57,83.89-147.85
			c20.28-35.73,40.55-71.46,60.85-107.17c10.15-17.86,20.85-35.42,30.47-53.56c22.71-42.83,38.52-88.2,48.22-135.69
			C701.73,400.9,705.3,378.33,704.77,355.38z M370.96,628.51C224.17,629.69,108.23,510.6,108.65,367
			c0.42-141.92,115.4-259.29,260.03-259.55c144.73-0.26,260.47,117.1,260.67,259.93C629.83,509.7,516.11,627.34,370.96,628.51z"/>
	</g>
	<path class="st1" d="M510.96,268.21c-3.18-0.48-6.34-0.59-9.52-0.59c-88.38,0-176.75,0-265.13,0c-1.59,0-3.19-0.03-4.78,0.04
		c-20.99,0.93-32.17,18.1-31.57,32.67c0.46,11.32,0.07,22.66,0.1,34c0.02,7.4,0.3,7.69,7.86,7.69c20.9,0.02,41.8,0,62.7,0.01
		c1.95,0,3.91-0.06,5.84,0.18c4.28,0.54,6.74,3.3,6.85,7.43c0.12,4.26-2.55,7.54-6.79,8.1c-1.92,0.25-3.89,0.19-5.83,0.19
		c-21.43,0.01-42.86-0.01-64.29,0.03c-5.87,0.01-6.3,0.46-6.32,6.41c-0.04,10.98-0.02,21.96-0.01,32.94c0,1.06,0.03,2.13,0.12,3.18
		c0.16,2.1,1.33,3.2,3.43,3.26c1.59,0.05,3.19,0.08,4.78,0.09c18.42,0.01,36.84,0,55.26,0.01c3.9,0,7.8-0.12,11.69,0.08
		c4.84,0.25,8.08,3.62,8.12,8.12c0.03,4.08-3.15,7.6-7.6,8.2c-1.74,0.23-3.54,0.15-5.3,0.15c-21.61,0.01-43.21-0.01-64.82,0.03
		c-4.92,0.01-5.58,0.51-5.61,4.88c-0.09,13.46-0.31,26.93,0.1,40.37c0.36,11.8,10.32,23.78,21.64,26.95
		c4.12,1.15,8.37,1.3,12.64,1.29c44.63-0.02,89.26-0.01,133.89-0.01c44.45,0,88.91,0,133.36-0.01c2.48,0,4.97,0.02,7.43-0.23
		c16.64-1.73,28.04-14.31,28.05-31.03c0.03-54.37-0.26-108.74,0.2-163.1C537.52,285.8,526.41,270.56,510.96,268.21z M418.04,454.71
		c-41.4,1.43-76.19-34.5-75.8-76.25c0.37-39.28,34.05-75.24,76.08-74.78c37.44,0.41,74.84,30.58,74.65,76.19
		C492.78,426.38,454.36,455.89,418.04,454.71z"/>
	<path class="st1" d="M373.37,252.76c14.88,0.03,29.75,0.01,44.63,0.01c0,0,0-0.01,0-0.01c15.58,0,31.17,0.05,46.75-0.03
		c4.94-0.02,5.87-1.29,5.31-6.15c-1.03-8.87-10.16-16.66-18.62-16.53c-22.13,0.33-44.28,0.3-66.41,0.02
		c-9.18-0.12-16.15,6.97-18.2,13.68C364.66,250.85,365.97,252.75,373.37,252.76z"/>
	<path class="st1" d="M417.98,320.13c-34.79-0.15-59.69,27.91-59.55,59.32c0.13,31.27,23.62,58.94,59.1,59.17
		c34.98,0.22,59.47-28.31,59.1-59.03C477.13,348.08,452.31,320.27,417.98,320.13z"/>
</g>
</svg>
