<?xml version="1.0" encoding="utf-8"?>
<!-- Generator: Adobe Illustrator 25.0.0, SVG Export Plug-In . SVG Version: 6.00 Build 0)  -->
<svg version="1.1" id="Vrstva_1" xmlns="http://www.w3.org/2000/svg" xmlns:xlink="http://www.w3.org/1999/xlink" x="0px" y="0px"
	 viewBox="0 0 1016.51 1470.64" style="enable-background:new 0 0 1016.51 1470.64;" xml:space="preserve">
<style type="text/css">
	.st0{fill:#FFFFFF;}
	.st1{fill:#694A52;}
</style>
<g>
	<g>
		<g>
			<path class="st0" d="M758.22,608.22c-0.26-11.49-1.24-22.73-2.91-33.42c-4.12-26.43-12.16-51.55-23.91-74.64
				c-12.72-25.01-29.62-47.73-50.22-67.55c-16.25-15.63-34.59-28.99-54.52-39.7c-35.89-19.3-75.58-29.28-117.97-29.67l-0.12,0
				l-0.12,0c-5.58,0.09-11.2,0.29-16.72,0.6c-11.53,0.65-23.07,2.21-35.28,4.77c-24.99,5.23-49.04,14.32-71.49,27.04
				c-28.58,16.19-53.4,37.59-73.78,63.63c-15.56,19.88-28.01,42.07-37.01,65.97c-9.4,24.95-14.71,52.08-15.8,80.65
				c-0.39,10.33,0.43,21.19,2.67,35.21c3.54,22.12,9.52,45,18.3,69.94c7.15,20.32,14.86,37.85,23.56,53.6
				c12.96,23.43,26.37,47.09,39.34,69.97l4.81,8.49c16.87,29.78,34.24,60.31,51.63,90.73c25.76,45.08,52.39,91.69,80.27,137.56
				l0.78,1.29c5.67,9.33,11.53,18.98,18.24,28.12c1.68,2.28,4.79,6.53,10.67,6.6c0.04,0,0.08,0,0.13,0c5.77,0,9.02-4.24,10.59-6.28
				c0.74-0.96,1.39-1.91,1.96-2.74l0.32-0.47c6.39-9.28,12.07-18.63,16.78-26.55c18.03-30.32,36.02-61.29,53.47-92.05l18.97-33.43
				c13.65-24.06,27.3-48.12,40.95-72.18l5.36-9.44c12.7-22.37,25.39-44.74,38.1-67.1c2.41-4.24,4.92-8.55,7.34-12.71
				c4.87-8.37,9.91-17.02,14.56-25.8c16.26-30.66,28.17-64.19,35.42-99.64C755.6,644.18,758.64,626.56,758.22,608.22z"/>
		</g>
		<path class="st1" d="M748.09,608.45c-0.25-10.74-1.13-21.45-2.79-32.09c-3.91-25.08-11.43-48.99-22.93-71.61
			c-12.38-24.34-28.52-45.9-48.21-64.85c-15.7-15.1-33.15-27.79-52.29-38.08c-35.34-19-73.23-28.09-113.27-28.46
			c-5.45,0.08-10.87,0.28-16.3,0.59c-11.4,0.65-22.64,2.24-33.78,4.57c-24.2,5.06-47.06,13.75-68.57,25.94
			c-27.65,15.66-51.23,36.06-70.8,61.06c-15.08,19.27-26.88,40.38-35.51,63.29c-9.41,24.98-14.14,50.86-15.16,77.47
			c-0.43,11.17,0.79,22.23,2.55,33.23c3.73,23.31,10.03,45.95,17.85,68.18c6.31,17.93,13.68,35.43,22.87,52.06
			c14.51,26.23,29.32,52.29,44.1,78.37c17.15,30.26,34.35,60.49,51.61,90.69c26.29,46.02,52.6,92.03,80.13,137.32
			c5.91,9.73,11.79,19.49,18.53,28.68c2.4,3.27,2.81,3.24,5.19,0.15c0.69-0.9,1.33-1.85,1.97-2.79
			c5.81-8.44,11.18-17.18,16.41-25.98c18.1-30.44,35.89-61.07,53.37-91.87c19.97-35.2,39.94-70.41,59.92-105.61
			c14.48-25.52,28.96-51.04,43.47-76.55c7.25-12.75,14.89-25.3,21.76-38.26c16.22-30.59,27.51-63,34.44-96.92
			C745.92,640.96,748.47,624.84,748.09,608.45z M509.65,803.54c-104.84,0.84-187.66-84.22-187.36-186.79
			c0.3-101.37,82.43-185.21,185.73-185.39C611.4,431.17,694.07,515,694.22,617.02C694.56,718.68,613.34,802.71,509.65,803.54z"/>
	</g>
	<path class="st1" d="M609.65,546.19c-2.27-0.34-4.53-0.42-6.8-0.42c-63.13,0-126.25,0-189.38,0c-1.14,0-2.28-0.02-3.42,0.03
		c-14.99,0.66-22.98,12.93-22.55,23.33c0.33,8.08,0.05,16.19,0.07,24.28c0.01,5.28,0.22,5.49,5.62,5.5
		c14.93,0.01,29.86,0,44.78,0.01c1.39,0,2.79-0.04,4.17,0.13c3.06,0.38,4.82,2.36,4.89,5.31c0.08,3.05-1.82,5.39-4.85,5.78
		c-1.37,0.18-2.78,0.14-4.17,0.14c-15.31,0.01-30.61-0.01-45.92,0.02c-4.2,0.01-4.5,0.33-4.52,4.58
		c-0.03,7.84-0.01,15.69-0.01,23.53c0,0.76,0.02,1.52,0.08,2.27c0.12,1.5,0.95,2.28,2.45,2.33c1.14,0.04,2.28,0.06,3.41,0.06
		c13.16,0,26.31,0,39.47,0c2.78,0,5.57-0.08,8.35,0.06c3.46,0.18,5.77,2.59,5.8,5.8c0.02,2.92-2.25,5.43-5.43,5.85
		c-1.25,0.17-2.53,0.11-3.79,0.11c-15.43,0.01-30.87-0.01-46.3,0.02c-3.52,0.01-3.99,0.36-4.01,3.49
		c-0.06,9.61-0.22,19.23,0.07,28.84c0.26,8.43,7.37,16.98,15.46,19.25c2.94,0.82,5.98,0.93,9.03,0.92
		c31.88-0.01,63.76-0.01,95.64-0.01c31.75,0,63.51,0,95.26-0.01c1.77,0,3.55,0.02,5.31-0.17c11.89-1.24,20.03-10.22,20.04-22.17
		c0.02-38.83-0.19-77.67,0.14-116.5C628.63,558.75,620.69,547.86,609.65,546.19z M543.28,679.4c-29.57,1.02-54.42-24.65-54.14-54.47
		c0.26-28.05,24.32-53.74,54.34-53.41c26.75,0.29,53.46,21.84,53.32,54.42C596.67,659.16,569.23,680.24,543.28,679.4z"/>
	<path class="st1" d="M511.37,535.15c10.63,0.02,21.25,0.01,31.88,0.01c0,0,0,0,0-0.01c11.13,0,22.26,0.03,33.4-0.02
		c3.53-0.02,4.19-0.92,3.79-4.39c-0.73-6.33-7.26-11.9-13.3-11.81c-15.81,0.24-31.63,0.22-47.44,0.01c-6.55-0.08-11.53,4.98-13,9.77
		C505.16,533.79,506.09,535.14,511.37,535.15z"/>
	<path class="st1" d="M543.24,583.27c-24.85-0.11-42.63,19.94-42.54,42.37c0.09,22.34,16.87,42.1,42.21,42.26
		c24.98,0.16,42.48-20.22,42.21-42.16C585.49,603.24,567.76,583.37,543.24,583.27z"/>
</g>
</svg>
