<svg width="62" height="64" viewBox="0 0 62 64" fill="none" xmlns="http://www.w3.org/2000/svg">
<g clip-path="url(#clip0)">
<path d="M29.6439 41.7596C23.6225 41.7579 17.601 41.7494 11.5796 41.7613C8.27623 41.7681 5.41431 44.4288 5.14813 47.7005C4.83895 51.491 6.9949 54.6228 10.4074 55.3071C10.8802 55.401 11.3746 55.3976 11.859 55.3976C23.6853 55.4027 35.5132 55.401 47.3395 55.4027C47.9893 55.4027 48.6457 55.4146 49.264 55.1962C49.8311 54.9965 50.0791 55.203 50.2792 55.7594C50.7487 57.0633 50.7487 57.1196 49.4409 57.4319C48.7829 57.5889 48.1149 57.6743 47.4354 57.6726C35.5546 57.6692 23.6737 57.6777 11.7929 57.6657C7.53719 57.6623 4.05031 54.7883 3.21538 50.508C2.60034 47.3541 3.28317 44.4971 5.51351 42.1777C5.9781 41.6948 6.01778 41.3039 5.78797 40.6946C1.89271 30.3608 4.27186 18.921 12.031 11.299C16.8636 6.55107 22.647 4.13784 29.3331 4.00472C41.5644 3.75896 52.6352 13.1269 54.8242 26.1334C55.6575 31.0844 55.2557 35.9211 53.4552 40.5991C53.189 41.2886 53.2271 41.6965 53.7727 42.2614C56.1783 44.7463 56.8875 48.8372 55.5616 52.0798C55.4343 52.3921 55.378 52.9007 54.9068 52.7932C54.3645 52.6703 53.766 52.5611 53.3692 52.1174C53.1725 51.8989 53.4668 51.5968 53.561 51.3442C54.5183 48.7621 54.2521 46.3266 52.5823 44.1797C51.3952 42.6539 49.8096 41.7647 47.8703 41.763C41.7943 41.7562 35.7199 41.7613 29.6439 41.7596ZM46.4203 31.5316C46.4203 31.5333 46.4203 31.5333 46.4203 31.535C47.905 31.535 49.3897 31.5418 50.8744 31.5316C51.4332 31.5281 51.6051 31.7483 51.5605 32.3593C51.3902 34.7145 50.9223 36.9895 50.0857 39.1825C49.9468 39.5478 49.9402 39.7867 50.3602 39.9778C51.2298 40.3738 51.291 40.3653 51.6332 39.4181C53.0981 35.3664 53.4569 31.1902 52.8088 26.9321C50.9223 14.5588 40.3311 5.55608 28.4056 6.27459C24.0275 6.53742 20.0447 7.8908 16.4338 10.4491C7.21645 16.9788 3.80066 28.8589 7.61159 39.529C7.79015 40.0273 7.94226 40.3943 8.5821 40.1024C9.13597 39.8498 9.31122 39.6058 9.05991 38.9624C8.25639 36.911 7.87613 34.7486 7.65623 32.5504C7.58514 31.8405 7.78354 31.5145 8.52423 31.5213C11.277 31.5486 14.0315 31.5418 16.7859 31.5247C17.396 31.5213 17.6192 31.7483 17.6572 32.4105C17.7812 34.5489 17.8986 36.6891 18.264 38.8054C18.436 39.7969 19.1486 39.4454 19.671 39.442C20.2844 39.4385 20.091 38.9368 20.0347 38.5596C19.7338 36.5509 19.5371 34.5353 19.4643 32.5009C19.4379 31.7483 19.7107 31.5145 20.4018 31.5213C22.8851 31.5486 25.37 31.5486 27.8534 31.5213C28.5411 31.5145 28.8172 31.7449 28.804 32.4975C28.7676 34.5302 28.7974 36.5628 28.7891 38.5972C28.7875 39.0921 28.8123 39.4744 29.4554 39.4846C30.125 39.4966 30.1912 39.1245 30.1879 38.575C30.1746 36.5133 30.1961 34.4517 30.1763 32.3917C30.1697 31.7773 30.3929 31.5247 30.9815 31.5281C33.5458 31.5418 36.1117 31.5435 38.6761 31.5264C39.3093 31.5213 39.5176 31.7876 39.506 32.4395C39.4697 34.4482 39.2266 36.4314 38.9687 38.4162C38.9175 38.8156 38.5752 39.3361 39.3159 39.4641C40.26 39.6246 40.5691 39.4351 40.7229 38.6159C41.0999 36.6174 41.2189 34.5865 41.3098 32.5607C41.3479 31.7176 41.6322 31.4974 42.3713 31.5196C43.7187 31.5606 45.0695 31.5316 46.4203 31.5316Z" fill="white"/>
<path d="M27.7244 48.8627C27.9972 47.6903 28.3014 46.5246 28.5279 45.3419C28.6602 44.6541 29.0289 44.4954 29.6191 44.5329C30.2193 44.5722 30.8723 44.3708 31.0592 45.3197C31.2873 46.4768 31.6147 47.6118 31.9189 48.8406C32.2049 48.5982 32.2082 48.3149 32.2678 48.064C32.4843 47.1612 32.691 46.255 32.9125 45.3538C33.0861 44.6456 34.3857 44.1882 34.9379 44.6336C35.1578 44.8111 35.0784 45.0381 35.0255 45.2531C34.4072 47.709 33.7789 50.1615 33.1672 52.6191C33.0465 53.1055 32.7968 53.3376 32.3058 53.2932C32.0115 53.2676 31.7089 53.2625 31.4163 53.295C30.8723 53.3547 30.6425 53.0646 30.5235 52.556C30.2573 51.4176 29.968 50.2844 29.6323 48.9276C29.3232 50.2486 29.0355 51.3323 28.8222 52.4331C28.6982 53.0765 28.4171 53.3769 27.7823 53.295C27.569 53.2676 27.3458 53.2625 27.1358 53.2967C26.4166 53.4127 26.1488 53.0321 25.9851 52.3495C25.3932 49.897 24.7534 47.4564 23.9647 45.0057C23.5266 46.7055 23.0884 48.4054 22.6503 50.1052C22.4403 50.9227 22.2039 51.7351 22.0287 52.5594C21.9146 53.0936 21.6682 53.3513 21.1375 53.2932C20.9771 53.2762 20.8102 53.2694 20.6531 53.295C19.838 53.4247 19.423 53.1038 19.2775 52.2163C19.1105 51.1923 18.803 50.1939 18.431 49.1648C18.1814 50.2298 17.892 51.2862 17.6969 52.3614C17.5663 53.085 17.2472 53.3922 16.5479 53.2984C16.2552 53.2591 15.9543 53.2779 15.6584 53.2915C15.2748 53.3086 15.0566 53.1328 14.9574 52.7454C14.3192 50.2366 13.676 47.7295 13.0329 45.2224C12.9138 44.7582 13.0445 44.5073 13.5355 44.5432C13.5884 44.5466 13.643 44.5415 13.6975 44.5432C15.6815 44.5773 15.3558 44.2513 15.8402 46.2959C16.0337 47.1168 16.2271 47.9394 16.4222 48.7603C16.4404 48.8371 16.4817 48.9088 16.5363 49.0385C16.819 47.8319 17.1298 46.6902 17.3415 45.5279C17.4787 44.7736 17.7978 44.4886 18.5368 44.5227C19.2213 44.5534 19.7834 44.5193 19.9455 45.4716C20.1422 46.6219 20.5026 47.7432 20.9342 48.8764C21.2053 47.7073 21.4913 46.5417 21.7393 45.3675C21.8633 44.7804 22.1212 44.5039 22.733 44.5312C23.7299 44.5739 24.7319 44.5875 25.7288 44.5261C26.4249 44.4834 26.6828 44.806 26.8134 45.4562C27.0399 46.586 27.3226 47.7039 27.5806 48.8269C27.6252 48.8371 27.6748 48.8508 27.7244 48.8627Z" fill="white"/>
<path d="M38.8958 48.7518C39.1554 47.6425 39.4645 46.5434 39.6547 45.4204C39.7886 44.637 40.2003 44.5039 40.8467 44.5278C41.4816 44.55 42.0685 44.4647 42.2355 45.3931C42.4472 46.5656 42.7861 47.7142 43.2176 48.8645C43.5102 47.6408 43.793 46.4154 44.0988 45.1951C44.2443 44.6131 45.7555 44.236 46.1473 44.6712C46.3011 44.8418 46.2333 45.0398 46.1853 45.2293C45.5571 47.7125 44.9238 50.194 44.3022 52.6772C44.1865 53.138 43.9302 53.3325 43.4821 53.2916C43.2953 53.2745 43.1002 53.266 42.9167 53.295C42.1347 53.4161 41.7412 53.0987 41.5924 52.2573C41.4155 51.2487 41.1113 50.2639 40.7029 49.2792C40.4648 50.2827 40.1771 51.276 40.0052 52.2932C39.868 53.0987 39.5009 53.4161 38.742 53.2967C38.5304 53.2642 38.3089 53.2694 38.0956 53.295C37.5616 53.3564 37.3218 53.0833 37.1929 52.5679C36.596 50.1649 35.9843 47.7637 35.361 45.3675C35.2138 44.7992 35.3048 44.5244 35.938 44.5346C38.1088 44.5671 37.626 44.3333 38.1253 46.243C38.3436 47.0742 38.5288 47.9155 38.7288 48.7518C38.785 48.7501 38.8396 48.7518 38.8958 48.7518Z" fill="white"/>
<path d="M60.252 64.1323C59.9924 64.0964 59.8635 63.9002 59.7147 63.7449C58.7392 62.7311 57.7307 61.7481 56.8114 60.6797C56.246 60.0226 55.9947 60.2121 55.6871 60.8726C55.3912 61.504 55.0357 62.1065 54.6984 62.7158C54.6075 62.8796 54.5364 63.1134 54.3033 63.0827C54.1231 63.0571 54.0867 62.8472 54.0321 62.697C52.9046 59.526 51.7836 56.3533 50.6577 53.1823C50.4857 52.6959 50.623 52.5304 51.0909 52.713C54.1446 53.9094 57.1983 55.1074 60.2503 56.3089C60.6703 56.4745 60.6819 56.6963 60.29 56.9267C59.632 57.3125 58.9789 57.7118 58.306 58.0685C57.8051 58.3347 57.7571 58.5925 58.1671 59.0106C59.1525 60.0124 60.09 61.0688 61.0968 62.0485C61.6209 62.5587 61.6639 62.9427 61.0902 63.3984C60.7976 63.6288 60.6207 64.0145 60.252 64.1323Z" fill="#FFCCCC"/>
<path d="M46.4947 30.0604C45.0381 30.0604 43.5815 30.0485 42.1249 30.0672C41.6008 30.0741 41.3545 29.9085 41.3231 29.3044C41.1412 25.8398 40.8204 22.3906 39.9144 19.0336C39.7888 18.5694 39.878 18.3117 40.3972 18.2144C42.4655 17.8236 44.5272 17.3986 46.5873 16.9686C47.0039 16.8815 47.242 17.0641 47.4652 17.3901C49.9303 20.9929 51.2546 25.0155 51.5721 29.4204C51.6134 30.0024 51.286 30.0638 50.8644 30.0621C49.4079 30.057 47.9513 30.0604 46.4947 30.0604Z" fill="white"/>
<path d="M12.6378 30.0604C11.2341 30.0604 9.8321 30.0433 8.42842 30.0689C7.8266 30.0809 7.6034 29.8317 7.6497 29.2139C7.97375 24.8619 9.33114 20.9093 11.7731 17.3628C11.9996 17.0351 12.2427 16.9669 12.6031 17.0812C14.5143 17.6888 16.4686 18.1086 18.4427 18.4192C18.9684 18.5029 19.1371 18.7264 18.9932 19.2709C18.1302 22.5511 17.7962 25.9132 17.6375 29.2975C17.6094 29.9 17.3746 30.0741 16.8455 30.0655C15.4435 30.0485 14.0415 30.0604 12.6378 30.0604Z" fill="white"/>
<path d="M30.1813 24.5598C30.1813 23.0648 30.2044 21.5697 30.1714 20.0764C30.1548 19.3733 30.4309 19.136 31.0757 19.1275C33.0978 19.1002 35.1099 18.9261 37.1121 18.6343C37.7337 18.5438 38.0429 18.7537 38.2033 19.4074C38.982 22.5886 39.3771 25.8193 39.5028 29.0961C39.5309 29.8385 39.2928 30.0843 38.5835 30.0741C36.0771 30.0399 33.569 30.0433 31.0608 30.0724C30.383 30.0809 30.1598 29.8112 30.173 29.1286C30.2011 27.6062 30.1813 26.0839 30.1813 24.5598Z" fill="white"/>
<path d="M28.7891 24.6451C28.7891 26.1709 28.7743 27.695 28.7958 29.2207C28.804 29.8351 28.5808 30.0741 27.9856 30.0689C25.4213 30.0502 22.8553 30.0502 20.291 30.0689C19.719 30.0723 19.4495 29.8897 19.4677 29.2463C19.5569 25.932 19.9769 22.6705 20.787 19.4637C20.8961 19.0285 21.0962 18.7674 21.5806 18.8288C23.6737 19.0917 25.7768 19.177 27.8815 19.148C28.599 19.1377 28.8189 19.4364 28.8024 20.1549C28.7627 21.6517 28.7891 23.1484 28.7891 24.6451Z" fill="white"/>
<path d="M28.7874 12.8367C28.7874 14.1611 28.7692 15.4855 28.7957 16.8098C28.8089 17.4481 28.6105 17.7127 27.9607 17.7075C26.1288 17.6956 24.3003 17.6154 22.4733 17.4754C21.4483 17.3969 21.3821 17.2775 21.7409 16.303C22.68 13.7549 23.8902 11.386 25.8362 9.49847C26.4579 8.89602 27.1572 8.44034 27.9392 8.10583C28.5196 7.85836 28.799 7.99319 28.7907 8.69293C28.7758 10.0753 28.7874 11.456 28.7874 12.8367Z" fill="white"/>
<path d="M30.1813 12.7684C30.183 11.4134 30.1929 10.0583 30.178 8.70317C30.1697 8.01197 30.4359 7.86349 31.0295 8.10925C32.162 8.57858 33.0747 9.3517 33.8815 10.2801C35.434 12.0636 36.4392 14.1764 37.2609 16.4036C37.4642 16.9566 37.3518 17.1324 36.7814 17.2092C34.9065 17.4635 33.0201 17.5181 31.1386 17.6819C30.3698 17.7485 30.1449 17.4191 30.1681 16.6631C30.2078 15.366 30.1797 14.0672 30.1813 12.7684Z" fill="white"/>
<path d="M34.5957 8.48473C35.9167 8.63662 36.9633 9.07523 37.9933 9.52409C40.8172 10.7563 43.2989 12.5295 45.4333 14.8267C46.0219 15.4599 46.0021 15.564 45.177 15.7364C43.4328 16.0982 41.6769 16.4037 39.9343 16.7689C39.2779 16.9071 39.1539 16.4532 38.9886 15.9992C38.2396 13.9307 37.3088 11.9629 36.0143 10.2033C35.6109 9.65379 35.1496 9.15203 34.5957 8.48473Z" fill="white"/>
<path d="M24.1715 8.73048C23.8276 9.14008 23.4887 9.52408 23.1696 9.92686C21.6915 11.7991 20.6979 13.9512 19.9274 16.2159C19.7059 16.8696 19.4215 17.1256 18.7602 16.9959C17.0936 16.6682 15.427 16.3542 13.7902 15.8797C13.2694 15.7278 13.157 15.5452 13.5555 15.0998C16.3678 11.9578 19.7555 9.81251 23.7135 8.64856C23.7896 8.62638 23.8723 8.61784 23.9516 8.62126C23.9996 8.62467 24.0442 8.66563 24.1715 8.73048Z" fill="white"/>
</g>
<defs>
<clipPath id="clip0">
<rect width="62" height="64" fill="white"/>
</clipPath>
</defs>
</svg>
