<?xml version="1.0" encoding="utf-8"?>
<!-- Generator: Adobe Illustrator 25.0.0, SVG Export Plug-In . SVG Version: 6.00 Build 0)  -->
<svg version="1.1" id="Vrstva_1" xmlns="http://www.w3.org/2000/svg" xmlns:xlink="http://www.w3.org/1999/xlink" x="0px" y="0px"
	 viewBox="0 0 375 375" style="enable-background:new 0 0 375 375;" xml:space="preserve">
<g>
	<path d="M169.6,232.74c-36.42-0.01-72.84-0.06-109.26,0.01c-19.98,0.04-37.29,15.63-38.9,34.8c-1.87,22.21,11.17,40.56,31.81,44.57
		c2.86,0.55,5.85,0.53,8.78,0.53c71.53,0.03,143.07,0.02,214.6,0.03c3.93,0,7.9,0.07,11.64-1.21c3.43-1.17,4.93,0.04,6.14,3.3
		c2.84,7.64,2.84,7.97-5.07,9.8c-3.98,0.92-8.02,1.42-12.13,1.41c-71.86-0.02-143.72,0.03-215.58-0.04
		C35.89,325.92,14.8,309.08,9.75,284c-3.72-18.48,0.41-35.22,13.9-48.81c2.81-2.83,3.05-5.12,1.66-8.69
		C1.75,165.95,16.14,98.92,63.07,54.26C92.3,26.44,127.28,12.3,167.72,11.52c73.98-1.44,140.94,53.45,154.18,129.66
		c5.04,29.01,2.61,57.35-8.28,84.76c-1.61,4.04-1.38,6.43,1.92,9.74c14.55,14.56,18.84,38.53,10.82,57.53
		c-0.77,1.83-1.11,4.81-3.96,4.18c-3.28-0.72-6.9-1.36-9.3-3.96c-1.19-1.28,0.59-3.05,1.16-4.53c5.79-15.13,4.18-29.4-5.92-41.98
		c-7.18-8.94-16.77-14.15-28.5-14.16C243.09,232.72,206.35,232.75,169.6,232.74z M271.07,172.81c0,0.01,0,0.01,0,0.02
		c8.98,0,17.96,0.04,26.94-0.02c3.38-0.02,4.42,1.27,4.15,4.85c-1.03,13.8-3.86,27.13-8.92,39.98c-0.84,2.14-0.88,3.54,1.66,4.66
		c5.26,2.32,5.63,2.27,7.7-3.28c8.86-23.74,11.03-48.21,7.11-73.16c-11.41-72.5-75.47-125.25-147.6-121.04
		c-26.48,1.54-50.57,9.47-72.41,24.46C33.95,87.54,13.29,157.15,36.34,219.67c1.08,2.92,2,5.07,5.87,3.36
		c3.35-1.48,4.41-2.91,2.89-6.68c-4.86-12.02-7.16-24.69-8.49-37.57c-0.43-4.16,0.77-6.07,5.25-6.03
		c16.65,0.16,33.31,0.12,49.97,0.02c3.69-0.02,5.04,1.31,5.27,5.19c0.75,12.53,1.46,25.07,3.67,37.47c1.04,5.81,5.35,3.75,8.51,3.73
		c3.71-0.02,2.54-2.96,2.2-5.17c-1.82-11.77-3.01-23.58-3.45-35.5c-0.16-4.41,1.49-5.78,5.67-5.74c15.02,0.16,30.05,0.16,45.07,0
		c4.16-0.04,5.83,1.31,5.75,5.72c-0.22,11.91-0.04,23.82-0.09,35.74c-0.01,2.9,0.14,5.14,4.03,5.2c4.05,0.07,4.45-2.11,4.43-5.33
		c-0.08-12.08,0.05-24.16-0.07-36.23c-0.04-3.6,1.31-5.08,4.87-5.06c15.51,0.08,31.03,0.09,46.54-0.01
		c3.83-0.03,5.09,1.53,5.02,5.35c-0.22,11.77-1.69,23.39-3.25,35.02c-0.31,2.34-2.38,5.39,2.1,6.14c5.71,0.94,7.58-0.17,8.51-4.97
		c2.28-11.71,3-23.61,3.55-35.48c0.23-4.94,1.95-6.23,6.42-6.1C254.73,172.98,262.9,172.81,271.07,172.81z" fill="white"/>
	<path d="M157.99,274.36c1.65-6.87,3.49-13.7,4.86-20.63c0.8-4.03,3.03-4.96,6.6-4.74c3.63,0.23,7.58-0.95,8.71,4.61
		c1.38,6.78,3.36,13.43,5.2,20.63c1.73-1.42,1.75-3.08,2.11-4.55c1.31-5.29,2.56-10.6,3.9-15.88c1.05-4.15,8.91-6.83,12.25-4.22
		c1.33,1.04,0.85,2.37,0.53,3.63c-3.74,14.39-7.54,28.76-11.24,43.16c-0.73,2.85-2.24,4.21-5.21,3.95
		c-1.78-0.15-3.61-0.18-5.38,0.01c-3.29,0.35-4.68-1.35-5.4-4.33c-1.61-6.67-3.36-13.31-5.39-21.26c-1.87,7.74-3.61,14.09-4.9,20.54
		c-0.75,3.77-2.45,5.53-6.29,5.05c-1.29-0.16-2.64-0.19-3.91,0.01c-4.35,0.68-5.97-1.55-6.96-5.55
		c-3.58-14.37-7.45-28.67-12.22-43.03c-2.65,9.96-5.3,19.92-7.95,29.88c-1.27,4.79-2.7,9.55-3.76,14.38
		c-0.69,3.13-2.18,4.64-5.39,4.3c-0.97-0.1-1.98-0.14-2.93,0.01c-4.93,0.76-7.44-1.12-8.32-6.32c-1.01-6-2.87-11.85-5.12-17.88
		c-1.51,6.24-3.26,12.43-4.44,18.73c-0.79,4.24-2.72,6.04-6.95,5.49c-1.77-0.23-3.59-0.12-5.38-0.04c-2.32,0.1-3.64-0.93-4.24-3.2
		c-3.86-14.7-7.75-29.39-11.64-44.08c-0.72-2.72,0.07-4.19,3.04-3.98c0.32,0.02,0.65-0.01,0.98,0c12,0.2,10.03-1.71,12.96,10.27
		c1.17,4.81,2.34,9.63,3.52,14.44c0.11,0.45,0.36,0.87,0.69,1.63c1.71-7.07,3.59-13.76,4.87-20.57c0.83-4.42,2.76-6.09,7.23-5.89
		c4.14,0.18,7.54-0.02,8.52,5.56c1.19,6.74,3.37,13.31,5.98,19.95c1.64-6.85,3.37-13.68,4.87-20.56c0.75-3.44,2.31-5.06,6.01-4.9
		c6.03,0.25,12.09,0.33,18.12-0.03c4.21-0.25,5.77,1.64,6.56,5.45c1.37,6.62,3.08,13.17,4.64,19.75
		C157.39,274.21,157.69,274.29,157.99,274.36z" fill="#98bfad"/>
	<path d="M225.56,273.71c1.57-6.5,3.44-12.94,4.59-19.52c0.81-4.59,3.3-5.37,7.21-5.23c3.84,0.13,7.39-0.37,8.4,5.07
		c1.28,6.87,3.33,13.6,5.94,20.34c1.77-7.17,3.48-14.35,5.33-21.5c0.88-3.41,10.02-5.62,12.39-3.07c0.93,1,0.52,2.16,0.23,3.27
		c-3.8,14.55-7.63,29.09-11.39,43.64c-0.7,2.7-2.25,3.84-4.96,3.6c-1.13-0.1-2.31-0.15-3.42,0.02c-4.73,0.71-7.11-1.15-8.01-6.08
		c-1.07-5.91-2.91-11.68-5.38-17.45c-1.44,5.88-3.18,11.7-4.22,17.66c-0.83,4.72-3.05,6.58-7.64,5.88
		c-1.28-0.19-2.62-0.16-3.91-0.01c-3.23,0.36-4.68-1.24-5.46-4.26c-3.61-14.08-7.31-28.15-11.08-42.19
		c-0.89-3.33-0.34-4.94,3.49-4.88c13.13,0.19,10.21-1.18,13.23,10.01c1.32,4.87,2.44,9.8,3.65,14.7
		C224.89,273.7,225.22,273.71,225.56,273.71z" fill="#98bfad"/>
	<path d="M354.73,363.83c-1.57-0.21-2.35-1.36-3.25-2.27c-5.9-5.94-12-11.7-17.56-17.96c-3.42-3.85-4.94-2.74-6.8,1.13
		c-1.79,3.7-3.94,7.23-5.98,10.8c-0.55,0.96-0.98,2.33-2.39,2.15c-1.09-0.15-1.31-1.38-1.64-2.26
		c-6.82-18.58-13.6-37.17-20.41-55.75c-1.04-2.85-0.21-3.82,2.62-2.75c18.47,7.01,36.94,14.03,55.4,21.07
		c2.54,0.97,2.61,2.27,0.24,3.62c-3.98,2.26-7.93,4.6-12,6.69c-3.03,1.56-3.32,3.07-0.84,5.52c5.96,5.87,11.63,12.06,17.72,17.8
		c3.17,2.99,3.43,5.24-0.04,7.91C358.03,360.88,356.96,363.14,354.73,363.83z" fill="pink"/>
	<path d="M271.52,164.19c-8.81,0-17.62-0.07-26.43,0.04c-3.17,0.04-4.66-0.93-4.85-4.47c-1.1-20.3-3.04-40.51-8.52-60.18
		c-0.76-2.72-0.22-4.23,2.92-4.8c12.51-2.29,24.98-4.78,37.44-7.3c2.52-0.51,3.96,0.56,5.31,2.47
		c14.91,21.11,22.92,44.68,24.84,70.49c0.25,3.41-1.73,3.77-4.28,3.76C289.14,164.17,280.33,164.19,271.52,164.19z" fill="white"/>
	<path d="M66.74,164.19c-8.49,0-16.97-0.1-25.46,0.05c-3.64,0.07-4.99-1.39-4.71-5.01c1.96-25.5,10.17-48.66,24.94-69.44
		c1.37-1.92,2.84-2.32,5.02-1.65c11.56,3.56,23.38,6.02,35.32,7.84c3.18,0.49,4.2,1.8,3.33,4.99c-5.22,19.22-7.24,38.92-8.2,58.75
		c-0.17,3.53-1.59,4.55-4.79,4.5C83.71,164.12,75.23,164.19,66.74,164.19z" fill="white"/>
	<path d="M172.85,131.96c0-8.76,0.14-17.52-0.06-26.27c-0.1-4.12,1.57-5.51,5.47-5.56c12.23-0.16,24.4-1.18,36.51-2.89
		c3.76-0.53,5.63,0.7,6.6,4.53c4.71,18.64,7.1,37.57,7.86,56.77c0.17,4.35-1.27,5.79-5.56,5.73c-15.16-0.2-30.33-0.18-45.5-0.01
		c-4.1,0.05-5.45-1.53-5.37-5.53C172.97,149.81,172.85,140.89,172.85,131.96z" fill="white"/>
	<path d="M164.43,132.46c0,8.94-0.09,17.87,0.04,26.81c0.05,3.6-1.3,5-4.9,4.97c-15.51-0.11-31.03-0.11-46.54,0
		c-3.46,0.02-5.09-1.05-4.98-4.82c0.54-19.42,3.08-38.53,7.98-57.32c0.66-2.55,1.87-4.08,4.8-3.72c12.66,1.54,25.38,2.04,38.11,1.87
		c4.34-0.06,5.67,1.69,5.57,5.9C164.27,114.92,164.43,123.69,164.43,132.46z" fill="white"/>
	<path d="M164.42,63.27c0,7.76-0.11,15.52,0.05,23.28c0.08,3.74-1.12,5.29-5.05,5.26c-11.08-0.07-22.14-0.54-33.19-1.36
		c-6.2-0.46-6.6-1.16-4.43-6.87c5.68-14.93,13-28.81,24.77-39.87c3.76-3.53,7.99-6.2,12.72-8.16c3.51-1.45,5.2-0.66,5.15,3.44
		C164.35,47.09,164.42,55.18,164.42,63.27z" fill="white"/>
	<path d="M172.85,62.87c0.01-7.94,0.07-15.88-0.02-23.82c-0.05-4.05,1.56-4.92,5.15-3.48c6.85,2.75,12.37,7.28,17.25,12.72
		c9.39,10.45,15.47,22.83,20.44,35.88c1.23,3.24,0.55,4.27-2.9,4.72c-11.34,1.49-22.75,1.81-34.13,2.77
		c-4.65,0.39-6.01-1.54-5.87-5.97C173.01,78.09,172.84,70.48,172.85,62.87z" fill="white"/>
	<path d="M199.55,37.77c7.99,0.89,14.32,3.46,20.55,6.09c17.08,7.22,32.09,17.61,45,31.07c3.56,3.71,3.44,4.32-1.55,5.33
		c-10.55,2.12-21.17,3.91-31.71,6.05c-3.97,0.81-4.72-1.85-5.72-4.51c-4.53-12.12-10.16-23.65-17.99-33.96
		C205.69,44.62,202.9,41.68,199.55,37.77z" fill="white"/>
	<path d="M136.5,39.21c-2.08,2.4-4.13,4.65-6.06,7.01c-8.94,10.97-14.95,23.58-19.61,36.85c-1.34,3.83-3.06,5.33-7.06,4.57
		c-10.08-1.92-20.16-3.76-30.06-6.54c-3.15-0.89-3.83-1.96-1.42-4.57c17.01-18.41,37.5-30.98,61.44-37.8
		c0.46-0.13,0.96-0.18,1.44-0.16C135.46,38.59,135.73,38.83,136.5,39.21z" fill="white"/>
</g>
</svg>
