<?xml version="1.0" encoding="utf-8"?>
<!-- Generator: Adobe Illustrator 25.0.0, SVG Export Plug-In . SVG Version: 6.00 Build 0)  -->
<svg version="1.1" id="Vrstva_1" xmlns="http://www.w3.org/2000/svg" xmlns:xlink="http://www.w3.org/1999/xlink" x="0px" y="0px"
	 viewBox="0 0 1047.62 1549.99" style="enable-background:new 0 0 1047.62 1549.99;" xml:space="preserve">
<style type="text/css">
	.st0{fill:#FFFFFF;}
	.st1{fill:#FF907C;stroke:#AFAFAF;stroke-miterlimit:10;}
</style>
<g>
	<path class="st0" d="M1024.22,444.13c-9.73-59.8-29.98-116.9-60.18-169.7c-29.63-51.8-68.42-97.97-115.3-137.23
		c-40.87-34.23-86.73-61.54-136.28-81.15c-62.29-24.66-125.33-36.23-192.71-35.36c-19.46-0.58-43.34,1.04-69.08,4.67
		c-50.72,7.17-100.04,22.08-146.59,44.34c-37.32,17.84-72.94,40.92-105.86,68.57c-34.91,29.33-65.73,63.18-91.61,100.6
		c-29.78,43.07-52.61,90.42-67.84,140.72c-12.58,41.52-19.6,84.89-21.47,132.59c-1.23,31.43,3.61,62.4,8.5,88.54
		c8.26,44.12,20.63,88.33,37.83,135.14c13.48,36.68,29.67,72.23,48.12,105.67c11.32,20.51,23.05,41.17,34.4,61.15
		c5.01,8.83,10.02,17.66,15.02,26.49c9.45,16.73,18.89,33.47,28.33,50.21c21.61,38.32,43.96,77.95,66.07,116.86
		c24.89,43.81,51.7,90.65,81.96,143.2l1.45,2.51c44.59,77.42,90.7,157.49,138.43,234.99l0.36,0.59c7.72,12.54,15.7,25.5,24.99,37.86
		c4.21,5.6,10.54,14.03,22.13,14.03c0.11,0,0.22,0,0.33,0c11.79-0.16,18.03-8.96,21.76-14.22c5.95-8.39,11.21-16.22,16.06-23.94
		c19.73-31.33,40.05-65.17,62.15-103.44l13.36-23.13c16.64-28.81,33.85-58.6,50.65-87.99c19.56-34.22,39.32-69.06,58.43-102.76
		l12.7-22.4c11.96-21.08,23.9-42.18,35.85-63.27c10.7-18.9,21.41-37.81,32.12-56.71l6.64-11.71c19.63-34.61,39.92-70.4,59.95-105.54
		c5.6-9.83,11.42-19.82,17.05-29.47c10.51-18.04,21.37-36.69,31.54-55.5c36.65-67.83,62.66-140.73,77.32-216.66
		c4.02-20.82,8.28-45.54,9.46-71.12C1031.7,510.42,1029.67,477.64,1024.22,444.13z"/>
</g>
<g>
	<path class="st1" d="M1004.37,447.35c-9.41-57.83-28.72-112.14-57.8-162.98c-28.96-50.63-66.16-94.46-110.78-131.83
		c-39.34-32.94-82.97-58.95-130.8-77.89c-58.32-23.09-118.68-34.87-185.52-33.96c-19.45-0.62-42.8,1.18-66.11,4.47
		c-49.14,6.94-96.04,21.2-140.76,42.58c-36.69,17.54-70.45,39.65-101.62,65.84c-33.7,28.31-63.03,60.51-88.02,96.66
		C94.18,291.86,72.5,336.9,57.81,385.38c-12.61,41.64-18.93,84.24-20.62,127.58c-1.11,28.36,2.98,56.32,8.17,84.08
		c8.43,45.05,21.15,88.93,36.95,131.92c13.03,35.47,28.6,69.82,46.86,102.9c16.18,29.3,32.86,58.33,49.32,87.47
		c31.45,55.68,62.79,111.43,94.38,167.03c27.15,47.78,54.47,95.47,81.9,143.09c45.76,79.45,91.49,158.92,139.57,237
		c7.72,12.54,15.44,25.12,24.31,36.92c5.97,7.94,6.37,8.09,11.92,0.25c5.35-7.53,10.53-15.2,15.45-23.02
		c21.3-33.83,41.77-68.16,61.75-102.78c21.35-37,42.76-73.96,63.97-111.05c23.81-41.64,47.43-83.38,71.1-125.09
		c22.68-39.98,45.29-80,67.97-119.98c22.18-39.11,44.35-78.23,66.62-117.3c16.08-28.21,32.93-56.01,48.36-84.57
		c35.88-66.41,60.96-136.77,75.28-210.95c4.36-22.59,8.06-45.28,9.12-68.25C1011.62,509.38,1009.4,478.26,1004.37,447.35z
		 M524.96,913.55c-208.99,0.61-379.93-167.53-379.3-379.25c0.62-207.91,166.41-376.86,377.62-377.25
		c212.82-0.39,379.99,171.83,378.89,380.49C901.07,744.41,733.53,913.27,524.96,913.55z"/>
	<path class="st1" d="M754.32,366.84c-0.96,0.79-1.86,1.66-2.77,2.52c-19.61,18.52-39.08,37.19-58.88,55.5
		c-8.44,7.8-16.77,15.71-25.08,23.64c-1.62,1.54-3.43,2.91-5.24,4.22c-2.47,1.79-5.07,2-7.64,0.14c-2.85-2.06-3.11-4.94-2.37-8.05
		c0.49-2.03,1.95-3.45,3.31-4.91c5.43-5.87,10.8-11.78,16.29-17.59c19.37-20.53,38.78-41.01,58.14-61.55
		c2.91-3.09,5.59-6.39,8.35-9.61c1.57-1.82,1.47-3.6-0.23-5.3c-1.61-1.61-3.42-2.11-5.35-0.66c-1.39,1.05-2.68,2.24-3.94,3.45
		c-22.29,21.14-44.56,42.3-66.87,63.41c-5.8,5.49-11.71,10.87-17.6,16.28c-1.1,1.01-2.2,2.12-3.5,2.78
		c-3.12,1.6-6.28,1.72-8.99-0.91c-2.39-2.33-2.53-5.58-0.41-8.91c0.8-1.25,1.83-2.38,2.86-3.45c8.17-8.43,16.17-17.01,24.16-25.62
		c18.68-20.14,37.68-39.99,56.54-59.96c0.86-0.91,1.72-1.82,2.48-2.8c1.26-1.64,0.96-3.2-0.31-4.75c-2.12-2.57-3.78-2.7-6.86,0.14
		c-12.32,11.32-24.63,22.65-36.82,34.11c-13.1,12.32-26.04,24.81-39.11,37.16c-4.53,4.29-9.15,8.5-13.89,12.56
		c-3.51,3-7.32,2.9-10.07,0.13c-2.48-2.5-2.56-5.92,0.22-9.46c2.77-3.53,5.77-6.9,8.85-10.17c19.7-20.9,39.47-41.73,59.18-62.62
		c5.65-5.99,11.17-12.11,16.78-18.15c1.6-1.73,1.94-3.42,0.2-5.24c-1.73-1.81-3.61-2.81-5.84-0.87c-1.5,1.31-2.93,2.72-4.34,4.13
		c-33.39,33.4-66.78,66.79-100.14,100.22c-2.46,2.47-4.81,5.1-6.87,7.9c-8.92,12.12-9.05,24.87-2.55,38.09
		c1.74,3.53,6.38,6,5.62,10.12c-0.74,3.97-5.4,5.63-8.3,8.3c-16.51,15.24-33.16,30.34-49.81,45.43c-4.99,4.53-5.13,4.52-9.8,0.33
		c-13.18-11.85-26.26-23.82-39.49-35.62c-2.47-2.2-2.73-4.43-1.79-7.33c5.13-15.99,3.17-31.81-2.71-46.98
		c-16.46-42.44-45.93-73.2-86.41-93.48c-13.06-6.55-27.08-10.78-41.82-10.43c-19.83,0.48-34.66,8.89-41.45,27.44
		c-2.12,5.78-2.35,11.71-2.28,16.17c0.02,15.44,3.31,29.35,10.17,43.42c11.93,24.47,29.24,44.6,50.4,61.48
		c14.17,11.3,29.72,20.24,47.2,25.51c13.09,3.95,26.36,6.42,39.78,2.19c5.33-1.68,8.81-0.62,12.4,3.47
		c9.89,11.25,20.03,22.28,30.19,33.3c6.38,6.92,6.6,6.98-0.22,13.29c-19.44,17.96-38.99,35.81-58.52,53.67
		c-11.79,10.78-23.62,21.53-35.45,32.27c-14.23,12.92-28.51,25.8-42.69,38.78c-2.01,1.84-3.86,3.95-5.36,6.22
		c-5.73,8.71-6.01,18.07-1.36,27.08c4.65,9.01,12.4,14.13,22.87,14.56c10.79,0.45,18.29-5.25,25.06-12.78
		c18.52-20.62,37.21-41.08,55.79-61.64c12.05-13.34,24.03-26.74,36.07-40.09c9.87-10.94,19.74-21.88,29.68-32.75
		c4.18-4.57,5.23-4.52,9.51,0.12c5.42,5.87,10.76,11.82,16.11,17.75c17.41,19.26,34.81,38.54,52.22,57.8
		c13.06,14.45,26.11,28.91,39.19,43.34c6.2,6.85,12.18,13.94,18.77,20.38c10.93,10.68,27.29,10.6,37.77,0.3
		c10.93-10.74,11.2-26.96,0.55-38.33c-2.39-2.55-4.94-4.95-7.53-7.31c-21.6-19.67-43.22-39.32-64.85-58.95
		c-7.58-6.88-15.25-13.66-22.81-20.56C577.4,575.1,562.1,561.12,546.93,547c-4.24-3.95-4.1-4.31-0.36-8.45
		c13.88-15.38,27.78-30.76,41.71-46.1c3.02-3.33,6.25-6.47,9.39-9.69c1.83-1.87,3.82-2.19,6.01-0.57c1.2,0.89,2.43,1.75,3.69,2.57
		c15.25,9.98,32.22,8.53,45.17-4.36c34.89-34.72,69.63-69.6,104.41-104.42c1.06-1.06,2.07-2.17,3.01-3.34
		c1.5-1.87,1.19-3.69-0.37-5.38C757.97,365.52,756.19,365.3,754.32,366.84z"/>
</g>
</svg>
