<svg id="bd039af9-c3a6-4d14-909d-f8dfd18a7de0" data-name="Vrstva 1" xmlns="http://www.w3.org/2000/svg" viewBox="0 0 349.94 350.03"><path d="M188.44,364.41c-24.66,0-49.33-.06-74,0a96.1,96.1,0,0,1-47.78-12.62c-21.52-11.95-36.67-29.53-46-52.17a95.87,95.87,0,0,1-7.21-37.08q.08-73.69,0-147.4c0-18.7,5.49-35.82,15.23-51.59C42,42,61,27.41,84.93,19.37a91.19,91.19,0,0,1,28.83-4.86c49.73-.06,99.46-.22,149.19.06,22.71.13,43.09,7.87,60.88,21.9,21.66,17.07,34.47,39.45,38.62,66.74a69.57,69.57,0,0,1,.92,10.42q0,74.6,0,149.2a97.42,97.42,0,0,1-20.09,60c-18.08,24.06-42.31,37.74-72.15,41.47a56.48,56.48,0,0,1-6.89.15Zm-.15-15.55H259.6a86.75,86.75,0,0,0,11.94-.6c23.83-3.26,43.2-14.45,57.94-33.27,12.48-15.94,18.37-34.3,18.35-54.59q-.1-70,0-139.91a100.9,100.9,0,0,0-1.27-16.39c-4.06-24.86-16.72-44.34-37.25-58.75-15.68-11-33.42-15.24-52.32-15.26q-68.61-.06-137.21,0a108.92,108.92,0,0,0-12.25.66C83,33.57,63,44.67,47.65,64A83.72,83.72,0,0,0,29,117.22c-.07,47.83,0,95.67-.05,143.5a85,85,0,0,0,.8,11.64c3.06,22.38,13,41,30.26,55.78a83.76,83.76,0,0,0,55.75,20.69C140,348.94,164.13,348.86,188.29,348.86Z" transform="translate(-13.43 -14.41)" fill="#fcc"/><path d="M187.79,276.93C141.73,277.77,99,238,101,186.34A87.58,87.58,0,0,1,190.4,102c47,.77,86.5,40.59,85.58,89.47C275.1,238,235.8,278,187.79,276.93Zm.57-158.84c-38.85-.52-71.6,31.27-71.72,70.84-.14,41.17,32.24,72.41,71.83,72.39A71.52,71.52,0,0,0,260.21,190C260.46,148.91,226.74,117.48,188.36,118.09Z" transform="translate(-13.43 -14.41)" fill="#fcc"/><path d="M299.83,94A15.56,15.56,0,0,1,284,109.72a15.83,15.83,0,0,1-15.87-16c.12-8.36,7.79-15.68,16.25-15.5A15.83,15.83,0,0,1,299.83,94Z" transform="translate(-13.43 -14.41)" fill="#fcc"/></svg>