<?xml version="1.0" encoding="utf-8"?>
<!-- Generator: Adobe Illustrator 25.0.0, SVG Export Plug-In . SVG Version: 6.00 Build 0)  -->
<svg version="1.1" id="Vrstva_1" xmlns="http://www.w3.org/2000/svg" xmlns:xlink="http://www.w3.org/1999/xlink" x="0px" y="0px"
	 viewBox="0 0 1019.23 1480.85" style="enable-background:new 0 0 1019.23 1480.85;" xml:space="preserve">
<style type="text/css">
	.st0{fill:#FFFFFF;}
	.st1{fill:#98BFAD;}
</style>
<path class="st0" d="M1000.54,488.48c-0.04-3.82-0.43-7.29-0.78-10.36c-0.27-2.43-0.53-4.72-0.53-6.53
	c0.05-14.41-1.81-28.31-3.88-42.47c-8.76-59.78-27.91-116.49-56.91-168.54c-29.08-52.19-67-98.17-112.72-136.65
	C774.35,80.7,716.28,49.16,653.12,30.2c-50-15.01-97.47-21.56-149.44-20.6l-1.3,0.07c-3.24,0.27-7.97,0.32-12.98,0.37
	c-7.65,0.08-16.31,0.16-25.36,0.99c-27.08,2.48-53.47,7.05-78.45,13.59c-40.06,10.49-78.52,25.83-114.31,45.6
	c-37.57,20.76-72.26,46.55-106.06,78.86c-14.38,13.74-27.14,28.91-37.73,41.93C83.2,245.45,51.74,307.89,33.96,376.59
	C26.83,404.13,22.13,432.9,20,462.1c-2.05,28.06-1.74,51.39,0.96,73.43c5.04,41.03,14.74,83.21,30.51,132.72
	c17.32,54.38,41.4,108.35,71.55,160.39c12.78,22.06,25.51,44.72,37.81,66.64c5.81,10.34,11.61,20.68,17.45,31.01
	c5.81,10.28,11.62,20.57,17.43,30.86c14.46,25.62,29.42,52.11,44.23,78.13c24.1,42.36,49.27,86.38,74.79,130.84
	c21.52,37.5,46.55,81.05,71.21,123.44c29.74,51.14,53.18,90.38,75.98,127.24l0.32,0.52c8.79,14.21,17.88,28.9,28.38,42.86
	c2.29,3.04,8.37,11.13,19.5,11.17c0.03,0,0.05,0,0.08,0c11.07,0,17.16-7.98,19.45-10.99c7.76-10.17,14.41-20.75,20.27-30.09
	c22.63-36.02,43.98-72.58,61.87-103.6l7.65-13.25c23.16-40.14,47.11-81.65,70.48-122.61c17.06-29.9,34.26-60.35,50.88-89.81
	c7.41-13.13,14.83-26.27,22.25-39.39c6.31-11.16,12.62-22.32,18.93-33.48c14.34-25.37,29.16-51.6,43.8-77.37
	c20.58-36.23,42.64-75.01,64.57-113.18c2.22-3.86,4.45-7.72,6.68-11.58c10.89-18.82,22.15-38.29,31.99-58.5
	c27.61-56.7,47.83-116.17,60.11-176.75C997.35,550.3,1000.87,518.76,1000.54,488.48z"/>
<g>
	<path class="st1" d="M980.55,488.7c-0.06-5.78-1.33-11.42-1.31-17.17c0.05-13.29-1.76-26.43-3.67-39.5
		c-8.38-57.18-26.42-111.13-54.59-161.7c-28.04-50.34-64.15-94.06-108.13-131.09C763.9,98.04,708.81,67.8,647.37,49.35
		c-45.06-13.53-91.01-20.72-143.33-19.76c-9.22,0.77-23.7,0.02-38.18,1.34c-25.46,2.33-50.53,6.56-75.21,13.02
		c-38.35,10.04-74.92,24.54-109.7,43.76c-37.45,20.69-71.09,46.35-101.91,75.82c-13.01,12.44-24.68,26.13-36.04,40.1
		c-42.92,52.77-72.66,112.2-89.68,177.98c-6.95,26.88-11.34,54.2-13.37,81.96c-1.7,23.25-1.97,46.43,0.87,69.53
		c5.41,44.04,16.28,86.89,29.72,129.09c17.43,54.73,41,106.73,69.8,156.43c18.79,32.42,36.93,65.21,55.37,97.83
		c20.53,36.32,40.99,72.68,61.63,108.93c24.84,43.64,49.76,87.23,74.76,130.78c23.63,41.16,47.29,82.31,71.15,123.34
		c24.75,42.55,49.8,84.91,75.7,126.77c8.81,14.24,17.6,28.49,27.68,41.88c3.19,4.25,3.97,4.24,7.15,0.08
		c6.98-9.15,13.13-18.87,19.24-28.6c21.27-33.85,41.5-68.33,61.48-102.95c26.09-45.23,52.2-90.44,78.08-135.78
		c24.52-42.96,48.74-86.08,73.1-129.13c20.91-36.96,41.77-73.95,62.74-110.88c21.47-37.8,42.97-75.58,64.62-113.27
		c13.07-22.75,26.54-45.27,38.03-68.87c26.71-54.86,46.36-112.14,58.49-171.97C976.12,554.4,980.9,521.85,980.55,488.7z
		 M875.55,511.52c-1.53,203.07-168.87,364.45-365.73,362.57c-201.64,2.32-367.3-165.87-366.59-367.02
		c0.69-197.29,162.66-365.73,367.68-364.95C711.81,142.89,877.09,307.21,875.55,511.52z"/>
	<path class="st1" d="M745.31,454.45c0-4.49-0.29-8.95-1.16-13.4c-8.17-41.86-46.35-69.87-86-69.53
		c-53.21,0.46-106.43,0.11-159.65,0.11c-11.21,0-11.24,0.03-11.24,11.22c-0.01,42.47,0,84.94-0.01,127.41
		c0,11.31-0.03,11.33-11.12,11.34c-49.47,0.01-98.94,0.01-148.41,0c-1.75,0-3.5,0.07-5.24-0.06c-4.84-0.36-5.65-1.11-6.03-5.76
		c-0.18-2.24-0.08-4.49-0.08-6.74c0-38.22,0-76.45,0-114.67c0-19.49,0.05-38.97-0.05-58.46c-0.03-6.56-0.93-7.43-7.34-7.56
		c-7.99-0.16-15.99-0.06-23.98-0.05c-12.23,0.01-12.24,0.01-12.24,12.49c0,99.18,0,198.36,0,297.55c0,1.75-0.05,3.5,0.03,5.25
		c0.29,6.09,1.01,6.97,7.05,7.07c9.24,0.16,18.49,0.11,27.73,0.04c8.2-0.06,8.74-0.61,8.77-9.15c0.06-14.74,0.01-29.48,0.02-44.22
		c0.01-11,0.03-11.02,11.36-11.02c60.21-0.01,120.43,0,180.64,0c6.75,0,13.49,0,20.24,0c54.47,0,108.93-0.01,163.4,0.01
		c9.37,0,9.7,0.36,9.74,9.71c0.05,11.99,0.01,23.98,0.02,35.98c0,4.25-0.14,8.5,0.11,12.74c0.28,4.75,1.21,5.55,5.91,5.91
		c1.99,0.15,4,0.07,5.99,0.07c8.49-0.01,16.99,0.11,25.48-0.11c4.76-0.12,5.57-1.15,6.01-5.78c0.12-1.24,0.07-2.5,0.07-3.75
		C745.33,578.86,745.33,516.66,745.31,454.45z"/>
	<path class="st1" d="M401.27,500.75c36.46,0.14,65.08-28.04,65.12-64.11c1.24-35.68-30.07-65-63.68-65
		c-36.01-0.01-65.37,28.82-65.47,64.28C337.13,471.33,366.05,500.61,401.27,500.75z"/>
</g>
</svg>
