<?xml version="1.0" encoding="utf-8"?>
<!-- Generator: Adobe Illustrator 25.0.0, SVG Export Plug-In . SVG Version: 6.00 Build 0)  -->
<svg version="1.1" id="Vrstva_1" xmlns="http://www.w3.org/2000/svg" xmlns:xlink="http://www.w3.org/1999/xlink" x="0px" y="0px"
	 viewBox="0 0 1016.51 1470.64" style="enable-background:new 0 0 1016.51 1470.64;" xml:space="preserve">
<style type="text/css">
	.st0{fill:#FFFFFF;}
	.st1{fill:#694A52;}
</style>
<g>
	<path class="st0" d="M1002.01,484.25c-0.52-22.69-2.45-44.9-5.74-66.01c-8.13-52.21-24.03-101.82-47.24-147.44
		c-25.13-49.39-58.5-94.29-99.2-133.44c-32.1-30.88-68.33-57.26-107.69-78.42c-70.89-38.11-149.3-57.83-233.03-58.6l-0.25,0l-0.25,0
		c-11.02,0.17-22.13,0.57-33.03,1.19c-22.78,1.29-45.58,4.37-69.7,9.42c-49.37,10.33-96.88,28.3-141.22,53.41
		c-56.45,31.97-105.49,74.26-145.75,125.69c-30.73,39.26-55.33,83.1-73.11,130.31c-18.56,49.28-29.06,102.87-31.21,159.31
		c-0.78,20.41,0.85,41.86,5.28,69.56c6.99,43.69,18.81,88.88,36.15,138.16c14.12,40.13,29.34,74.76,46.55,105.87
		c25.59,46.28,52.08,93.02,77.7,138.22l9.51,16.78c33.33,58.83,67.64,119.12,101.98,179.21c50.88,89.04,103.49,181.11,158.55,271.72
		l1.55,2.55c11.2,18.43,22.77,37.49,36.02,55.55c3.31,4.51,9.47,12.91,21.07,13.03c0.08,0,0.17,0,0.25,0
		c11.4,0,17.82-8.37,20.92-12.4c1.46-1.9,2.74-3.77,3.87-5.42l0.63-0.92c12.62-18.33,23.84-36.8,33.14-52.45
		c35.62-59.9,71.16-121.07,105.63-181.83l37.47-66.04c26.96-47.53,53.93-95.05,80.9-142.57l10.59-18.66
		c25.08-44.19,50.15-88.38,75.27-132.55c4.76-8.37,9.71-16.88,14.5-25.11c9.62-16.53,19.57-33.62,28.77-50.97
		c32.11-60.57,55.65-126.79,69.96-196.82C996.84,555.29,1002.84,520.48,1002.01,484.25z"/>
</g>
<g>
	<path class="st1" d="M982.01,484.71c-0.49-21.21-2.23-42.36-5.51-63.39c-7.72-49.54-22.57-96.77-45.3-141.45
		c-24.46-48.08-56.33-90.67-95.24-128.09c-31.01-29.83-65.48-54.9-103.29-75.22c-69.8-37.53-144.65-55.49-223.75-56.22
		c-10.76,0.17-21.47,0.55-32.2,1.16c-22.51,1.28-44.72,4.42-66.73,9.03c-47.81,10-92.95,27.16-135.46,51.23
		c-54.61,30.93-101.19,71.22-139.85,120.61c-29.79,38.06-53.1,79.77-70.14,125.03C45.95,376.74,36.6,427.85,34.59,480.42
		c-0.84,22.07,1.57,43.91,5.04,65.64C47,592.09,59.45,636.82,74.9,680.74c12.46,35.41,27.02,69.98,45.18,102.83
		c28.65,51.82,57.92,103.3,87.11,154.81c33.87,59.78,67.85,119.49,101.94,179.15c51.94,90.9,103.91,181.78,158.28,271.26
		c11.68,19.22,23.28,38.49,36.6,56.65c4.74,6.46,5.55,6.41,10.25,0.29c1.37-1.78,2.62-3.66,3.89-5.51
		c11.48-16.68,22.08-33.94,32.42-51.33c35.76-60.13,70.9-120.63,105.43-181.48c39.46-69.54,78.9-139.08,118.37-208.61
		c28.61-50.41,57.21-100.83,85.86-151.22c14.32-25.19,29.42-49.98,42.99-75.57c32.04-60.43,54.34-124.45,68.03-191.46
		C977.72,548.94,982.75,517.09,982.01,484.71z M511.01,870.08c-207.1,1.67-370.7-166.37-370.1-368.98
		c0.59-200.24,162.83-365.84,366.88-366.21c204.2-0.37,367.5,165.22,367.79,366.74C876.27,702.45,715.82,868.43,511.01,870.08z"/>
	<path class="st1" d="M708.55,361.72c-4.48-0.68-8.94-0.83-13.44-0.83c-124.69,0-249.39,0-374.08,0c-2.25,0-4.5-0.04-6.75,0.06
		c-29.61,1.31-45.39,25.54-44.55,46.09c0.65,15.97,0.1,31.98,0.14,47.97c0.02,10.44,0.43,10.85,11.09,10.86
		c29.49,0.03,58.97,0,88.46,0.02c2.75,0,5.52-0.09,8.23,0.25c6.04,0.76,9.51,4.66,9.67,10.49c0.16,6.02-3.6,10.65-9.58,11.42
		c-2.71,0.35-5.49,0.27-8.23,0.27c-30.24,0.02-60.47-0.02-90.71,0.04c-8.29,0.01-8.89,0.65-8.92,9.04
		c-0.06,15.49-0.02,30.98-0.01,46.48c0,1.5,0.05,3,0.16,4.49c0.23,2.96,1.88,4.51,4.85,4.6c2.25,0.07,4.5,0.12,6.74,0.12
		c25.99,0.01,51.98,0,77.97,0.01c5.5,0,11.01-0.17,16.49,0.11c6.84,0.35,11.4,5.11,11.45,11.46c0.05,5.76-4.44,10.73-10.72,11.56
		c-2.46,0.33-4.99,0.21-7.48,0.22c-30.49,0.01-60.97-0.02-91.46,0.04c-6.95,0.01-7.88,0.72-7.92,6.89
		c-0.13,18.99-0.44,37.99,0.14,56.96c0.51,16.65,14.56,33.55,30.53,38.02c5.81,1.63,11.82,1.83,17.84,1.83
		c62.97-0.03,125.94-0.02,188.92-0.02c62.72,0,125.44,0.01,188.17-0.01c3.49,0,7.01,0.03,10.48-0.33
		c23.48-2.44,39.57-20.19,39.58-43.79c0.04-76.71-0.37-153.42,0.28-230.13C746.03,386.53,730.35,365.03,708.55,361.72z
		 M577.45,624.86c-58.42,2.02-107.5-48.68-106.95-107.59c0.52-55.42,48.05-106.16,107.35-105.51
		c52.83,0.58,105.6,43.15,105.33,107.49C682.9,584.89,628.69,626.52,577.45,624.86z"/>
	<path class="st1" d="M514.42,339.92c20.99,0.04,41.98,0.01,62.97,0.01c0,0,0-0.01,0-0.01c21.99,0,43.98,0.07,65.97-0.04
		c6.97-0.03,8.28-1.82,7.49-8.68c-1.45-12.51-14.34-23.5-26.27-23.32c-31.23,0.47-62.47,0.43-93.7,0.03
		c-12.95-0.17-22.78,9.83-25.68,19.3C502.14,337.22,503.98,339.9,514.42,339.92z"/>
	<path class="st1" d="M577.37,434.96c-49.08-0.21-84.21,39.39-84.03,83.7c0.18,44.12,33.32,83.16,83.39,83.48
		c49.35,0.31,83.91-39.94,83.39-83.29C660.82,474.41,625.8,435.17,577.37,434.96z"/>
</g>
</svg>
