<svg width="50" height="50" viewBox="0 0 50 50" fill="none" xmlns="http://www.w3.org/2000/svg">
<g clip-path="url(#clip0)">
<path d="M0 24.1871V24.1164C0.627615 15.9127 3.55649 9.75992 8.64714 5.87024C13.6681 1.90985 19.1074 0.000368524 25.0349 0.000368524C31.2413 -0.0703528 37.0293 2.05129 42.1897 6.29457C47.4198 10.4671 50 16.6906 50 24.7528V25.2479C50 33.3808 47.4198 39.4629 42.1897 43.6354C36.9596 47.8787 31.1715 50.0004 24.9651 50.0004H24.6862C18.6192 49.9296 13.0404 47.808 7.88006 43.5647C2.71967 39.3922 0.069735 32.9565 0 24.1871ZM23.5007 13.0838V1.90985H21.8271C21.4784 2.33417 21.1994 2.82922 20.9205 3.25355C20.6416 3.67788 20.3626 4.10221 20.0837 4.59726C19.8047 5.02158 19.4561 5.58736 19.2469 6.01168C18.9679 6.43601 18.7587 6.86034 18.5495 7.35539C18.1311 8.0626 17.7824 8.76982 17.5035 9.40631C17.1548 10.0428 16.8759 10.6793 16.6667 11.2451C17.0851 11.528 17.5732 11.8816 18.1311 12.0937C18.7587 12.3059 19.3863 12.518 20.0139 12.6595C20.7113 12.8009 21.3389 12.8717 21.8968 12.9424C22.5244 13.0131 23.0823 13.0838 23.5007 13.0838ZM26.4296 1.90985V13.0131C26.7782 13.0131 27.1967 13.0838 27.6151 13.0131C28.0335 13.0131 28.5216 12.9424 28.94 12.8717C29.7071 12.7302 30.6137 12.518 31.311 12.3059C32.0781 12.023 32.7755 11.6694 33.2636 11.2451C32.4268 9.19415 31.5202 7.56755 30.6137 6.01168C29.7071 4.45581 28.6611 3.11211 27.5453 1.98057V1.90985H26.4296ZM18.8982 2.54634V2.47562C18.41 2.68778 17.9219 3.04139 17.364 3.25355C16.8759 3.46571 16.2483 3.7486 15.7601 4.03149C14.7838 4.52654 13.8075 5.09231 12.8312 5.7288C11.9247 6.36529 11.0181 7.0725 10.251 7.77972C10.53 8.0626 10.8787 8.34549 11.1576 8.55765C11.4365 8.76982 11.7852 9.0527 12.1339 9.33559C12.4128 9.47703 12.7615 9.68919 13.1102 9.97208C13.4589 10.1842 13.8773 10.4671 14.2957 10.75C14.8536 9.47703 15.4114 8.13332 16.1088 6.93106C16.8061 5.65808 17.5732 4.45581 18.3403 3.39499C18.41 3.25355 18.4798 3.11211 18.6192 2.97067C18.689 2.89994 18.7587 2.68778 18.8982 2.54634ZM40.2371 7.77972V7.709C38.4937 6.36529 36.9596 5.23375 35.4254 4.52654C33.8912 3.81932 32.357 3.11211 30.9623 2.54634C32.0781 3.67788 33.0544 5.09231 33.682 6.43601C34.3794 7.85044 35.0767 9.33559 35.6346 10.75C35.9135 10.6086 36.2622 10.4671 36.6806 10.1842C37.0293 9.97208 37.5174 9.75992 37.9358 9.54775C38.3543 9.26487 38.7029 8.98198 39.1213 8.6991C39.5397 8.34549 39.9582 8.0626 40.2371 7.77972ZM39.0516 23.5506H47.0711C47.0711 20.9339 46.5132 18.4586 45.4672 15.9127C44.4909 13.4374 43.0962 11.3865 41.3529 9.61847V9.54775C41.0042 10.1135 40.516 10.6086 40.0279 10.9622C39.47 11.3158 38.9819 11.5987 38.424 11.8816C38.0753 12.0937 37.7266 12.3766 37.378 12.518C37.0293 12.7302 36.5411 12.8717 36.1925 13.0838C36.4714 13.6496 36.7503 14.2861 37.0293 14.8519C37.2385 15.4883 37.5872 16.1956 37.7266 16.8321C38.145 17.9636 38.424 19.1659 38.7029 20.3681C38.9121 21.4289 39.0516 22.5605 39.0516 23.5506ZM13.8075 13.0838V13.0131C13.2497 12.7302 12.622 12.518 12.1339 12.2352C11.6457 11.8816 11.1576 11.528 10.7392 11.2451C10.3208 11.0329 9.90237 10.75 9.5537 10.4671C9.20502 10.1842 8.92608 9.90136 8.64714 9.61847C6.83403 11.3865 5.50907 13.3667 4.67225 15.7005C3.76569 18.0343 3.13808 20.651 2.85914 23.4799H11.4365C11.4365 21.4997 11.7155 19.5902 12.2036 17.6807C12.622 15.7005 13.2497 14.2154 13.8075 13.0838ZM23.5007 23.4799V15.3469C22.9428 15.4176 22.2455 15.4176 21.6179 15.3469C20.9205 15.2762 20.2232 15.064 19.5955 14.8519C19.0377 14.7104 18.3403 14.569 17.7824 14.3568C17.1548 14.2154 16.5272 13.9325 16.0391 13.6496C15.6206 14.3568 15.272 15.2055 14.993 16.1248C14.6444 16.9735 14.4351 17.8929 14.2259 18.7415C14.0865 19.5902 14.0167 20.5096 13.947 21.2875C13.8773 22.0654 13.8075 22.8434 13.8075 23.4799H23.5007ZM26.4296 15.4883V23.4799H36.7503C36.7503 23.0555 36.7503 22.5605 36.6806 21.9947C36.5411 21.4997 36.4714 20.8632 36.4017 20.2974C36.1925 19.4487 35.9833 18.5294 35.7043 17.6807C35.4254 16.9028 35.1464 16.1248 34.7978 15.4883C34.6583 15.1347 34.5188 14.7104 34.3794 14.4275C34.1702 14.0739 33.9609 13.8618 33.8215 13.6496C33.0544 14.2154 32.0084 14.569 30.7531 14.8519C29.5676 15.1347 28.1729 15.4176 26.9177 15.4883H26.4296ZM11.4365 25.8137H2.85914C2.85914 27.0159 3.06834 28.3596 3.41702 29.9862C3.76569 31.6835 4.46304 33.2394 5.23013 34.9367C5.5788 35.7854 5.99721 36.634 6.41562 37.4827C6.90377 38.2606 7.46165 39.1093 8.01953 39.8872C8.43794 39.6043 8.85635 39.3922 9.20502 39.18C9.62343 38.9678 10.1116 38.6849 10.53 38.4728C11.0181 38.2606 11.5063 38.0485 12.0642 37.7656C12.5523 37.5534 13.1799 37.2705 13.8075 36.9876C13.2497 35.2196 12.622 33.5223 12.2036 31.6128C11.7155 29.7741 11.4365 27.9353 11.4365 25.8844V25.8137ZM23.5007 34.0881V25.8137H13.8075C13.8075 26.3794 13.8773 27.2281 14.0167 28.0767C14.0865 28.9254 14.2957 29.8448 14.4351 30.7642C14.7141 31.7543 14.9233 32.7444 15.2022 33.593C15.4812 34.4417 15.7601 35.1489 16.0391 35.7854C17.2943 35.2903 18.5495 34.9367 19.3863 34.7246C20.2929 34.4417 21.1297 34.2295 21.9665 34.1588H22.7336C23.0126 34.0881 23.2915 34.0881 23.5007 34.0881ZM26.4296 25.8137V34.0173C26.9177 34.0881 27.4756 34.1588 28.0335 34.2295C28.6611 34.3002 29.4282 34.4417 30.0558 34.5831L31.1018 34.7953C31.4505 34.9367 31.8689 35.0074 32.2176 35.0782C32.636 35.2196 33.0544 35.2903 33.4728 35.4318C33.8215 35.5732 34.1702 35.6439 34.4491 35.7854C35.3556 33.4516 35.9135 31.5421 36.2622 29.9155C36.6109 28.3596 36.7503 27.0159 36.7503 25.8844V25.8137H26.4296ZM47.0711 25.8844V25.8137H39.0516V26.238C38.9819 27.5817 38.7727 29.1376 38.4937 30.7642C38.2148 32.32 37.5872 34.1588 36.7503 36.4219C37.8661 36.9876 38.9121 37.5534 39.749 38.1192C40.5858 38.6849 41.3529 39.3214 41.9107 39.8872C43.0962 38.6849 44.1423 37.0584 45.0488 34.9367C45.9554 32.8858 46.583 30.7642 46.9317 28.5011C47.0014 28.0767 47.0014 27.6524 47.0711 27.2281V25.8844ZM23.5007 47.3837V36.3511C21.7573 36.634 20.2929 36.9876 19.1771 37.2705C18.0614 37.5534 17.2245 37.8363 16.6667 38.1192C17.0851 39.18 17.5035 40.0994 17.9219 40.948C18.3403 41.726 18.8285 42.5746 19.2469 43.2818C19.3863 43.5647 19.6653 43.8476 19.8745 44.2012C20.0837 44.4841 20.2232 44.8377 20.4324 45.1206C20.6416 45.4742 20.8508 45.8985 21.06 46.3229C21.3389 46.6765 21.5481 47.1008 21.8271 47.3837H23.5007ZM26.4296 47.3837H28.0335C28.6611 46.8886 29.2887 46.1814 29.7768 45.4035C30.3347 44.6255 30.9623 43.7062 31.3808 42.9282C31.8689 42.0089 32.357 41.1602 32.7755 40.3115C33.1939 39.4629 33.5425 38.6849 33.8215 38.1192C33.0544 37.8363 32.0084 37.5534 30.9623 37.2705C29.9163 36.9876 28.4519 36.7048 26.4296 36.4219V47.3837ZM40.2371 41.5845V41.5138C40.0976 41.3016 39.8187 41.0188 39.6095 40.8066C39.4003 40.5944 39.0516 40.3115 38.7029 40.0994C38.424 39.8872 38.0753 39.675 37.6569 39.4629C37.2385 39.2507 36.6806 38.9678 36.1925 38.6849C35.9135 39.2507 35.4254 40.2408 34.728 41.5845C34.1004 42.9282 32.9847 44.5548 31.59 46.3229C33.3333 46.04 34.8675 45.4035 36.2622 44.5548C37.7964 43.7769 39.1213 42.7161 40.2371 41.5845ZM14.2957 39.3214V39.2507C13.8075 39.5336 13.0404 39.8872 12.2734 40.2408C11.4365 40.5944 10.53 41.0188 9.69317 41.5845C10.1813 42.0089 10.6695 42.4332 11.0879 42.7161C11.5063 43.0697 11.9944 43.3526 12.4128 43.6354C13.1799 44.1305 14.0865 44.6255 14.993 45.0499C15.8996 45.4742 17.0153 45.8985 18.41 46.3229C17.9219 45.7571 17.5732 45.0499 17.2245 44.4841C16.8759 43.9183 16.4575 43.3526 16.1088 42.7868C15.7601 42.221 15.4812 41.5845 15.2022 41.0188C14.8536 40.453 14.5746 39.8872 14.2957 39.3214Z" fill="black"/>
</g>
<defs>
<clipPath id="clip0">
<rect width="50" height="50" fill="white"/>
</clipPath>
</defs>
</svg>
